<svg width="34" height="34" viewBox="0 0 34 34" fill="none" xmlns="http://www.w3.org/2000/svg">
<path d="M0.5 3.37535C0.5 1.78734 1.78734 0.5 3.37535 0.5H20.7872C22.3752 0.5 23.6626 1.78734 23.6626 3.37535V28.2951C23.6626 29.8831 22.3752 31.1704 20.7872 31.1704H3.37536C1.78734 31.1704 0.5 29.8831 0.5 28.2951V3.37535Z" fill="url(#paint0_linear_106_245)"/>
<path d="M9.12606 26.4581C9.12606 24.8259 10.4492 23.5028 12.0813 23.5028C13.7134 23.5028 15.0365 24.8259 15.0365 26.4581V31.1704H9.12606V26.4581Z" fill="white"/>
<path d="M4.3338 7.20915C4.3338 6.67982 4.76291 6.2507 5.29225 6.2507H7.20916C7.73849 6.2507 8.16761 6.67982 8.16761 7.20915V9.12606C8.16761 9.65539 7.73849 10.0845 7.20916 10.0845H5.29225C4.76291 10.0845 4.3338 9.65539 4.3338 9.12606V7.20915Z" fill="white"/>
<path d="M10.0845 7.20915C10.0845 6.67982 10.5136 6.2507 11.043 6.2507H12.9599C13.4892 6.2507 13.9183 6.67982 13.9183 7.20915V9.12606C13.9183 9.65539 13.4892 10.0845 12.9599 10.0845H11.043C10.5136 10.0845 10.0845 9.65539 10.0845 9.12606V7.20915Z" fill="white"/>
<path d="M15.8352 7.20915C15.8352 6.67982 16.2643 6.2507 16.7937 6.2507H18.7106C19.2399 6.2507 19.669 6.67982 19.669 7.20915V9.12606C19.669 9.65539 19.2399 10.0845 18.7106 10.0845H16.7937C16.2643 10.0845 15.8352 9.65539 15.8352 9.12606V7.20915Z" fill="white"/>
<path d="M4.3338 14.8768C4.3338 14.3474 4.76291 13.9183 5.29225 13.9183H7.20916C7.73849 13.9183 8.16761 14.3474 8.16761 14.8768V16.7937C8.16761 17.323 7.73849 17.7521 7.20916 17.7521H5.29225C4.76291 17.7521 4.3338 17.323 4.3338 16.7937V14.8768Z" fill="white"/>
<path d="M10.0845 14.8768C10.0845 14.3474 10.5136 13.9183 11.043 13.9183H12.9599C13.4892 13.9183 13.9183 14.3474 13.9183 14.8768V16.7937C13.9183 17.323 13.4892 17.7521 12.9599 17.7521H11.043C10.5136 17.7521 10.0845 17.323 10.0845 16.7937V14.8768Z" fill="white"/>
<path d="M15.8352 14.8768C15.8352 14.3474 16.2643 13.9183 16.7937 13.9183H18.7106C19.2399 13.9183 19.669 14.3474 19.669 14.8768V16.7937C19.669 17.323 19.2399 17.7521 18.7106 17.7521H16.7937C16.2643 17.7521 15.8352 17.323 15.8352 16.7937V14.8768Z" fill="white"/>
<g filter="url(#filter0_i_106_245)">
<path d="M33.74 24.87C33.74 29.7688 29.7688 33.74 24.87 33.74C19.9712 33.74 16 29.7688 16 24.87C16 19.9712 19.9712 16 24.87 16C29.7688 16 33.74 19.9712 33.74 24.87Z" fill="#21D4FD" fill-opacity="0.4"/>
</g>
<path d="M27.362 22.5154C27.362 23.9047 26.2415 25.0309 24.8594 25.0309C23.4772 25.0309 22.3568 23.9047 22.3568 22.5154C22.3568 21.1262 23.4772 20 24.8594 20C26.2415 20 27.362 21.1262 27.362 22.5154Z" fill="white"/>
<path d="M20.5 28.9242C20.5 27.2669 21.8366 25.9234 23.4855 25.9234H26.314C27.9629 25.9234 29.2995 27.2669 29.2995 28.9242C29.2995 29.4628 28.8651 29.8994 28.3292 29.8994H21.4703C20.9344 29.8994 20.5 29.4628 20.5 28.9242Z" fill="white"/>
<defs>
<filter id="filter0_i_106_245" x="16" y="16" width="17.94" height="17.84" filterUnits="userSpaceOnUse" color-interpolation-filters="sRGB">
<feFlood flood-opacity="0" result="BackgroundImageFix"/>
<feBlend mode="normal" in="SourceGraphic" in2="BackgroundImageFix" result="shape"/>
<feColorMatrix in="SourceAlpha" type="matrix" values="0 0 0 0 0 0 0 0 0 0 0 0 0 0 0 0 0 0 127 0" result="hardAlpha"/>
<feOffset dx="0.2" dy="0.1"/>
<feGaussianBlur stdDeviation="0.5"/>
<feComposite in2="hardAlpha" operator="arithmetic" k2="-1" k3="1"/>
<feColorMatrix type="matrix" values="0 0 0 0 1 0 0 0 0 1 0 0 0 0 1 0 0 0 0.6 0"/>
<feBlend mode="normal" in2="shape" result="effect1_innerShadow_106_245"/>
</filter>
<linearGradient id="paint0_linear_106_245" x1="2.07034" y1="9.85709" x2="22.761" y2="8.36892" gradientUnits="userSpaceOnUse">
<stop stop-color="#21D4FD"/>
<stop offset="1" stop-color="#2152FF"/>
</linearGradient>
</defs>
</svg>
