<svg width="35" height="25" viewBox="0 0 35 25" fill="none" xmlns="http://www.w3.org/2000/svg">
<path d="M26.2936 2.43781C26.2936 1.09145 27.385 0 28.7314 0H32.5622C33.9086 0 35 1.09145 35 2.43781V21.9403C35 23.2867 33.9086 24.3781 32.5622 24.3781H28.7314C27.385 24.3781 26.2936 23.2867 26.2936 21.9403V2.43781Z" fill="#9CACCC" fill-opacity="0.4"/>
<path d="M32.3881 18.2836C32.3881 19.2453 31.6085 20.0249 30.6468 20.0249C29.6851 20.0249 28.9055 19.2453 28.9055 18.2836C28.9055 17.3219 29.6851 16.5423 30.6468 16.5423C31.6085 16.5423 32.3881 17.3219 32.3881 18.2836Z" fill="white"/>
<path d="M28.9055 7.83582C28.9055 7.35498 29.2953 6.96517 29.7762 6.96517H31.5175C31.9983 6.96517 32.3881 7.35498 32.3881 7.83582C32.3881 8.31667 31.9983 8.70647 31.5175 8.70647H29.7762C29.2953 8.70647 28.9055 8.31667 28.9055 7.83582Z" fill="white"/>
<path d="M28.9055 4.35323C28.9055 3.87239 29.2953 3.48259 29.7762 3.48259H31.5175C31.9983 3.48259 32.3881 3.87239 32.3881 4.35323C32.3881 4.83408 31.9983 5.22388 31.5175 5.22388H29.7762C29.2953 5.22388 28.9055 4.83408 28.9055 4.35323Z" fill="white"/>
<path fill-rule="evenodd" clip-rule="evenodd" d="M2.43781 0C1.09145 0 0 1.09145 0 2.43781V16.7164C0 18.0628 1.09145 19.1542 2.43781 19.1542H22.1144C23.4608 19.1542 24.5522 18.0628 24.5522 16.7164V2.43781C24.5522 1.09145 23.4608 0 22.1144 0H2.43781ZM21.0697 3.48259H3.48259V15.6716H21.0697V3.48259Z" fill="url(#paint0_linear_3043_1782)"/>
<path d="M3.65672 22.2886C3.65672 21.5192 4.2804 20.8955 5.04975 20.8955H19.6766C20.446 20.8955 21.0697 21.5192 21.0697 22.2886V22.9851C21.0697 23.7544 20.446 24.3781 19.6766 24.3781H5.04975C4.2804 24.3781 3.65672 23.7544 3.65672 22.9851V22.2886Z" fill="url(#paint1_linear_3043_1782)"/>
<path d="M10.0124 19.1542H14.5398L15.1493 20.8955H9.40298L10.0124 19.1542Z" fill="url(#paint2_linear_3043_1782)"/>
<path d="M3.48259 3.48259H21.0697V15.6716H3.48259V3.48259Z" fill="#9CACCC" fill-opacity="0.4"/>
<defs>
<linearGradient id="paint0_linear_3043_1782" x1="12.2761" y1="0" x2="12.2761" y2="24.3781" gradientUnits="userSpaceOnUse">
<stop stop-color="#9CACCC"/>
<stop offset="1" stop-color="#7487A6"/>
</linearGradient>
<linearGradient id="paint1_linear_3043_1782" x1="12.2761" y1="0" x2="12.2761" y2="24.3781" gradientUnits="userSpaceOnUse">
<stop stop-color="#9CACCC"/>
<stop offset="1" stop-color="#7487A6"/>
</linearGradient>
<linearGradient id="paint2_linear_3043_1782" x1="12.2761" y1="0" x2="12.2761" y2="24.3781" gradientUnits="userSpaceOnUse">
<stop stop-color="#9CACCC"/>
<stop offset="1" stop-color="#7487A6"/>
</linearGradient>
</defs>
</svg>
