<svg width="40" height="40" viewBox="0 0 40 40" fill="none" xmlns="http://www.w3.org/2000/svg">
<path d="M29.2935 10.4378C29.2935 9.09145 30.385 8 31.7313 8H35.5622C36.9085 8 38 9.09145 38 10.4378V29.9403C38 31.2867 36.9085 32.3781 35.5622 32.3781H31.7313C30.385 32.3781 29.2935 31.2867 29.2935 29.9403V10.4378Z" fill="#82E12F" fill-opacity="0.4"/>
<path d="M35.388 26.2836C35.388 27.2453 34.6084 28.0249 33.6468 28.0249C32.6851 28.0249 31.9055 27.2453 31.9055 26.2836C31.9055 25.3219 32.6851 24.5423 33.6468 24.5423C34.6084 24.5423 35.388 25.3219 35.388 26.2836Z" fill="white"/>
<path d="M31.9055 15.8358C31.9055 15.355 32.2953 14.9652 32.7761 14.9652H34.5174C34.9982 14.9652 35.388 15.355 35.388 15.8358C35.388 16.3167 34.9982 16.7065 34.5174 16.7065H32.7761C32.2953 16.7065 31.9055 16.3167 31.9055 15.8358Z" fill="white"/>
<path d="M31.9055 12.3532C31.9055 11.8724 32.2953 11.4826 32.7761 11.4826H34.5174C34.9982 11.4826 35.388 11.8724 35.388 12.3532C35.388 12.8341 34.9982 13.2239 34.5174 13.2239H32.7761C32.2953 13.2239 31.9055 12.8341 31.9055 12.3532Z" fill="white"/>
<path fill-rule="evenodd" clip-rule="evenodd" d="M5.43781 8C4.09145 8 3 9.09145 3 10.4378V24.7164C3 26.0628 4.09145 27.1542 5.43781 27.1542H25.1144C26.4608 27.1542 27.5522 26.0628 27.5522 24.7164V10.4378C27.5522 9.09145 26.4608 8 25.1144 8H5.43781ZM24.0697 11.4826H6.48259V23.6716H24.0697V11.4826Z" fill="url(#paint0_linear_1918_3319)"/>
<path d="M6.65672 30.2886C6.65672 29.5192 7.2804 28.8955 8.04975 28.8955H22.6766C23.446 28.8955 24.0697 29.5192 24.0697 30.2886V30.9851C24.0697 31.7544 23.446 32.3781 22.6766 32.3781H8.04975C7.2804 32.3781 6.65672 31.7544 6.65672 30.9851V30.2886Z" fill="url(#paint1_linear_1918_3319)"/>
<path d="M13.0124 27.1542H17.5398L18.1493 28.8955H12.403L13.0124 27.1542Z" fill="url(#paint2_linear_1918_3319)"/>
<path d="M6.48259 11.4826H24.0697V23.6716H6.48259V11.4826Z" fill="#82E12F" fill-opacity="0.4"/>
<defs>
<linearGradient id="paint0_linear_1918_3319" x1="3.93001" y1="13.3632" x2="27.5108" y2="15.6871" gradientUnits="userSpaceOnUse">
<stop stop-color="#82E12F"/>
<stop offset="1" stop-color="#2CB735"/>
</linearGradient>
<linearGradient id="paint1_linear_1918_3319" x1="3.93001" y1="13.3632" x2="27.5108" y2="15.6871" gradientUnits="userSpaceOnUse">
<stop stop-color="#82E12F"/>
<stop offset="1" stop-color="#2CB735"/>
</linearGradient>
<linearGradient id="paint2_linear_1918_3319" x1="3.93001" y1="13.3632" x2="27.5108" y2="15.6871" gradientUnits="userSpaceOnUse">
<stop stop-color="#82E12F"/>
<stop offset="1" stop-color="#2CB735"/>
</linearGradient>
</defs>
</svg>
