<svg width="36" height="35" viewBox="0 0 36 35" fill="none" xmlns="http://www.w3.org/2000/svg">
<path d="M4.76392 2.02144C4.76392 2.02144 28.4777 1.87041 29.4593 2.02144C34.0786 2.73211 23.8629 12.859 23.8629 12.859C23.8629 12.859 33.5456 22.8083 29.4593 23.5189C28.4966 23.6863 4.76392 23.5189 4.76392 23.5189V2.02144Z" fill="url(#paint0_linear_3043_2122)"/>
<path d="M14.3181 7.97822C14.5086 7.56522 15.0956 7.56522 15.2861 7.97822L16.3062 10.1899C16.3839 10.3582 16.5434 10.4741 16.7274 10.4959L19.1461 10.7827C19.5978 10.8362 19.7791 11.3945 19.4452 11.7033L17.657 13.3569C17.521 13.4828 17.46 13.6703 17.4962 13.8521L17.9708 16.241C18.0595 16.6871 17.5846 17.0321 17.1877 16.81L15.0624 15.6203C14.9007 15.5298 14.7035 15.5298 14.5417 15.6203L12.4165 16.81C12.0196 17.0321 11.5447 16.6871 11.6333 16.241L12.108 13.8521C12.1441 13.6703 12.0832 13.4828 11.9471 13.3569L10.1589 11.7033C9.82503 11.3945 10.0064 10.8362 10.4581 10.7827L12.8767 10.4959C13.0608 10.4741 13.2203 10.3582 13.298 10.1899L14.3181 7.97822Z" fill="white"/>
<path d="M19.8655 14.0763C19.8655 14.0763 34.1833 13.9846 34.776 14.0763C37.565 14.5081 31.397 20.6609 31.397 20.6609C31.397 20.6609 37.2432 26.7058 34.776 27.1375C34.1947 27.2393 19.8655 27.1375 19.8655 27.1375V14.0763Z" fill="#9CACCC" fill-opacity="0.4"/>
<path d="M0.5 1.95432C0.5 0.874977 1.37498 0 2.45431 0H2.80964C3.88898 0 4.76396 0.874977 4.76396 1.95431V32.1574C4.76396 33.2367 3.88898 34.1117 2.80964 34.1117H2.45431C1.37498 34.1117 0.5 33.2367 0.5 32.1574V1.95432Z" fill="#9CACCC" fill-opacity="0.4"/>
<defs>
<linearGradient id="paint0_linear_3043_2122" x1="17.7112" y1="1.95432" x2="17.7112" y2="23.5933" gradientUnits="userSpaceOnUse">
<stop stop-color="#9CACCC"/>
<stop offset="1" stop-color="#7487A6"/>
</linearGradient>
</defs>
</svg>
