<svg width="24" height="24" viewBox="0 0 24 24" fill="none" xmlns="http://www.w3.org/2000/svg">
<path d="M24 12C24 18.6274 18.6274 24 12 24C5.37258 24 0 18.6274 0 12C0 5.37258 5.37258 0 12 0C18.6274 0 24 5.37258 24 12Z" fill="#9CACCC" fill-opacity="0.4"/>
<path d="M6.50562 12.8832C5.98637 12.3889 5.96612 11.5672 6.4604 11.048C6.95468 10.5287 7.77632 10.5085 8.29557 11.0028L12.6057 15.1055L11.7107 16.0457C11.2164 16.565 10.3948 16.5852 9.87552 16.0909L6.50562 12.8832Z" fill="white"/>
<path d="M10.7084 13.3129L15.4947 8.24131C15.9903 7.71612 16.8179 7.69217 17.3431 8.18782C17.8683 8.68347 17.8922 9.51102 17.3966 10.0362L12.6103 15.1078L10.7084 13.3129Z" fill="white"/>
</svg>
