<svg width="13" height="13" viewBox="0 0 13 13" fill="none" xmlns="http://www.w3.org/2000/svg">
<path d="M11.3514 6.5C11.3514 7.79293 10.8378 9.03291 9.92359 9.94715C9.00935 10.8614 7.76937 11.375 6.47644 11.375C5.18351 11.375 3.94353 10.8614 3.02929 9.94715C2.11506 9.03291 1.60144 7.79293 1.60144 6.5C1.60144 5.20707 2.11506 3.96709 3.02929 3.05285C3.94353 2.13861 5.18351 1.625 6.47644 1.625C7.76937 1.625 9.00935 2.13861 9.92359 3.05285C10.8378 3.96709 11.3514 5.20707 11.3514 6.5ZM0.47644 6.5C0.47644 8.0913 1.10858 9.61742 2.2338 10.7426C3.35902 11.8679 4.88514 12.5 6.47644 12.5C8.06774 12.5 9.59386 11.8679 10.7191 10.7426C11.8443 9.61742 12.4764 8.0913 12.4764 6.5C12.4764 4.9087 11.8443 3.38258 10.7191 2.25736C9.59386 1.13214 8.06774 0.5 6.47644 0.5C4.88514 0.5 3.35902 1.13214 2.2338 2.25736C1.10858 3.38258 0.47644 4.9087 0.47644 6.5ZM5.91394 3.3125V6.5C5.91394 6.6875 6.00769 6.86328 6.16472 6.96875L8.41472 8.46875C8.67253 8.64219 9.02175 8.57187 9.19519 8.31172C9.36863 8.05156 9.29832 7.70469 9.03816 7.53125L7.03894 6.2V3.3125C7.03894 3.00078 6.78816 2.75 6.47644 2.75C6.16472 2.75 5.91394 3.00078 5.91394 3.3125Z" fill="#C7CCD5"/>
</svg>
