<svg width="14" height="14" viewBox="0 0 14 14" fill="none" xmlns="http://www.w3.org/2000/svg">
<path d="M3.38241 11.2245C3.73505 10.9308 4.19158 10.8559 4.60163 11.0246C5.32606 11.3245 6.13796 11.4963 7.0018 11.4963C10.4107 11.4963 12.6879 8.98127 12.6879 6.49745C12.6879 4.01363 10.4107 1.49857 7.0018 1.49857C3.5929 1.49857 1.31574 4.01363 1.31574 6.49745C1.31574 7.49723 1.65472 8.45951 2.29167 9.28433C2.52676 9.58739 2.64158 9.9873 2.61424 10.3935C2.57597 10.959 2.45842 11.4776 2.30534 11.9369C2.77006 11.69 3.15551 11.4151 3.38241 11.2276V11.2245ZM0.583116 12.493C0.632322 12.4086 0.678795 12.3243 0.722533 12.2399C0.995902 11.7213 1.2556 11.0402 1.30754 10.2747C0.487437 9.20935 0.00357488 7.90651 0.00357488 6.49745C0.00357488 2.90763 3.13638 -0.00109863 7.0018 -0.00109863C10.8672 -0.00109863 14 2.90763 14 6.49745C14 10.0873 10.8672 12.996 7.0018 12.996C5.98761 12.996 5.02535 12.796 4.15604 12.4368C3.83073 12.7086 3.3004 13.0804 2.67165 13.3928C2.25886 13.599 1.78867 13.7864 1.30207 13.8958C1.2802 13.902 1.25834 13.9052 1.23647 13.9114C1.11618 13.9364 0.998635 13.9583 0.87562 13.9708C0.870152 13.9708 0.861951 13.9739 0.856484 13.9739C0.717066 13.9895 0.577648 13.9989 0.43823 13.9989C0.260541 13.9989 0.101987 13.8771 0.0336454 13.6896C-0.0346967 13.5021 0.00357487 13.2897 0.126591 13.146C0.238672 13.0147 0.339818 12.8742 0.435497 12.7242C0.481969 12.6523 0.525708 12.5805 0.566714 12.5086C0.569447 12.5024 0.572181 12.4992 0.574915 12.493H0.583116Z" fill="#344767"/>
</svg>
