<svg width="34" height="28" viewBox="0 0 34 28" fill="none" xmlns="http://www.w3.org/2000/svg">
<path d="M0 7.56C0 6.16825 1.12824 5.04 2.52 5.04H24.5C25.8918 5.04 27.02 6.16825 27.02 7.56V15.12H0V7.56Z" fill="url(#paint0_linear_3043_2140)"/>
<path fill-rule="evenodd" clip-rule="evenodd" d="M6.72 2.52C6.72 1.12824 7.84825 0 9.24 0H17.64C19.0318 0 20.16 1.12824 20.16 2.52L20.1782 5.04H6.72V2.52ZM9.24 2.52V5.04H17.64V2.52H9.24Z" fill="url(#paint1_linear_3043_2140)"/>
<path d="M0 15.12H27.02V22.68C27.02 24.0718 25.8918 25.2 24.5 25.2H2.52C1.12824 25.2 0 24.0718 0 22.68V15.12Z" fill="#9CACCC" fill-opacity="0.4"/>
<g filter="url(#filter0_i_3043_2140)">
<circle cx="25.41" cy="19.91" r="7.91" fill="#9CACCC" fill-opacity="0.4"/>
</g>
<path d="M26.8268 20.6374C28.2038 20.6374 29.3201 19.5197 29.3201 18.1409C29.3201 18.1409 29.3201 17.6624 29.2577 17.496C29.1954 17.3296 29.0826 17.268 28.9876 17.3088C28.8422 17.3712 28.5098 17.7248 28.5098 17.7248L27.6163 18.6194H26.3281C26.3281 18.6194 26.3697 17.9537 26.3697 17.3712C26.3697 17.077 28.6344 15.8525 27.2008 15.6444C25.7672 15.4364 24.3959 16.5806 24.3335 18.1409C24.2712 19.7012 25.4498 20.6374 26.8268 20.6374Z" fill="white"/>
<path d="M24.4278 18.9694C24.7691 20.1137 25.7456 20.4465 26.0573 20.5345L23.2442 23.2956C22.7982 23.7339 22.0819 23.7272 21.6441 23.2807C21.2063 22.8342 21.213 22.1169 21.6589 21.6785L24.4278 18.9694Z" fill="white"/>
<path d="M22.9622 22.3849C22.9622 22.5918 22.7948 22.7594 22.5882 22.7594C22.3817 22.7594 22.2142 22.5918 22.2142 22.3849C22.2142 22.1781 22.3817 22.0105 22.5882 22.0105C22.7948 22.0105 22.9622 22.1781 22.9622 22.3849Z" fill="white"/>
<path d="M9.94006 15.12H17.0801V16.6863C17.0801 17.213 16.6531 17.64 16.1264 17.64H10.8937C10.367 17.64 9.94006 17.213 9.94006 16.6863V15.12Z" fill="white"/>
<defs>
<filter id="filter0_i_3043_2140" x="17.5" y="12" width="16.0201" height="15.92" filterUnits="userSpaceOnUse" color-interpolation-filters="sRGB">
<feFlood flood-opacity="0" result="BackgroundImageFix"/>
<feBlend mode="normal" in="SourceGraphic" in2="BackgroundImageFix" result="shape"/>
<feColorMatrix in="SourceAlpha" type="matrix" values="0 0 0 0 0 0 0 0 0 0 0 0 0 0 0 0 0 0 127 0" result="hardAlpha"/>
<feOffset dx="0.2" dy="0.1"/>
<feGaussianBlur stdDeviation="0.5"/>
<feComposite in2="hardAlpha" operator="arithmetic" k2="-1" k3="1"/>
<feColorMatrix type="matrix" values="0 0 0 0 1 0 0 0 0 1 0 0 0 0 1 0 0 0 0.6 0"/>
<feBlend mode="normal" in2="shape" result="effect1_innerShadow_3043_2140"/>
</filter>
<linearGradient id="paint0_linear_3043_2140" x1="13.51" y1="0" x2="13.51" y2="15.12" gradientUnits="userSpaceOnUse">
<stop stop-color="#9CACCC"/>
<stop offset="1" stop-color="#7487A6"/>
</linearGradient>
<linearGradient id="paint1_linear_3043_2140" x1="13.51" y1="0" x2="13.51" y2="15.12" gradientUnits="userSpaceOnUse">
<stop stop-color="#9CACCC"/>
<stop offset="1" stop-color="#7487A6"/>
</linearGradient>
</defs>
</svg>
