<svg width="36" height="32" viewBox="0 0 36 32" fill="none" xmlns="http://www.w3.org/2000/svg">
<path d="M14.1111 1.78241C14.1111 0.798011 14.9091 0 15.8935 0H20.1065C21.0909 0 21.8889 0.798011 21.8889 1.78241V7.93982H14.1111V1.78241Z" fill="url(#paint0_linear_106_258)"/>
<path d="M0.5 6.80556C0.5 5.28422 1.73329 4.05093 3.25463 4.05093H32.7454C34.2667 4.05093 35.5 5.28422 35.5 6.80556V28.5185C35.5 30.0399 34.2667 31.2732 32.7454 31.2732H3.25463C1.73329 31.2732 0.5 30.0399 0.5 28.5185V6.80556Z" fill="#9CACCC" fill-opacity="0.4"/>
<path d="M12.1667 8.91204C12.1667 8.3751 12.6019 7.93982 13.1389 7.93982H22.8611C23.3981 7.93982 23.8333 8.3751 23.8333 8.91204C23.8333 9.44899 23.3981 9.88427 22.8611 9.88427H13.1389C12.6019 9.88427 12.1667 9.44899 12.1667 8.91204Z" fill="white"/>
<path d="M22.0509 17.581C22.0509 19.7735 20.2736 21.5509 18.081 21.5509C15.8885 21.5509 14.1111 19.7735 14.1111 17.581C14.1111 15.3885 15.8885 13.6111 18.081 13.6111C20.2736 13.6111 22.0509 15.3885 22.0509 17.581Z" fill="url(#paint1_linear_106_258)"/>
<path d="M11.1945 26.4494C11.1945 24.7285 12.5896 23.3333 14.3106 23.3333H21.8515C23.5725 23.3333 24.9676 24.7285 24.9676 26.4494C24.9676 26.9657 24.5491 27.3843 24.0328 27.3843H12.1293C11.613 27.3843 11.1945 26.9657 11.1945 26.4494Z" fill="url(#paint2_linear_106_258)"/>
<defs>
<linearGradient id="paint0_linear_106_258" x1="18" y1="0" x2="18" y2="7.93982" gradientUnits="userSpaceOnUse">
<stop stop-color="#9CACCC"/>
<stop offset="1" stop-color="#7487A6"/>
</linearGradient>
<linearGradient id="paint1_linear_106_258" x1="18.081" y1="13.6111" x2="18.081" y2="27.3843" gradientUnits="userSpaceOnUse">
<stop stop-color="#9CACCC"/>
<stop offset="1" stop-color="#7487A6"/>
</linearGradient>
<linearGradient id="paint2_linear_106_258" x1="18.081" y1="13.6111" x2="18.081" y2="27.3843" gradientUnits="userSpaceOnUse">
<stop stop-color="#9CACCC"/>
<stop offset="1" stop-color="#7487A6"/>
</linearGradient>
</defs>
</svg>
