<svg width="27" height="36" viewBox="0 0 27 36" fill="none" xmlns="http://www.w3.org/2000/svg">
<path d="M13.1415 7.57253C13.9924 7.57253 14.6822 6.8824 14.6822 6.03108C14.6822 5.55822 14.4694 5.13509 14.1344 4.85233H21.7515C24.2542 4.85233 26.283 6.88212 26.283 9.386V30.9663C26.283 33.4702 24.2542 35.5 21.7515 35.5H4.53155C2.02884 35.5 0 33.4702 0 30.9663V9.386C0 6.88212 2.02884 4.85233 4.53155 4.85233H12.1486C11.8136 5.13509 11.6008 5.55822 11.6008 6.03108C11.6008 6.8824 12.2906 7.57253 13.1415 7.57253Z" fill="#E92FED" fill-opacity="0.4"/>
<path fill-rule="evenodd" clip-rule="evenodd" d="M20.6639 10.1114V7.75389C20.6639 6.25156 19.4466 5.03368 17.945 5.03368C17.945 2.5298 16.3136 0.772021 13.7759 0.5H12.3258C9.96942 0.772021 8.1568 2.5298 8.1568 5.03368C6.65517 5.03368 5.43787 6.25156 5.43787 7.75389V10.1114C5.43787 10.9126 6.0871 11.5622 6.88796 11.5622H19.2138C20.0147 11.5622 20.6639 10.9126 20.6639 10.1114ZM13.1415 7.57254C13.9924 7.57254 14.6822 6.88241 14.6822 6.03109C14.6822 5.17977 13.9924 4.48964 13.1415 4.48964C12.2906 4.48964 11.6008 5.17977 11.6008 6.03109C11.6008 6.88241 12.2906 7.57254 13.1415 7.57254Z" fill="url(#paint0_linear_105_155)"/>
<path d="M21.8235 23.6618C21.8235 28.3805 17.9982 32.2059 13.2794 32.2059C8.56062 32.2059 4.73529 28.3805 4.73529 23.6618C4.73529 18.943 8.56062 15.1176 13.2794 15.1176C17.9982 15.1176 21.8235 18.943 21.8235 23.6618Z" fill="#E92FED" fill-opacity="0.4"/>
<path d="M12.7626 18.8609C12.963 18.4811 13.5068 18.4811 13.7072 18.8609L14.8398 21.0075C14.917 21.1539 15.0579 21.2562 15.221 21.2845L17.6126 21.6983C18.0357 21.7715 18.2037 22.2887 17.9045 22.5966L16.2129 24.3371C16.0975 24.4559 16.0437 24.6214 16.0673 24.7853L16.4127 27.1877C16.4739 27.6127 16.0339 27.9323 15.6485 27.7429L13.4705 26.6719C13.3219 26.5989 13.1479 26.5989 12.9993 26.6719L10.8213 27.7429C10.436 27.9323 9.99595 27.6127 10.0571 27.1877L10.4025 24.7853C10.4261 24.6214 10.3723 24.4559 10.2569 24.3371L8.56535 22.5966C8.2661 22.2887 8.43417 21.7715 8.85725 21.6983L11.2488 21.2845C11.4119 21.2562 11.5528 21.1539 11.63 21.0075L12.7626 18.8609Z" fill="white"/>
<defs>
<linearGradient id="paint0_linear_105_155" x1="13.0509" y1="0.5" x2="13.0509" y2="11.5622" gradientUnits="userSpaceOnUse">
<stop stop-color="#E92FED"/>
<stop offset="1" stop-color="#7C15CD"/>
</linearGradient>
</defs>
</svg>
