<svg width="31" height="35" viewBox="0 0 31 35" fill="none" xmlns="http://www.w3.org/2000/svg">
<g clip-path="url(#clip0_3046_2771)">
<path d="M24.8965 5.72852C23.2285 4.06055 20.5215 4.06055 18.8535 5.72852L6.27539 18.3066C3.39746 21.1846 3.39746 25.8467 6.27539 28.7246C9.15332 31.6025 13.8154 31.6025 16.6934 28.7246L27.084 18.334C27.8291 17.5889 29.0459 17.5889 29.791 18.334C30.5361 19.0791 30.5361 20.2959 29.791 21.041L19.4004 31.4316C15.0254 35.8066 7.94336 35.8066 3.56836 31.4316C-0.806641 27.0566 -0.806641 19.9746 3.56836 15.5996L16.1465 3.02148C19.3115 -0.143555 24.4385 -0.143555 27.6035 3.02148C30.7686 6.18652 30.7686 11.3135 27.6035 14.4785L15.5723 26.5098C13.6172 28.4648 10.4453 28.4648 8.49023 26.5098C6.53516 24.5547 6.53516 21.3828 8.49023 19.4277L18.334 9.58398C19.0791 8.83887 20.2959 8.83887 21.041 9.58398C21.7861 10.3291 21.7861 11.5459 21.041 12.291L11.1973 22.1348C10.7393 22.5928 10.7393 23.3447 11.1973 23.8027C11.6553 24.2607 12.4072 24.2607 12.8652 23.8027L24.8965 11.7715C26.5645 10.1035 26.5645 7.39648 24.8965 5.72852Z" fill="url(#paint0_linear_3046_2771)"/>
</g>
<defs>
<linearGradient id="paint0_linear_3046_2771" x1="15.3185" y1="0.647705" x2="15.3185" y2="34.7129" gradientUnits="userSpaceOnUse">
<stop stop-color="#9CACCC"/>
<stop offset="1" stop-color="#7487A6"/>
</linearGradient>
<clipPath id="clip0_3046_2771">
<rect width="30.625" height="35" fill="white"/>
</clipPath>
</defs>
</svg>
