<svg width="31" height="36" viewBox="0 0 31 36" fill="none" xmlns="http://www.w3.org/2000/svg">
<path d="M0 3.59896C0 1.88745 1.38745 0.5 3.09896 0.5H23.3333C25.0448 0.5 26.4323 1.88745 26.4323 3.59896V32.401C26.4323 34.1125 25.0448 35.5 23.3333 35.5H3.09896C1.38745 35.5 0 34.1125 0 32.401V3.59896Z" fill="#9CACCC" fill-opacity="0.4"/>
<path d="M19 18.3281C19 17.5946 19.6299 17 20.4069 17H29.5931C30.3701 17 31 17.5946 31 18.3281V30.6719C31 31.4054 30.3701 32 29.5931 32H20.4069C19.6299 32 19 31.4054 19 30.6719V18.3281Z" fill="#9CACCC" fill-opacity="0.4"/>
<path d="M17.6823 16.3125C17.6823 18.8294 15.6419 20.8698 13.125 20.8698C10.6081 20.8698 8.56771 18.8294 8.56771 16.3125C8.56771 13.7956 10.6081 11.7552 13.125 11.7552C15.6419 11.7552 17.6823 13.7956 17.6823 16.3125Z" fill="url(#paint0_linear_3043_2032)"/>
<path d="M5.46875 28.1615C5.46875 25.1412 7.91719 22.6927 10.9375 22.6927H15.4948C18.5151 22.6927 20.9635 25.1412 20.9635 28.1615V28.5261C20.9635 29.0294 20.5555 29.4375 20.0521 29.4375H6.38021C5.87682 29.4375 5.46875 29.0294 5.46875 28.5261V28.1615Z" fill="url(#paint1_linear_3043_2032)"/>
<path d="M8.75 6.46875C8.75 5.86469 9.23969 5.375 9.84375 5.375H16.5885C17.1926 5.375 17.6823 5.86469 17.6823 6.46875C17.6823 7.07281 17.1926 7.5625 16.5885 7.5625H9.84375C9.23969 7.5625 8.75 7.07281 8.75 6.46875Z" fill="white"/>
<defs>
<linearGradient id="paint0_linear_3043_2032" x1="13.2161" y1="11.7552" x2="13.2161" y2="29.4375" gradientUnits="userSpaceOnUse">
<stop stop-color="#9CACCC"/>
<stop offset="1" stop-color="#7487A6"/>
</linearGradient>
<linearGradient id="paint1_linear_3043_2032" x1="13.2161" y1="11.7552" x2="13.2161" y2="29.4375" gradientUnits="userSpaceOnUse">
<stop stop-color="#9CACCC"/>
<stop offset="1" stop-color="#7487A6"/>
</linearGradient>
</defs>
</svg>
