<svg width="200" height="190" viewBox="0 0 200 190" fill="none" xmlns="http://www.w3.org/2000/svg">
<g filter="url(#filter0_f_142_122)">
<ellipse cx="99.4662" cy="152.377" rx="77.5472" ry="14.9599" fill="#1F88F8" fill-opacity="0.35"/>
</g>
<path d="M102.337 170.651C146.75 170.651 182.754 134.647 182.754 90.2332C182.754 45.8197 146.75 9.81549 102.337 9.81549C57.9232 9.81549 21.919 45.8197 21.919 90.2332C21.919 134.647 57.9232 170.651 102.337 170.651Z" fill="url(#paint0_linear_142_122)"/>
<path d="M164.547 42.3228H62.4028V92.73H164.547V42.3228Z" fill="url(#paint1_linear_142_122)"/>
<path d="M164.547 42.3228H174.799C181.483 42.3228 187.893 44.9779 192.619 49.7039C197.345 54.4299 200 60.8398 200 67.5234C200 74.2071 197.345 80.6169 192.619 85.343C187.893 90.069 181.483 92.7241 174.799 92.7241H164.547V42.3228Z" fill="url(#paint2_linear_142_122)"/>
<path d="M171.178 49.7377H177.043C181.554 49.7377 185.88 51.5296 189.07 54.7193C192.26 57.9089 194.052 62.235 194.052 66.7459V68.3072C194.052 72.818 192.26 77.1441 189.07 80.3338C185.88 83.5234 181.554 85.3154 177.043 85.3154H171.178V49.7377Z" fill="url(#paint3_linear_142_122)"/>
<path d="M164.547 50.7825H70.9811V92.7301H164.547V50.7825Z" fill="url(#paint4_linear_142_122)"/>
<rect x="37.9982" y="101.121" width="37.935" height="48.5834" fill="url(#paint5_linear_142_122)"/>
<rect x="84.5852" y="101.121" width="37.935" height="48.5834" fill="url(#paint6_linear_142_122)"/>
<rect x="131.173" y="101.121" width="24.6245" height="48.5834" fill="url(#paint7_linear_142_122)"/>
<path d="M164.547 42.3228H155.826V92.73H164.547V42.3228Z" fill="url(#paint8_linear_142_122)"/>
<path d="M84.5852 92.4698L75.9333 92.4698L75.9333 158.357L84.5852 158.357L84.5852 92.4698Z" fill="url(#paint9_linear_142_122)"/>
<path fill-rule="evenodd" clip-rule="evenodd" d="M126.513 101.122V92.4698H38.369V101.122H126.513ZM126.513 158.357V149.705H38.369V158.357H126.513ZM34.0926 92.4698H38.369L38.369 158.357H34.0926C31.4713 158.357 29.3463 156.232 29.3463 153.611L29.3463 97.216C29.3463 94.5947 31.4713 92.4698 34.0926 92.4698Z" fill="url(#paint10_linear_142_122)"/>
<path fill-rule="evenodd" clip-rule="evenodd" d="M131.172 92.4698H155.796L164.448 92.4698L164.448 153.611C164.448 156.232 162.323 158.357 159.702 158.357H155.796L155.796 158.357H131.172V158.357H122.52L122.52 97.216C122.52 94.5947 124.645 92.4698 127.267 92.4698L131.172 92.4698ZM155.796 149.705V101.122H131.172L131.172 149.705H155.796Z" fill="url(#paint11_linear_142_122)"/>
<path d="M69.2478 92.8369V92.9319V95.9299V117.77H92.7987C93.3229 117.77 93.7479 117.345 93.7479 116.821V95.9299V93.7862C93.7479 93.2619 93.3229 92.8369 92.7987 92.8369H69.2478Z" fill="url(#paint12_linear_142_122)"/>
<path d="M68.0896 92.8369C67.5654 92.8369 67.1404 93.2619 67.1404 93.7862V116.821C67.1404 117.345 67.5654 117.77 68.0896 117.77H91.6405V92.8369H68.0896Z" fill="url(#paint13_linear_142_122)"/>
<path d="M86.9872 95.2234H71.7991C70.7506 95.2234 69.9006 96.0733 69.9006 97.1219V113.284C69.9006 114.332 70.7506 115.182 71.7991 115.182H86.9872C88.0357 115.182 88.8857 114.332 88.8857 113.283V97.1219C88.8857 96.0733 88.0357 95.2234 86.9872 95.2234Z" fill="url(#paint14_linear_142_122)"/>
<g filter="url(#filter1_d_142_122)">
<path d="M24.0223 75.9631L33.2358 98.6228C33.3616 98.9335 33.5475 99.2162 33.7829 99.4548C34.0182 99.6935 34.2983 99.8833 34.6072 100.013C34.916 100.144 35.2475 100.212 35.5827 100.213C35.9178 100.215 36.25 100.151 36.5603 100.024L57.2075 91.6355C57.8354 91.38 58.3362 90.8858 58.5999 90.2614C58.8637 89.637 58.869 88.9334 58.6145 88.3051L47.9643 62.1131C47.7089 61.4868 47.2153 60.9874 46.592 60.7247C45.9687 60.4621 45.2666 60.4575 44.6399 60.7121L27.4833 67.6875L24.0223 75.9631Z" fill="url(#paint15_linear_142_122)"/>
</g>
<g filter="url(#filter2_d_142_122)">
<path d="M169.945 62.6525L160.731 85.3122C160.606 85.6229 160.42 85.9056 160.184 86.1442C159.949 86.3829 159.669 86.5727 159.36 86.7029C159.051 86.833 158.72 86.901 158.385 86.9027C158.049 86.9045 157.717 86.8401 157.407 86.7133L136.76 78.3249C136.132 78.0694 135.631 77.5752 135.367 76.9508C135.104 76.3264 135.098 75.6228 135.353 74.9945L146.003 48.8025C146.258 48.1762 146.752 47.6768 147.375 47.4142C147.999 47.1515 148.701 47.1469 149.327 47.4015L166.484 54.3769L169.945 62.6525Z" fill="url(#paint16_linear_142_122)"/>
</g>
<path d="M24.0223 75.963L29.8816 73.5824L27.4892 67.6874L24.0223 75.963Z" fill="url(#paint17_linear_142_122)"/>
<path d="M169.945 62.6524L164.086 60.2718L166.478 54.3769L169.945 62.6524Z" fill="url(#paint18_linear_142_122)"/>
<path d="M81.8926 106.04C82.648 105.509 83.2146 104.751 83.5102 103.876C83.8058 103.001 83.815 102.055 83.5364 101.174C83.2579 100.294 82.7061 99.5248 81.9612 98.9791C81.2162 98.4334 80.3167 98.1392 79.3933 98.1392C78.4698 98.1392 77.5704 98.4334 76.8254 98.9791C76.0804 99.5248 75.5286 100.294 75.2501 101.174C74.9716 102.055 74.9808 103.001 75.2763 103.876C75.5719 104.751 76.1385 105.509 76.894 106.04L75.0299 112.457H83.7507L81.8926 106.04Z" fill="url(#paint19_linear_142_122)"/>
<path d="M135.607 38.6957C135.606 39.6295 135.466 40.558 135.191 41.4502C134.745 42.8809 133.956 44.181 132.894 45.2378C132.582 45.5535 132.246 45.8452 131.89 46.1104C131.656 46.2928 131.41 46.4594 131.154 46.6091C130.899 46.7656 130.635 46.9083 130.365 47.0365C129.961 47.2358 129.542 47.4025 129.112 47.5352C128.22 47.8106 127.291 47.9506 126.357 47.9508H124.636V92.5639H76.5499V37.728C76.5577 35.5341 77.4327 33.4322 78.9841 31.8808C80.5355 30.3294 82.6374 29.4544 84.8313 29.4466H126.334C127.49 29.4421 128.636 29.6577 129.712 30.0818C130.01 30.1974 130.301 30.3302 130.584 30.4795C130.727 30.5508 130.863 30.6279 131 30.711C131.112 30.7726 131.221 30.84 131.326 30.9129C131.887 31.2676 132.407 31.6838 132.876 32.1536C133.505 32.7844 134.041 33.5021 134.467 34.2848C134.755 34.8124 134.989 35.3672 135.167 35.9411L135.292 36.3864C135.369 36.6838 135.43 36.985 135.476 37.2887C135.556 37.7536 135.599 38.224 135.607 38.6957Z" fill="url(#paint20_linear_142_122)"/>
<path d="M135.607 38.6956C135.607 39.6294 135.466 40.5579 135.191 41.4502C135.009 42.0226 134.775 42.5771 134.491 43.1065C134.061 43.8881 133.523 44.6055 132.894 45.2377C132.582 45.5534 132.246 45.8452 131.89 46.1104C131.653 46.2884 131.41 46.4487 131.154 46.609C130.899 46.7656 130.635 46.9082 130.365 47.0365C129.96 47.2332 129.541 47.3999 129.112 47.5351C128.22 47.8105 127.291 47.9506 126.358 47.9507H124.636V37.728C124.64 36.0932 125.126 34.4959 126.033 33.1358C126.94 31.7758 128.228 30.7134 129.735 30.0817C130.032 30.2004 130.329 30.331 130.608 30.4794C130.751 30.5507 130.887 30.6279 131.024 30.711C131.136 30.7726 131.245 30.84 131.35 30.9128C131.911 31.2676 132.431 31.6837 132.9 32.1535C133.529 32.7843 134.065 33.502 134.491 34.2848C134.776 34.8135 135.01 35.368 135.191 35.9411L135.316 36.3863C135.393 36.6836 135.454 36.9848 135.5 37.2887C135.572 37.7542 135.607 38.2246 135.607 38.6956Z" fill="url(#paint21_linear_142_122)"/>
<path d="M115.036 76.3214H84.6708C84.1626 76.3214 83.7506 76.732 83.7506 77.2386C83.7506 77.7451 84.1626 78.1558 84.6708 78.1558H115.036C115.544 78.1558 115.956 77.7451 115.956 77.2386C115.956 76.732 115.544 76.3214 115.036 76.3214Z" fill="#A5C4F1"/>
<path d="M115.036 66.9121H84.6708C84.1626 66.9121 83.7506 67.3227 83.7506 67.8293C83.7506 68.3358 84.1626 68.7464 84.6708 68.7464H115.036C115.544 68.7464 115.956 68.3358 115.956 67.8293C115.956 67.3227 115.544 66.9121 115.036 66.9121Z" fill="#A5C4F1"/>
<path d="M115.036 57.4966H95.4811C94.9729 57.4966 94.5609 57.9072 94.5609 58.4138C94.5609 58.9203 94.9729 59.331 95.4811 59.331H115.036C115.544 59.331 115.956 58.9203 115.956 58.4138C115.956 57.9072 115.544 57.4966 115.036 57.4966Z" fill="#A5C4F1"/>
<path d="M102.207 48.0813H84.4571C84.0669 48.0813 83.7506 48.3976 83.7506 48.7877V49.2092C83.7506 49.5994 84.0669 49.9157 84.4571 49.9157H102.207C102.597 49.9157 102.914 49.5994 102.914 49.2092V48.7877C102.914 48.3976 102.597 48.0813 102.207 48.0813Z" fill="#A5C4F1"/>
<path d="M91.201 57.4966H84.6708C84.1626 57.4966 83.7506 57.9072 83.7506 58.4138C83.7506 58.9203 84.1626 59.331 84.6708 59.331H91.201C91.7092 59.331 92.1211 58.9203 92.1211 58.4138C92.1211 57.9072 91.7092 57.4966 91.201 57.4966Z" fill="#A5C4F1"/>
<path d="M38.331 101.121H41.3259V149.705H38.331V101.121Z" fill="url(#paint22_linear_142_122)"/>
<path d="M84.5852 117.76H87.2473V149.705H84.5852V117.76Z" fill="url(#paint23_linear_142_122)"/>
<path d="M131.173 101.121H134.167V149.705H131.173V101.121Z" fill="url(#paint24_linear_142_122)"/>
<g filter="url(#filter3_f_142_122)">
<ellipse cx="49.6678" cy="60.1251" rx="25.6455" ry="8.24321" fill="#FF4C77" fill-opacity="0.3"/>
</g>
<path d="M25.6194 48.1129C26.114 51.8054 27.5358 55.3126 29.7522 58.3071C31.9686 61.3016 34.9074 63.6859 38.2943 65.2377C41.6813 66.7894 45.4062 67.458 49.1214 67.181C52.8366 66.9041 56.4211 65.6906 59.5406 63.6539L68.0397 66.5432C68.2961 66.6277 68.5713 66.637 68.8328 66.57C69.0943 66.503 69.3312 66.3626 69.5154 66.1652C69.6995 65.9679 69.8234 65.7219 69.8722 65.4564C69.921 65.1909 69.8927 64.917 69.7908 64.667L66.3824 56.5369C68.1952 53.517 69.2581 50.1069 69.4824 46.5918C69.7067 43.0768 69.0857 39.5592 67.6714 36.3334C66.2571 33.1077 64.0907 30.2676 61.3535 28.051C58.6163 25.8344 55.3879 24.3057 51.9386 23.5928C48.4893 22.88 44.9195 23.0038 41.5278 23.9539C38.1362 24.9039 35.0215 26.6526 32.4444 29.0535C29.8673 31.4544 27.9029 34.4377 26.7154 37.7537C25.528 41.0697 25.1522 44.6218 25.6194 48.1129Z" fill="url(#paint25_linear_142_122)"/>
<path d="M46.8983 56.4707C49.2929 56.4707 50.9986 54.8306 50.9986 52.5344C50.9986 50.2383 49.2929 48.5982 46.8983 48.5982C44.5366 48.5982 42.7981 50.2383 42.7981 52.5344C42.7981 54.8306 44.5366 56.4707 46.8983 56.4707ZM50.1785 47.9422C50.1785 45.7773 51.425 44.99 53.1307 44.2028C55.394 43.1531 57.0669 41.021 57.0669 38.3969C57.0669 34.2638 52.9995 31.3773 47.4888 31.3773C41.5844 31.3773 37.4186 34.6903 37.0578 39.3153L44.6022 40.693C44.799 38.8889 45.7503 37.6096 47.0952 37.6096C48.112 37.6096 48.8665 38.2985 48.8665 39.2497C48.8665 40.365 47.7512 41.0538 46.8655 41.5786C44.5038 43.1203 43.6182 44.826 43.6182 47.9422H50.1785Z" fill="white"/>
<path d="M156.763 32.3185C156.763 33.9576 155.434 35.2864 153.795 35.2864C152.156 35.2864 150.827 33.9576 150.827 32.3185C150.827 30.6794 152.156 29.3507 153.795 29.3507C155.434 29.3507 156.763 30.6794 156.763 32.3185Z" stroke="url(#paint26_linear_142_122)" stroke-width="2.61276"/>
<circle cx="134.164" cy="166.23" r="2.96788" stroke="url(#paint27_linear_142_122)" stroke-width="2.61276"/>
<path d="M20.3492 123.002C21.6732 122.79 22.7303 124.09 22.2519 125.343L20.6314 129.586C20.153 130.839 18.498 131.104 17.6524 130.063L14.7879 126.538C13.9423 125.498 14.5403 123.932 15.8642 123.72L20.3492 123.002Z" fill="url(#paint28_linear_142_122)"/>
<path d="M176.37 118.664C176.039 117.365 177.238 116.194 178.529 116.557L182.902 117.786C184.193 118.149 184.607 119.773 183.647 120.709L180.397 123.882C179.437 124.818 177.823 124.365 177.492 123.066L176.37 118.664Z" fill="url(#paint29_linear_142_122)"/>
<path d="M94.1358 8.41712C94.6507 6.28414 97.6846 6.28414 98.1995 8.41712L98.7176 10.5633C98.9016 11.3255 99.4967 11.9207 100.259 12.1047L102.405 12.6227C104.538 13.1376 104.538 16.1715 102.405 16.6864L100.259 17.2045C99.4967 17.3885 98.9016 17.9836 98.7176 18.7459L98.1995 20.8921C97.6846 23.025 94.6507 23.025 94.1358 20.8921L93.6177 18.7459C93.4337 17.9836 92.8386 17.3885 92.0764 17.2045L89.9302 16.6864C87.7972 16.1715 87.7972 13.1376 89.9302 12.6227L92.0764 12.1047C92.8386 11.9207 93.4337 11.3255 93.6177 10.5633L94.1358 8.41712Z" fill="url(#paint30_linear_142_122)"/>
<path d="M56.9772 164.063C57.4921 161.93 60.526 161.93 61.0409 164.063L61.5589 166.209C61.7429 166.971 62.3381 167.566 63.1003 167.75L65.2465 168.268C67.3795 168.783 67.3795 171.817 65.2465 172.332L63.1003 172.85C62.3381 173.034 61.7429 173.629 61.5589 174.392L61.0409 176.538C60.526 178.671 57.4921 178.671 56.9772 176.538L56.4591 174.392C56.2751 173.629 55.68 173.034 54.9177 172.85L52.7715 172.332C50.6386 171.817 50.6386 168.783 52.7715 168.268L54.9177 167.75C55.68 167.566 56.2751 166.971 56.4591 166.209L56.9772 164.063Z" fill="url(#paint31_linear_142_122)"/>
<defs>
<filter id="filter0_f_142_122" x="0.146011" y="115.644" width="198.64" height="73.4658" filterUnits="userSpaceOnUse" color-interpolation-filters="sRGB">
<feFlood flood-opacity="0" result="BackgroundImageFix"/>
<feBlend mode="normal" in="SourceGraphic" in2="BackgroundImageFix" result="shape"/>
<feGaussianBlur stdDeviation="10.8865" result="effect1_foregroundBlur_142_122"/>
</filter>
<filter id="filter1_d_142_122" x="21.1745" y="60.5244" width="53.7644" height="59.6233" filterUnits="userSpaceOnUse" color-interpolation-filters="sRGB">
<feFlood flood-opacity="0" result="BackgroundImageFix"/>
<feColorMatrix in="SourceAlpha" type="matrix" values="0 0 0 0 0 0 0 0 0 0 0 0 0 0 0 0 0 0 127 0" result="hardAlpha"/>
<feOffset dx="6.64476" dy="10.4418"/>
<feGaussianBlur stdDeviation="4.74626"/>
<feComposite in2="hardAlpha" operator="out"/>
<feColorMatrix type="matrix" values="0 0 0 0 0.184314 0 0 0 0 0.254902 0 0 0 0 0.443137 0 0 0 0.15 0"/>
<feBlend mode="normal" in2="BackgroundImageFix" result="effect1_dropShadow_142_122"/>
<feBlend mode="normal" in="SourceGraphic" in2="effect1_dropShadow_142_122" result="shape"/>
</filter>
<filter id="filter2_d_142_122" x="132.318" y="47.2138" width="53.7644" height="59.6233" filterUnits="userSpaceOnUse" color-interpolation-filters="sRGB">
<feFlood flood-opacity="0" result="BackgroundImageFix"/>
<feColorMatrix in="SourceAlpha" type="matrix" values="0 0 0 0 0 0 0 0 0 0 0 0 0 0 0 0 0 0 127 0" result="hardAlpha"/>
<feOffset dx="6.64476" dy="10.4418"/>
<feGaussianBlur stdDeviation="4.74626"/>
<feComposite in2="hardAlpha" operator="out"/>
<feColorMatrix type="matrix" values="0 0 0 0 0.184314 0 0 0 0 0.254902 0 0 0 0 0.443137 0 0 0 0.15 0"/>
<feBlend mode="normal" in2="BackgroundImageFix" result="effect1_dropShadow_142_122"/>
<feBlend mode="normal" in="SourceGraphic" in2="effect1_dropShadow_142_122" result="shape"/>
</filter>
<filter id="filter3_f_142_122" x="2.24928" y="30.1089" width="94.8371" height="60.0324" filterUnits="userSpaceOnUse" color-interpolation-filters="sRGB">
<feFlood flood-opacity="0" result="BackgroundImageFix"/>
<feBlend mode="normal" in="SourceGraphic" in2="BackgroundImageFix" result="shape"/>
<feGaussianBlur stdDeviation="10.8865" result="effect1_foregroundBlur_142_122"/>
</filter>
<linearGradient id="paint0_linear_142_122" x1="101.717" y1="-16.3705" x2="103.364" y2="266.044" gradientUnits="userSpaceOnUse">
<stop stop-color="#CAE0FF" stop-opacity="0"/>
<stop offset="1" stop-color="#BCD8FF"/>
</linearGradient>
<linearGradient id="paint1_linear_142_122" x1="113.475" y1="42.3228" x2="113.475" y2="92.73" gradientUnits="userSpaceOnUse">
<stop stop-color="#ABCCFF"/>
<stop offset="1" stop-color="#70A8FF"/>
</linearGradient>
<linearGradient id="paint2_linear_142_122" x1="182.274" y1="42.3228" x2="182.274" y2="92.7241" gradientUnits="userSpaceOnUse">
<stop stop-color="#70A8FF"/>
<stop offset="1" stop-color="#5597FD"/>
</linearGradient>
<linearGradient id="paint3_linear_142_122" x1="197.392" y1="86.4799" x2="174.764" y2="56.5313" gradientUnits="userSpaceOnUse">
<stop stop-color="#EDF4FF"/>
<stop offset="1" stop-color="#ABCCFF"/>
</linearGradient>
<linearGradient id="paint4_linear_142_122" x1="117.764" y1="50.7825" x2="117.764" y2="92.7301" gradientUnits="userSpaceOnUse">
<stop stop-color="#2A64BE"/>
<stop offset="1" stop-color="#6095E7"/>
</linearGradient>
<linearGradient id="paint5_linear_142_122" x1="86.2489" y1="167.674" x2="39.6621" y2="123.749" gradientUnits="userSpaceOnUse">
<stop stop-color="#EDF4FF"/>
<stop offset="1" stop-color="#ABCCFF"/>
</linearGradient>
<linearGradient id="paint6_linear_142_122" x1="124.517" y1="154.031" x2="77.9299" y2="134.731" gradientUnits="userSpaceOnUse">
<stop stop-color="#EDF4FF"/>
<stop offset="1" stop-color="#ABCCFF"/>
</linearGradient>
<linearGradient id="paint7_linear_142_122" x1="165.78" y1="155.029" x2="122.521" y2="114.099" gradientUnits="userSpaceOnUse">
<stop stop-color="#EDF4FF"/>
<stop offset="1" stop-color="#ABCCFF"/>
</linearGradient>
<linearGradient id="paint8_linear_142_122" x1="160.187" y1="42.3228" x2="160.187" y2="92.73" gradientUnits="userSpaceOnUse">
<stop stop-color="#ABCCFF"/>
<stop offset="1" stop-color="#70A8FF"/>
</linearGradient>
<linearGradient id="paint9_linear_142_122" x1="65.2849" y1="112.768" x2="59.2952" y2="171.002" gradientUnits="userSpaceOnUse">
<stop stop-color="#ABCCFF"/>
<stop offset="1" stop-color="#70A8FF"/>
</linearGradient>
<linearGradient id="paint10_linear_142_122" x1="27.6825" y1="104.116" x2="122.853" y2="148.041" gradientUnits="userSpaceOnUse">
<stop stop-color="#ABCCFF"/>
<stop offset="1" stop-color="#70A8FF"/>
</linearGradient>
<linearGradient id="paint11_linear_142_122" x1="197.392" y1="133.4" x2="137.827" y2="135.396" gradientUnits="userSpaceOnUse">
<stop stop-color="#70A8FF"/>
<stop offset="1" stop-color="#5597FD"/>
</linearGradient>
<linearGradient id="paint12_linear_142_122" x1="81.4979" y1="92.8369" x2="81.4979" y2="117.77" gradientUnits="userSpaceOnUse">
<stop stop-color="#70A8FF"/>
<stop offset="1" stop-color="#5597FD"/>
</linearGradient>
<linearGradient id="paint13_linear_142_122" x1="79.3904" y1="92.8369" x2="79.3904" y2="117.77" gradientUnits="userSpaceOnUse">
<stop stop-color="#ABCCFF"/>
<stop offset="1" stop-color="#70A8FF"/>
</linearGradient>
<linearGradient id="paint14_linear_142_122" x1="79.3932" y1="95.2234" x2="79.3932" y2="115.182" gradientUnits="userSpaceOnUse">
<stop stop-color="#70A8FF"/>
<stop offset="1" stop-color="#5597FD"/>
</linearGradient>
<linearGradient id="paint15_linear_142_122" x1="55.0271" y1="78.1878" x2="31.6101" y2="75.8497" gradientUnits="userSpaceOnUse">
<stop stop-color="#C6DDFF"/>
<stop offset="1" stop-color="white"/>
</linearGradient>
<linearGradient id="paint16_linear_142_122" x1="138.94" y1="64.8772" x2="162.357" y2="62.5391" gradientUnits="userSpaceOnUse">
<stop stop-color="#C6DDFF"/>
<stop offset="1" stop-color="white"/>
</linearGradient>
<linearGradient id="paint17_linear_142_122" x1="26.952" y1="67.6874" x2="26.952" y2="75.963" gradientUnits="userSpaceOnUse">
<stop stop-color="#EDF4FF"/>
<stop offset="1" stop-color="#ABCCFF"/>
</linearGradient>
<linearGradient id="paint18_linear_142_122" x1="167.015" y1="54.3769" x2="167.015" y2="62.6524" gradientUnits="userSpaceOnUse">
<stop stop-color="#EDF4FF"/>
<stop offset="1" stop-color="#ABCCFF"/>
</linearGradient>
<linearGradient id="paint19_linear_142_122" x1="77.2644" y1="108.442" x2="85.9162" y2="108.775" gradientUnits="userSpaceOnUse">
<stop stop-color="#2A64BE"/>
<stop offset="1" stop-color="#4B80D1"/>
</linearGradient>
<linearGradient id="paint20_linear_142_122" x1="106.078" y1="29.4465" x2="106.078" y2="92.5639" gradientUnits="userSpaceOnUse">
<stop stop-color="#EDF4FF"/>
<stop offset="1" stop-color="#ABCCFF"/>
</linearGradient>
<linearGradient id="paint21_linear_142_122" x1="131.505" y1="45.55" x2="118.527" y2="35.5671" gradientUnits="userSpaceOnUse">
<stop stop-color="#EDF4FF"/>
<stop offset="1" stop-color="#ABCCFF"/>
</linearGradient>
<linearGradient id="paint22_linear_142_122" x1="17.3669" y1="147.376" x2="80.365" y2="140.298" gradientUnits="userSpaceOnUse">
<stop offset="0.09375" stop-color="#2A64BE"/>
<stop offset="1" stop-color="#2A64BE" stop-opacity="0"/>
</linearGradient>
<linearGradient id="paint23_linear_142_122" x1="65.9505" y1="148.173" x2="121.377" y2="139.756" gradientUnits="userSpaceOnUse">
<stop offset="0.09375" stop-color="#2A64BE"/>
<stop offset="1" stop-color="#2A64BE" stop-opacity="0"/>
</linearGradient>
<linearGradient id="paint24_linear_142_122" x1="110.208" y1="147.376" x2="161.839" y2="151.906" gradientUnits="userSpaceOnUse">
<stop offset="0.09375" stop-color="#265FB8"/>
<stop offset="1" stop-color="#84B4FF"/>
</linearGradient>
<linearGradient id="paint25_linear_142_122" x1="25.6371" y1="26.104" x2="69.5797" y2="67.7522" gradientUnits="userSpaceOnUse">
<stop stop-color="#FF698D"/>
<stop offset="1" stop-color="#FF3868"/>
</linearGradient>
<linearGradient id="paint26_linear_142_122" x1="148.541" y1="29.6471" x2="161.898" y2="41.2232" gradientUnits="userSpaceOnUse">
<stop stop-color="#94BFFF"/>
<stop offset="1" stop-color="#4C94FE"/>
</linearGradient>
<linearGradient id="paint27_linear_142_122" x1="128.91" y1="163.559" x2="142.267" y2="175.135" gradientUnits="userSpaceOnUse">
<stop stop-color="#94BFFF"/>
<stop offset="1" stop-color="#4C94FE"/>
</linearGradient>
<linearGradient id="paint28_linear_142_122" x1="23.3282" y1="122.525" x2="13.8508" y2="130.226" gradientUnits="userSpaceOnUse">
<stop stop-color="#70A8FF"/>
<stop offset="1" stop-color="#5597FD"/>
</linearGradient>
<linearGradient id="paint29_linear_142_122" x1="175.625" y1="115.741" x2="184.154" y2="124.48" gradientUnits="userSpaceOnUse">
<stop stop-color="#70A8FF"/>
<stop offset="1" stop-color="#5597FD"/>
</linearGradient>
<linearGradient id="paint30_linear_142_122" x1="96.1677" y1="0" x2="96.1677" y2="29.3092" gradientUnits="userSpaceOnUse">
<stop stop-color="#70A8FF"/>
<stop offset="1" stop-color="#5597FD"/>
</linearGradient>
<linearGradient id="paint31_linear_142_122" x1="59.009" y1="155.646" x2="59.009" y2="184.955" gradientUnits="userSpaceOnUse">
<stop stop-color="#70A8FF"/>
<stop offset="1" stop-color="#5597FD"/>
</linearGradient>
</defs>
</svg>
