<svg width="36" height="32" viewBox="0 0 36 32" fill="none" xmlns="http://www.w3.org/2000/svg">
<path d="M4.74689 14.0585C4.74689 12.0366 6.38601 10.3975 8.40798 10.3975H9.28664C10.2572 10.3975 11.044 11.1842 11.044 12.1548V18.4519C11.044 19.4224 10.2572 20.2092 9.28664 20.2092H8.40798C6.38601 20.2092 4.74689 18.5701 4.74689 16.5481V14.0585Z" fill="url(#paint0_linear_146_18)"/>
<path d="M24.2239 16.5481C24.2239 18.5701 22.5847 20.2092 20.5628 20.2092H19.6841C18.7136 20.2092 17.9268 19.4224 17.9268 18.4519V12.1548C17.9268 11.1842 18.7136 10.3975 19.6841 10.3975H20.5628C22.5847 10.3975 24.2239 12.0366 24.2239 14.0585V16.5481Z" fill="url(#paint1_linear_146_18)"/>
<path d="M28.4707 13.9854C28.4707 6.26146 22.2092 0 14.4854 0C6.76146 0 0.5 6.26146 0.5 13.9854V16.4749C0.5 17.041 0.958955 17.5 1.5251 17.5H1.96444C2.53058 17.5 2.98954 17.041 2.98954 16.4749V13.9854C2.98954 7.63639 8.13639 2.48954 14.4854 2.48954C20.8343 2.48954 25.9812 7.63639 25.9812 13.9854V21.6736C25.9812 23.0486 24.8666 24.1632 23.4916 24.1632H17.7071V26.7992H23.931C26.4382 26.7992 28.4707 24.7666 28.4707 22.2594V13.9854Z" fill="#21D4FD" fill-opacity="0.4"/>
<path d="M11.0439 25.4812C11.0439 24.0254 12.2241 22.8452 13.6799 22.8452H15.7301C16.8624 22.8452 17.7803 23.7631 17.7803 24.8954V26.0669C17.7803 27.1992 16.8624 28.1172 15.7301 28.1172H13.6799C12.2241 28.1172 11.0439 26.937 11.0439 25.4812Z" fill="#21D4FD" fill-opacity="0.4"/>
<circle cx="27.1527" cy="23.1381" r="8.34728" fill="#21D4FD" fill-opacity="0.4"/>
<path d="M23.6133 25.1805C23.6457 25.535 23.0273 26.3832 22.647 26.8812C22.5812 26.9673 22.6349 27.0895 22.7436 27.0915C23.3835 27.1033 24.4872 26.9409 25.2185 26.1979L23.6133 25.1805Z" fill="white"/>
<path d="M31.546 22.9377C31.546 24.9298 29.5463 26.5447 27.0795 26.5447C24.6127 26.5447 22.613 24.9298 22.613 22.9377C22.613 20.9455 24.6127 19.3306 27.0795 19.3306C29.5463 19.3306 31.546 20.9455 31.546 22.9377Z" fill="white"/>
<defs>
<linearGradient id="paint0_linear_146_18" x1="6.06736" y1="13.3909" x2="22.9523" y2="10.1987" gradientUnits="userSpaceOnUse">
<stop stop-color="#21D4FD"/>
<stop offset="1" stop-color="#2152FF"/>
</linearGradient>
<linearGradient id="paint1_linear_146_18" x1="6.06736" y1="13.3909" x2="22.9523" y2="10.1987" gradientUnits="userSpaceOnUse">
<stop stop-color="#21D4FD"/>
<stop offset="1" stop-color="#2152FF"/>
</linearGradient>
</defs>
</svg>
