<svg width="11" height="12" viewBox="0 0 11 12" fill="none" xmlns="http://www.w3.org/2000/svg">
<path d="M2.4265 0.714286C2.4265 0.319196 2.1073 0 1.71221 0C1.31712 0 0.997925 0.319196 0.997925 0.714286V1.42857V8.21428V10.7143C0.997925 11.1094 1.31712 11.4286 1.71221 11.4286C2.1073 11.4286 2.4265 11.1094 2.4265 10.7143V7.85714C2.4265 7.85714 2.94435 7.72768 3.86176 7.49777C4.77917 7.26786 5.75016 7.375 6.59614 7.79687C7.58275 8.29018 8.72784 8.35045 9.75909 7.96205L10.5336 7.67188C10.8127 7.56696 10.9979 7.30134 10.9979 7.00223V1.47545C10.9979 0.962054 10.4577 0.627232 9.99793 0.857143L9.78364 0.964286C8.75016 1.48214 7.53364 1.48214 6.50016 0.964286C5.71667 0.571429 4.81712 0.473214 3.96667 0.685268L2.4265 1.07143V0.714286Z" fill="url(#paint0_linear_669_511)"/>
<defs>
<linearGradient id="paint0_linear_669_511" x1="1.30556" y1="1.36054" x2="12.1068" y2="4.9398" gradientUnits="userSpaceOnUse">
<stop stop-color="#FAB534"/>
<stop offset="1" stop-color="#F64F39"/>
</linearGradient>
</defs>
</svg>
