<svg width="14" height="14" viewBox="0 0 14 14" fill="none" xmlns="http://www.w3.org/2000/svg">
<path d="M14.0003 6.9989C14.0003 10.8649 10.8663 13.9989 7.00029 13.9989C3.1343 13.9989 0.000289917 10.8649 0.000289917 6.9989C0.000289917 3.13291 3.1343 -0.00109863 7.00029 -0.00109863C10.8663 -0.00109863 14.0003 3.13291 14.0003 6.9989Z" fill="url(#paint0_linear_698_7110)"/>
<path d="M3.77943 7.99937L6.57218 10.6127C6.6881 10.7211 6.8411 10.7815 7.00029 10.7815C7.15948 10.7815 7.31248 10.7211 7.4284 10.6127L10.2211 7.99937C10.691 7.56098 10.9568 6.946 10.9568 6.30314V6.21329C10.9568 5.13049 10.1763 4.20724 9.11147 4.02909C8.40671 3.91137 7.68959 4.14218 7.18575 4.64718L7.00029 4.83306L6.81483 4.64718C6.31099 4.14218 5.59387 3.91137 4.88911 4.02909C3.82425 4.20724 3.04377 5.13049 3.04377 6.21329V6.30314C3.04377 6.946 3.3096 7.56098 3.77943 7.99937Z" fill="white"/>
<defs>
<linearGradient id="paint0_linear_698_7110" x1="7.00029" y1="-0.00109863" x2="7.00029" y2="13.9989" gradientUnits="userSpaceOnUse">
<stop stop-color="#E56A7D"/>
<stop offset="1" stop-color="#CD3339"/>
</linearGradient>
</defs>
</svg>
