<svg width="36" height="25" viewBox="0 0 36 25" fill="none" xmlns="http://www.w3.org/2000/svg">
<path d="M5.5 10C5.5 9.72386 5.72386 9.5 6 9.5H22C22.2761 9.5 22.5 9.72386 22.5 10V12C22.5 12.2761 22.2761 12.5 22 12.5H6C5.72386 12.5 5.5 12.2761 5.5 12V10Z" fill="#9CACCC" fill-opacity="0.4"/>
<path d="M5.5 14.5C5.5 14.2239 5.72386 14 6 14H22C22.2761 14 22.5 14.2239 22.5 14.5V16.5C22.5 16.7761 22.2761 17 22 17H6C5.72386 17 5.5 16.7761 5.5 16.5V14.5Z" fill="#9CACCC" fill-opacity="0.4"/>
<path d="M5.5 19C5.5 18.7239 5.72386 18.5 6 18.5H22C22.2761 18.5 22.5 18.7239 22.5 19V21C22.5 21.2761 22.2761 21.5 22 21.5H6C5.72386 21.5 5.5 21.2761 5.5 21V19Z" fill="#9CACCC" fill-opacity="0.4"/>
<path d="M0.5 6.80548H27.8338V20.9388C27.8338 21.3749 27.4835 21.73 27.0475 21.736L24.485 21.7711C24.0404 21.7772 23.6768 21.4185 23.6768 20.9739V9.48192C23.6768 8.66422 23.0139 8.00134 22.1962 8.00134H6.02371C5.20601 8.00134 4.54313 8.66422 4.54313 9.48192V20.8822C4.54313 21.3181 4.193 21.6732 3.75712 21.6793L1.30846 21.7138C0.863816 21.7201 0.5 21.3614 0.5 20.9167V6.80548Z" fill="url(#paint0_linear_3043_2044)"/>
<path d="M0.556945 6.86243C0.556945 5.90046 1.14556 5.03645 2.04078 4.68435L13.7501 0.0790296C14.018 -0.0263432 14.3159 -0.0263432 14.5838 0.0790296L26.2931 4.68435C27.1883 5.03645 27.7769 5.90046 27.7769 6.86243H0.556945Z" fill="url(#paint1_linear_3043_2044)"/>
<circle cx="27.274" cy="16.5726" r="8.22602" fill="url(#paint2_linear_3043_2044)"/>
<path d="M30.9199 17.5C31.1961 17.5 31.4199 17.2761 31.4199 17C31.4199 16.7239 31.1961 16.5 30.9199 16.5V17.5ZM23.1464 16.6464C22.9511 16.8417 22.9511 17.1583 23.1464 17.3536L26.3283 20.5355C26.5236 20.7308 26.8402 20.7308 27.0355 20.5355C27.2307 20.3403 27.2307 20.0237 27.0355 19.8284L24.207 17L27.0355 14.1716C27.2307 13.9763 27.2307 13.6597 27.0355 13.4645C26.8402 13.2692 26.5236 13.2692 26.3283 13.4645L23.1464 16.6464ZM30.9199 16.5H23.4999V17.5H30.9199V16.5Z" fill="white"/>
<defs>
<linearGradient id="paint0_linear_3043_2044" x1="14.1669" y1="0" x2="14.1669" y2="21.7712" gradientUnits="userSpaceOnUse">
<stop stop-color="#9CACCC"/>
<stop offset="1" stop-color="#7487A6"/>
</linearGradient>
<linearGradient id="paint1_linear_3043_2044" x1="14.1669" y1="0" x2="14.1669" y2="21.7712" gradientUnits="userSpaceOnUse">
<stop stop-color="#9CACCC"/>
<stop offset="1" stop-color="#7487A6"/>
</linearGradient>
<linearGradient id="paint2_linear_3043_2044" x1="27.274" y1="8.34659" x2="27.274" y2="24.7986" gradientUnits="userSpaceOnUse">
<stop stop-color="#9CACCC"/>
<stop offset="1" stop-color="#7487A6"/>
</linearGradient>
</defs>
</svg>
