<svg width="27" height="36" viewBox="0 0 27 36" fill="none" xmlns="http://www.w3.org/2000/svg">
<path d="M0 4.85233C0 2.44861 1.94861 0.5 4.35233 0.5H19.5855C20.8549 1.76943 24.3005 5.21503 26.2953 7.20984V31.1477C26.2953 33.5514 24.3467 35.5 21.943 35.5H4.35233C1.9486 35.5 0 33.5514 0 31.1477V4.85233Z" fill="url(#paint0_linear_106_300)"/>
<path d="M10.6995 20.7202C10.6995 20.1694 11.146 19.7228 11.6969 19.7228H20.5829C21.1337 19.7228 21.5803 20.1694 21.5803 20.7202C21.5803 21.2711 21.1337 21.7176 20.5829 21.7176H11.6969C11.146 21.7176 10.6995 21.2711 10.6995 20.7202Z" fill="white"/>
<path d="M10.6995 27.2487C10.6995 26.6978 11.146 26.2513 11.6969 26.2513H20.5829C21.1337 26.2513 21.5803 26.6978 21.5803 27.2487C21.5803 27.7995 21.1337 28.2461 20.5829 28.2461H11.6969C11.146 28.2461 10.6995 27.7995 10.6995 27.2487Z" fill="white"/>
<path d="M8.16062 20.7202C8.16062 21.6717 7.3893 22.443 6.43782 22.443C5.48635 22.443 4.71503 21.6717 4.71503 20.7202C4.71503 19.7687 5.48635 18.9974 6.43782 18.9974C7.3893 18.9974 8.16062 19.7687 8.16062 20.7202Z" fill="white"/>
<path d="M8.16062 27.2487C8.16062 28.2002 7.3893 28.9715 6.43782 28.9715C5.48635 28.9715 4.71503 28.2002 4.71503 27.2487C4.71503 26.2972 5.48635 25.5259 6.43782 25.5259C7.3893 25.5259 8.16062 26.2972 8.16062 27.2487Z" fill="white"/>
<path d="M19.5855 7.20984H26.2954L19.5855 0.5V7.20984Z" fill="url(#paint1_linear_106_300)"/>
<path d="M15.0155 13.5117C15.3033 13.5117 15.4471 13.6598 15.4471 13.956C15.4471 14.2606 15.299 14.413 15.0028 14.413L11.1565 14.3622C10.8941 14.3537 10.7629 14.2014 10.7629 13.9052C10.7629 13.7528 10.801 13.6428 10.8772 13.5751C10.9618 13.499 11.0634 13.4609 11.1818 13.4609L12.629 13.4863C12.7813 11.049 12.8575 8.67936 12.8575 6.37746C12.4767 6.38592 11.9816 6.41131 11.3723 6.45363L11.0295 6.47902C10.9449 6.47902 10.8687 6.4367 10.801 6.35207C10.7333 6.26744 10.6995 6.15743 10.6995 6.02202C10.6995 5.7766 10.8349 5.6285 11.1057 5.57772C11.258 5.55233 11.5838 5.52694 12.0831 5.50155C12.5825 5.47616 13.0691 5.46347 13.543 5.46347C14.2539 5.46347 14.7574 5.48886 15.0536 5.53964C15.1806 5.56503 15.2779 5.60734 15.3456 5.66658C15.4133 5.71736 15.4471 5.81891 15.4471 5.97124C15.4471 6.11511 15.4048 6.22936 15.3202 6.31399C15.244 6.39015 15.1382 6.42401 15.0028 6.41554C14.6728 6.39015 14.2835 6.37323 13.835 6.36477C13.835 7.73575 13.818 8.97556 13.7842 10.0842C13.7503 11.1844 13.6869 12.3226 13.5938 13.499L15.0155 13.5117Z" fill="white"/>
<defs>
<linearGradient id="paint0_linear_106_300" x1="13.1477" y1="0.5" x2="13.1477" y2="35.5" gradientUnits="userSpaceOnUse">
<stop stop-color="#82E12F"/>
<stop offset="1" stop-color="#2CB735"/>
</linearGradient>
<linearGradient id="paint1_linear_106_300" x1="22.9404" y1="0.5" x2="22.9404" y2="7.20984" gradientUnits="userSpaceOnUse">
<stop stop-color="#82E12F"/>
<stop offset="1" stop-color="#2CB735"/>
</linearGradient>
</defs>
</svg>
