<svg width="31" height="35" viewBox="0 0 31 35" fill="none" xmlns="http://www.w3.org/2000/svg">
<path d="M10.9909 30.4427H19.9232V30.5339C19.9232 33.0004 17.9236 35 15.457 35C12.9904 35 10.9909 33.0004 10.9909 30.5339V30.4427Z" fill="#21D4FD" fill-opacity="0.4"/>
<path d="M13.2695 3.37242L17.918 3.37242C19.4674 3.37242 22.7754 5.34627 24.1159 7.20058C29.1289 13.3074 23.2956 17.3177 30.4049 24.7917C30.823 25.2311 30.8848 26.0354 30.8346 26.7584C30.7723 27.6547 29.962 28.2592 29.0635 28.2634C18.3749 28.3136 13.2548 28.191 2.21127 28.2522C1.87197 28.2541 1.52365 28.2105 1.21678 28.0658C-1.09715 26.974 0.600252 24.7917 0.600252 24.7917C6.88931 19.323 2.51431 12.2136 6.79816 7.20058C8.18686 5.32011 11.5377 3.3724 13.2695 3.37242Z" fill="url(#paint0_linear_402_8)"/>
<path d="M13.1784 1.73177C13.1784 0.77534 13.9537 0 14.9101 0H16.0039C16.9603 0 17.7357 0.77534 17.7357 1.73177V3.37242L13.1784 3.37415V1.73177Z" fill="url(#paint1_linear_402_8)"/>
<defs>
<linearGradient id="paint0_linear_402_8" x1="1.71386" y1="5.6" x2="29.8636" y2="5.70449" gradientUnits="userSpaceOnUse">
<stop stop-color="#21D4FD"/>
<stop offset="1" stop-color="#2152FF"/>
</linearGradient>
<linearGradient id="paint1_linear_402_8" x1="1.71386" y1="5.6" x2="29.8636" y2="5.70449" gradientUnits="userSpaceOnUse">
<stop stop-color="#21D4FD"/>
<stop offset="1" stop-color="#2152FF"/>
</linearGradient>
</defs>
</svg>
