<svg width="19" height="12" viewBox="0 0 19 12" fill="none" xmlns="http://www.w3.org/2000/svg">
<path d="M6.07143 2.57143C6.07143 2.09732 6.45447 1.71429 6.92857 1.71429C7.40268 1.71429 7.78572 2.09732 7.78572 2.57143V2.78036C7.78572 3.52232 7.72143 4.26161 7.59554 4.99018L5.33482 5.66786C4.24732 5.99464 3.50268 6.99643 3.50268 8.13214V10.058C3.50268 11.1295 4.37322 12 5.44464 12C6.14107 12 6.78393 11.6277 7.12947 11.0223L7.50179 10.3714C8.21964 9.1125 8.74732 7.75446 9.06607 6.34018L11.5946 5.58214L11.2598 6.58661C11.1714 6.84911 11.217 7.13571 11.3777 7.35804C11.5384 7.58036 11.7982 7.71429 12.0741 7.71429H15.5C15.9741 7.71429 16.3571 7.33125 16.3571 6.85714C16.3571 6.38304 15.9741 6 15.5 6H13.2607L13.7429 4.55625C13.8446 4.25357 13.767 3.91875 13.5446 3.68839C13.3223 3.45804 12.9902 3.37232 12.6821 3.46339L9.40357 4.44911C9.46786 3.89464 9.5 3.34018 9.5 2.78036V2.57143C9.5 1.15179 8.34822 0 6.92857 0C5.50893 0 4.35714 1.15179 4.35714 2.57143V3.42857C4.35714 3.90268 4.74018 4.28571 5.21429 4.28571C5.68839 4.28571 6.07143 3.90268 6.07143 3.42857V2.57143ZM5.825 7.3125L7.1375 6.91875C6.85893 7.82411 6.48125 8.69732 6.00982 9.52232L5.6375 10.1732C5.59732 10.2429 5.52232 10.2884 5.43929 10.2884C5.31339 10.2884 5.21161 10.1866 5.21161 10.0607V8.13214C5.21161 7.75446 5.46072 7.41964 5.82232 7.30982L5.825 7.3125ZM1.57143 9C1.21518 9 0.928574 9.28661 0.928574 9.64286C0.928574 9.99911 1.21518 10.2857 1.57143 10.2857H2.6509C2.64554 10.2107 2.64286 10.1357 2.64286 10.058V9H1.57143ZM17.4286 10.2857C17.7848 10.2857 18.0714 9.99911 18.0714 9.64286C18.0714 9.28661 17.7848 9 17.4286 9H9.12232C8.94286 9.43661 8.74197 9.86518 8.525 10.2857H17.4286Z" fill="white"/>
</svg>
