<svg width="32" height="36" viewBox="0 0 32 36" fill="none" xmlns="http://www.w3.org/2000/svg">
<path d="M1.09231 12.3852C-0.296232 10.6872 0.911871 8.13864 3.10532 8.13864H28.702C30.8955 8.13864 32.1036 10.6872 30.715 12.3852L19.9668 25.5288H11.8406L1.09231 12.3852Z" fill="url(#paint0_linear_3043_2115)"/>
<path d="M11.8406 30.9733L11.8406 25.5288H19.9668L19.9668 33.4112C19.9668 34.7927 18.2213 36.0127 17.1226 35.2802C15.9037 34.4676 11.8406 31.5422 11.8406 30.9733Z" fill="url(#paint1_linear_3043_2115)"/>
<g filter="url(#filter0_i_3043_2115)">
<path d="M31.32 27.41C31.32 31.7786 27.7786 35.32 23.41 35.32C19.0414 35.32 15.5 31.7786 15.5 27.41C15.5 23.0414 19.0414 19.5 23.41 19.5C27.7786 19.5 31.32 23.0414 31.32 27.41Z" fill="#9CACCC" fill-opacity="0.4"/>
</g>
<path d="M18.2619 5.47819C18.2619 6.82726 17.1721 7.9209 15.8278 7.9209C14.4835 7.9209 13.3937 6.82726 13.3937 5.47819C13.3937 4.12911 14.4835 3.03547 15.8278 3.03547C17.1721 3.03547 18.2619 4.12911 18.2619 5.47819Z" fill="url(#paint2_linear_3043_2115)"/>
<path d="M13.2704 2.35523C13.2704 3.37984 12.4427 4.21045 11.4217 4.21045C10.4007 4.21045 9.57297 3.37984 9.57297 2.35523C9.57297 1.33061 10.4007 0.5 11.4217 0.5C12.4427 0.5 13.2704 1.33061 13.2704 2.35523Z" fill="#9CACCC" fill-opacity="0.4"/>
<path d="M22.2059 2.35523C22.2059 3.37984 21.3782 4.21045 20.3571 4.21045C19.3361 4.21045 18.5084 3.37984 18.5084 2.35523C18.5084 1.33061 19.3361 0.5 20.3571 0.5C21.3782 0.5 22.2059 1.33061 22.2059 2.35523Z" fill="#9CACCC" fill-opacity="0.4"/>
<path d="M8.46375 7.1916C8.46375 5.955 9.46282 4.95176 10.6951 4.9583C11.5108 4.96262 12.293 4.9702 12.5309 4.98346C13.0855 5.01439 12.3769 6.28212 13.5169 7.54985H8.82074C8.62358 7.54985 8.46375 7.38946 8.46375 7.1916Z" fill="#9CACCC" fill-opacity="0.4"/>
<path d="M23.2535 7.19161C23.2535 5.955 22.2544 4.95177 21.0221 4.9583C20.2064 4.96263 19.4242 4.9702 19.1863 4.98347C18.6317 5.01439 19.3404 6.28212 18.2003 7.54986H22.8965C23.0936 7.54986 23.2535 7.38946 23.2535 7.19161Z" fill="#9CACCC" fill-opacity="0.4"/>
<path d="M11.4217 11.6932C11.4217 9.98551 12.8012 8.60115 14.5029 8.60115H17.276C18.9777 8.60115 20.3571 9.98551 20.3571 11.6932V11.8169C20.3571 12.1243 20.1088 12.3734 19.8025 12.3734H11.9763C11.67 12.3734 11.4217 12.1243 11.4217 11.8169V11.6932Z" fill="url(#paint3_linear_3043_2115)"/>
<path d="M24.7754 25.7278C24.7458 25.4048 24.6207 25.1532 24.4001 24.9732C24.1817 24.7932 23.8976 24.7032 23.5477 24.7032C23.3017 24.7032 23.0908 24.7463 22.9148 24.8327C22.7388 24.919 22.6041 25.0361 22.5108 25.1841C22.4175 25.332 22.3698 25.501 22.3677 25.6908C22.3677 25.8487 22.3984 25.9855 22.4599 26.1014C22.5235 26.2173 22.6094 26.316 22.7176 26.3974C22.8257 26.4763 22.9455 26.5429 23.077 26.5971C23.2084 26.6514 23.341 26.697 23.4746 26.734L24.0852 26.9115C24.3312 26.9781 24.5676 27.0681 24.7945 27.1816C25.0235 27.295 25.2282 27.4381 25.4084 27.6107C25.5908 27.7833 25.7349 27.9917 25.841 28.2358C25.947 28.48 26 28.766 26 29.094C26 29.5379 25.9025 29.9288 25.7074 30.2666C25.5123 30.602 25.2303 30.8647 24.8613 31.0545C24.4945 31.242 24.0503 31.3357 23.5286 31.3357C23.0218 31.3357 22.5818 31.2444 22.2087 31.0619C21.8376 30.8794 21.5471 30.6131 21.3372 30.2629C21.1293 29.9128 21.017 29.4861 21 28.983H22.1609C22.1779 29.2469 22.2479 29.4664 22.3709 29.6415C22.4939 29.8166 22.6539 29.9473 22.8511 30.0336C23.0505 30.1199 23.2731 30.1631 23.5191 30.1631C23.7757 30.1631 24.0004 30.1187 24.1934 30.0299C24.3885 29.9386 24.5411 29.8129 24.6514 29.6526C24.7617 29.4898 24.8179 29.2999 24.82 29.0829C24.8179 28.8856 24.768 28.7229 24.6705 28.5946C24.5729 28.4639 24.4362 28.3554 24.2602 28.2691C24.0863 28.1803 23.8827 28.1014 23.6495 28.0324L22.9084 27.8104C22.3719 27.6501 21.9478 27.4072 21.6361 27.0817C21.3265 26.7537 21.1718 26.3185 21.1718 25.7759C21.1718 25.3296 21.2757 24.9387 21.4835 24.6033C21.6934 24.2679 21.9786 24.0078 22.3391 23.8228C22.6995 23.6354 23.1077 23.5417 23.5636 23.5417C24.0259 23.5417 24.4309 23.6354 24.7786 23.8228C25.1285 24.0078 25.4031 24.2655 25.6024 24.5959C25.8017 24.9239 25.9046 25.3012 25.9109 25.7278H24.7754Z" fill="white"/>
<path d="M22.9705 31.0417C22.9705 30.6965 23.2111 30.4167 23.5079 30.4167C23.8047 30.4167 24.0453 30.6965 24.0453 31.0417V31.875C24.0453 32.2202 23.8047 32.5 23.5079 32.5C23.2111 32.5 22.9705 32.2202 22.9705 31.875V31.0417Z" fill="white"/>
<path d="M22.9705 23.125C22.9705 22.7798 23.2111 22.5 23.5079 22.5C23.8047 22.5 24.0453 22.7798 24.0453 23.125V23.9583C24.0453 24.3035 23.8047 24.5833 23.5079 24.5833C23.2111 24.5833 22.9705 24.3035 22.9705 23.9583V23.125Z" fill="white"/>
<defs>
<filter id="filter0_i_3043_2115" x="15.5" y="19.5" width="16.0199" height="15.92" filterUnits="userSpaceOnUse" color-interpolation-filters="sRGB">
<feFlood flood-opacity="0" result="BackgroundImageFix"/>
<feBlend mode="normal" in="SourceGraphic" in2="BackgroundImageFix" result="shape"/>
<feColorMatrix in="SourceAlpha" type="matrix" values="0 0 0 0 0 0 0 0 0 0 0 0 0 0 0 0 0 0 127 0" result="hardAlpha"/>
<feOffset dx="0.2" dy="0.1"/>
<feGaussianBlur stdDeviation="0.5"/>
<feComposite in2="hardAlpha" operator="arithmetic" k2="-1" k3="1"/>
<feColorMatrix type="matrix" values="0 0 0 0 1 0 0 0 0 1 0 0 0 0 1 0 0 0 0.6 0"/>
<feBlend mode="normal" in2="shape" result="effect1_innerShadow_3043_2115"/>
</filter>
<linearGradient id="paint0_linear_3043_2115" x1="15.9037" y1="8.13864" x2="15.9037" y2="35.5" gradientUnits="userSpaceOnUse">
<stop stop-color="#9CACCC"/>
<stop offset="1" stop-color="#7487A6"/>
</linearGradient>
<linearGradient id="paint1_linear_3043_2115" x1="15.9037" y1="8.13864" x2="15.9037" y2="35.5" gradientUnits="userSpaceOnUse">
<stop stop-color="#9CACCC"/>
<stop offset="1" stop-color="#7487A6"/>
</linearGradient>
<linearGradient id="paint2_linear_3043_2115" x1="15.8586" y1="0.5" x2="15.8586" y2="12.3734" gradientUnits="userSpaceOnUse">
<stop stop-color="#9CACCC"/>
<stop offset="1" stop-color="#7487A6"/>
</linearGradient>
<linearGradient id="paint3_linear_3043_2115" x1="15.8586" y1="0.5" x2="15.8586" y2="12.3734" gradientUnits="userSpaceOnUse">
<stop stop-color="#9CACCC"/>
<stop offset="1" stop-color="#7487A6"/>
</linearGradient>
</defs>
</svg>
