<svg width="14" height="14" viewBox="0 0 14 14" fill="none" xmlns="http://www.w3.org/2000/svg">
<path d="M14.0003 6.9989C14.0003 10.8649 10.8663 13.9989 7.00029 13.9989C3.1343 13.9989 0.000289917 10.8649 0.000289917 6.9989C0.000289917 3.13291 3.1343 -0.00109863 7.00029 -0.00109863C10.8663 -0.00109863 14.0003 3.13291 14.0003 6.9989Z" fill="url(#paint0_linear_698_7113)"/>
<path d="M7.89002 3.22369C8.29304 3.30441 8.555 3.69717 8.4744 4.1008L8.43875 4.27777C8.35659 4.69226 8.20469 5.08658 7.99233 5.44518H10.2244C10.6352 5.44518 10.9684 5.77895 10.9684 6.19034C10.9684 6.47753 10.8057 6.72747 10.567 6.85167C10.7359 6.98828 10.8444 7.19785 10.8444 7.43227C10.8444 7.79553 10.584 8.09825 10.2415 8.16345C10.3097 8.27678 10.3484 8.40873 10.3484 8.55C10.3484 8.88066 10.133 9.16165 9.83535 9.2579C9.8462 9.30913 9.8524 9.36346 9.8524 9.41935C9.8524 9.83074 9.51914 10.1645 9.10837 10.1645H7.59706C7.30255 10.1645 7.01579 10.0776 6.77088 9.91457L6.17411 9.5156C5.76024 9.23927 5.51223 8.77355 5.51223 8.27522V6.54895C5.51223 6.09564 5.71839 5.66873 6.07025 5.38464L6.18496 5.29305C6.59572 4.96394 6.87629 4.50132 6.97859 3.98592L7.01424 3.80894C7.09484 3.40532 7.48701 3.14296 7.89002 3.22369ZM3.52816 5.69357H4.52019C4.79456 5.69357 5.01621 5.91556 5.01621 6.19034V9.66774C5.01621 9.94251 4.79456 10.1645 4.52019 10.1645H3.52816C3.2538 10.1645 3.03214 9.94251 3.03214 9.66774V6.19034C3.03214 5.91556 3.2538 5.69357 3.52816 5.69357Z" fill="white"/>
<defs>
<linearGradient id="paint0_linear_698_7113" x1="7.00029" y1="-0.00109863" x2="7.00029" y2="13.9989" gradientUnits="userSpaceOnUse">
<stop stop-color="#56A2F5"/>
<stop offset="1" stop-color="#2A56E5"/>
</linearGradient>
</defs>
</svg>
