<svg width="36" height="37" viewBox="0 0 36 37" fill="none" xmlns="http://www.w3.org/2000/svg">
<path d="M0.5 4.85233C0.5 2.44861 2.44861 0.5 4.85233 0.5H22.443C25 0.5 26.7953 2.5 26.7953 4.85233V31.1477C26.7953 33.5514 24.8467 35.5 22.443 35.5H4.85233C2.4486 35.5 0.5 33.5514 0.5 31.1477V4.85233Z" fill="url(#paint0_linear_311_3)"/>
<circle cx="27" cy="28.5" r="7.5" fill="white"/>
<path d="M12.9069 15.5864C12.9069 15.1001 13.3164 14.706 13.8215 14.706C14.3266 14.706 14.7361 15.1001 14.7361 15.5864V16.6429C14.7361 17.1291 14.3266 17.5233 13.8215 17.5233C13.3164 17.5233 12.9069 17.1291 12.9069 16.6429V15.5864Z" fill="white"/>
<path d="M12.9069 4.88042C12.9069 4.39418 13.3164 4 13.8215 4C14.3266 4 14.7361 4.39418 14.7361 4.88042V5.6552C14.7361 6.14144 14.3266 6.53562 13.8215 6.53562C13.3164 6.53562 12.9069 6.14144 12.9069 5.6552V4.88042Z" fill="white"/>
<path d="M17.8938 12.8437C17.8938 13.3734 17.765 13.8298 17.5075 14.2129C17.2616 14.5848 16.8519 14.9285 16.2782 15.2441C15.8919 15.4695 15.4412 15.6385 14.9261 15.7512C14.411 15.8639 13.8901 15.9202 13.3632 15.9202C12.8247 15.9202 12.1574 15.7512 11.3614 15.4131C10.7877 15.1427 10.3312 14.8215 9.99169 14.4496C9.6639 14.0777 9.5 13.672 9.5 13.2325C9.5 12.9282 9.57024 12.7085 9.71072 12.5732C9.8512 12.4267 10.0795 12.3535 10.3956 12.3535C10.5595 12.3535 10.7292 12.4211 10.9048 12.5563C11.0804 12.6803 11.1858 12.8042 11.2209 12.9282C11.3848 13.3903 11.6716 13.7452 12.0814 13.9932C12.4911 14.2298 13.0003 14.3482 13.6091 14.3482C14.3115 14.3482 14.8968 14.2242 15.3651 13.9763C15.8451 13.7283 16.0851 13.3959 16.0851 12.9789C16.0851 12.5732 15.8275 12.2126 15.3124 11.8971C14.7973 11.5815 14.2705 11.3618 13.732 11.2378C12.9594 11.0349 12.2745 10.7927 11.6775 10.5109C11.057 10.2179 10.5946 9.85729 10.2902 9.42905C9.98583 9.00081 9.83364 8.55003 9.83364 8.07672C9.83364 7.63721 9.99169 7.19207 10.3078 6.74129C10.6239 6.27924 10.9985 5.9468 11.4316 5.74395C11.6658 5.63125 12.0638 5.51292 12.6257 5.38896C13.1994 5.25373 13.6149 5.18611 13.8725 5.18611C14.212 5.18611 14.5866 5.22555 14.9963 5.30444C15.4061 5.38332 15.7397 5.49602 15.9973 5.64252C16.5124 5.92426 16.8928 6.17782 17.1387 6.40321C17.3845 6.6286 17.5075 6.91033 17.5075 7.24841C17.5075 7.45126 17.4255 7.63158 17.2616 7.78935C17.1094 7.94712 16.8402 8.02601 16.4538 8.02601C16.3602 8.02601 16.2665 7.98656 16.1729 7.90768C16.0792 7.82879 15.9622 7.71046 15.8217 7.55269C15.6344 7.31603 15.4529 7.15826 15.2773 7.07937C15.1017 7.02303 14.8442 6.96104 14.5047 6.89343C14.1769 6.82581 13.8842 6.792 13.6267 6.792C13.3457 6.792 13.053 6.84835 12.7486 6.96104C12.4443 7.07374 12.1867 7.23714 11.976 7.45126C11.777 7.65411 11.6775 7.89077 11.6775 8.16124C11.6775 8.38663 11.7828 8.58384 11.9936 8.75288C12.216 8.91066 12.4794 9.04025 12.7838 9.14168C13.135 9.27691 13.5154 9.39524 13.9252 9.49667C14.4637 9.65444 14.9027 9.80094 15.2422 9.93617C15.5934 10.0601 15.9329 10.2179 16.2607 10.4095C16.8343 10.7363 17.2499 11.0744 17.5075 11.4237C17.765 11.7618 17.8938 12.2351 17.8938 12.8437Z" fill="white"/>
<path d="M5.5 21.9974C5.5 21.4466 5.94527 21 6.75529 21H20.2522C21.0622 21 21.5 21.4466 21.5 21.9974C21.5 22.5483 21.0622 22.9948 20.2522 22.9948H6.75529C5.94527 22.9948 5.5 22.5483 5.5 21.9974Z" fill="white"/>
<path d="M5.5 26.9974C5.5 26.4466 5.95535 26 6.76537 26H20.23C21.04 26 21.5 26.4466 21.5 26.9974C21.5 27.5483 21.04 27.9948 20.23 27.9948H6.76537C5.95535 27.9948 5.5 27.5483 5.5 26.9974Z" fill="white"/>
<path d="M34.75 28.5C34.75 32.7802 31.2802 36.25 27 36.25C22.7198 36.25 19.25 32.7802 19.25 28.5C19.25 24.2198 22.7198 20.75 27 20.75C31.2802 20.75 34.75 24.2198 34.75 28.5Z" fill="#FC586B" fill-opacity="0.4" stroke="white" stroke-width="1.5"/>
<path d="M25.5 25.7261C25.5 25.3251 25.8251 25 26.2261 25H26.5166C26.9176 25 27.2427 25.3251 27.2427 25.7261V28.4855H25.5V25.7261Z" fill="white"/>
<path d="M26.2261 30.2282C25.8251 30.2282 25.5 29.9031 25.5 29.5021V28.4855H29.1307C29.5317 28.4855 29.8568 28.8106 29.8568 29.2116V29.5021C29.8568 29.9031 29.5317 30.2282 29.1307 30.2282H26.2261Z" fill="white"/>
<defs>
<linearGradient id="paint0_linear_311_3" x1="13.6477" y1="0.5" x2="13.6477" y2="35.5" gradientUnits="userSpaceOnUse">
<stop stop-color="#FC586B"/>
<stop offset="1" stop-color="#EE181C"/>
</linearGradient>
</defs>
</svg>
