<svg width="36" height="28" viewBox="0 0 36 28" fill="none" xmlns="http://www.w3.org/2000/svg">
<g clip-path="url(#clip0_3059_4517)">
<path fill-rule="evenodd" clip-rule="evenodd" d="M23.25 9.625C23.25 14.9406 18.1586 19.25 11.875 19.25C9.78593 19.25 7.83358 18.7742 6.15468 17.943C5.74452 18.1617 5.27421 18.375 4.77108 18.5664C3.7703 18.9437 2.56718 19.25 1.37499 19.25C0.997644 19.25 0.664051 18.9984 0.543738 18.643C0.423426 18.2875 0.554676 17.8937 0.855457 17.6695L0.866394 17.6586C0.877332 17.6531 0.899207 17.6367 0.926551 17.6148C0.981238 17.5711 1.06327 17.5 1.16171 17.4125C1.35858 17.232 1.62655 16.9695 1.88905 16.6305C2.18983 16.2477 2.47421 15.7937 2.66561 15.2797C1.30389 13.6883 0.499988 11.7359 0.499988 9.625C0.499988 4.30938 5.5914 0 11.875 0C18.1586 0 23.25 4.30938 23.25 9.625Z" fill="url(#paint0_linear_3059_4517)"/>
<path d="M25 9.625C25 15.7664 19.5805 20.393 13.1601 20.9453C14.4891 25.0141 18.8969 28 24.125 28C26.2141 28 28.1664 27.5242 29.8508 26.693C30.2609 26.9117 30.7258 27.125 31.2289 27.3164C32.2297 27.6937 33.4328 28 34.625 28C35.0023 28 35.3414 27.7539 35.4562 27.393C35.5711 27.032 35.4453 26.6383 35.1391 26.4141L35.1281 26.4031C35.1172 26.3922 35.0953 26.3812 35.068 26.3594C35.0133 26.3156 34.9312 26.25 34.8328 26.157C34.6359 25.9766 34.368 25.7141 34.1055 25.375C33.8047 24.9922 33.5203 24.5328 33.3289 24.0242C34.6906 22.4383 35.4945 20.4859 35.4945 18.3695C35.4945 13.2945 30.8516 9.13281 24.9617 8.77187C24.9836 9.05078 24.9945 9.33516 24.9945 9.61953L25 9.625Z" fill="#9CACCC" fill-opacity="0.4"/>
</g>
<defs>
<linearGradient id="paint0_linear_3059_4517" x1="17.9988" y1="0" x2="17.9988" y2="28" gradientUnits="userSpaceOnUse">
<stop stop-color="#9CACCC"/>
<stop offset="1" stop-color="#7487A6"/>
</linearGradient>
<clipPath id="clip0_3059_4517">
<rect width="35" height="28" fill="white" transform="translate(0.5)"/>
</clipPath>
</defs>
</svg>
