<svg width="20" height="12" viewBox="0 0 20 12" fill="none" xmlns="http://www.w3.org/2000/svg">
<path d="M8.63774 10.608L3.20172 4.20932C2.28394 3.1291 2.42824 1.50306 3.52208 0.596701C4.61592 -0.309663 6.26247 -0.167153 7.18026 0.913072L12.6163 7.31176C13.5341 8.39201 13.3898 10.018 12.2959 10.9244C11.2021 11.8307 9.55553 11.6883 8.63774 10.608Z" fill="url(#paint0_radial_679_662)"/>
<path d="M14.5154 3.09775L13.1676 9.47222C12.8761 10.8531 11.4922 11.7467 10.0939 11.4588C8.69554 11.1709 7.79074 9.80426 8.08221 8.42334L9.43004 2.04887C9.72155 0.667955 11.1055 -0.225584 12.5038 0.0622865C13.9036 0.351582 14.8084 1.71683 14.5154 3.09775Z" fill="url(#paint1_radial_679_662)"/>
<path d="M15.4172 10.608L9.98123 4.20932C9.06343 3.1291 9.20774 1.50306 10.3016 0.596701C11.3954 -0.309663 13.042 -0.167153 13.9598 0.913072L19.3958 7.31176C20.3136 8.39201 20.1692 10.018 19.0754 10.9244C17.983 11.8307 16.3365 11.6883 15.4172 10.608Z" fill="url(#paint2_radial_679_662)"/>
<path d="M5.18452 8.74867C5.31006 10.3291 3.98533 11.6374 2.38497 11.5134C1.12662 11.415 0.10782 10.4089 0.00824903 9.1648C-0.117298 7.58438 1.20744 6.27612 2.80779 6.40009C4.06614 6.49843 5.08638 7.50598 5.18452 8.74867Z" fill="url(#paint3_radial_679_662)"/>
<defs>
<radialGradient id="paint0_radial_679_662" cx="0" cy="0" r="1" gradientUnits="userSpaceOnUse" gradientTransform="translate(9.18316 3.30153) scale(5.16784 5.10353)">
<stop stop-color="#9E0B0F"/>
<stop offset="0.1599" stop-color="#B91319"/>
<stop offset="0.3231" stop-color="#CE181F"/>
<stop offset="0.4857" stop-color="#DE1A22"/>
<stop offset="0.6456" stop-color="#E81C23"/>
<stop offset="0.8" stop-color="#ED1C24"/>
</radialGradient>
<radialGradient id="paint1_radial_679_662" cx="0" cy="0" r="1" gradientUnits="userSpaceOnUse" gradientTransform="translate(13.8094 6.3226) rotate(0.790106) scale(5.18439 5.11988)">
<stop offset="0.3" stop-color="#9E0B0F"/>
<stop offset="0.4399" stop-color="#B91319"/>
<stop offset="0.5827" stop-color="#CE181F"/>
<stop offset="0.7249" stop-color="#DE1A22"/>
<stop offset="0.8649" stop-color="#E81C23"/>
<stop offset="1" stop-color="#ED1C24"/>
</radialGradient>
<radialGradient id="paint2_radial_679_662" cx="0" cy="0" r="1" gradientUnits="userSpaceOnUse" gradientTransform="translate(10.2619 0.615415) scale(11.0614 10.9237)">
<stop offset="0.35" stop-color="#ED1C24"/>
<stop offset="1" stop-color="#F37021"/>
</radialGradient>
<radialGradient id="paint3_radial_679_662" cx="0" cy="0" r="1" gradientUnits="userSpaceOnUse" gradientTransform="translate(1.65541 9.86333) scale(3.88124 3.83292)">
<stop offset="0.3" stop-color="#ED1C24"/>
<stop offset="1" stop-color="#9E0B0F"/>
</radialGradient>
</defs>
</svg>
