<svg width="32" height="32" viewBox="0 0 32 32" fill="none" xmlns="http://www.w3.org/2000/svg">
<path d="M0.140219 17.9723C0.496124 20.6293 1.51923 23.1529 3.11408 25.3077C4.70894 27.4624 6.82359 29.1781 9.26076 30.2947C11.6979 31.4113 14.3782 31.8924 17.0516 31.6931C19.7249 31.4938 22.3043 30.6207 24.549 29.1551L30.6646 31.2342C30.8491 31.295 31.0472 31.3017 31.2353 31.2535C31.4235 31.2053 31.5939 31.1042 31.7265 30.9622C31.859 30.8202 31.9481 30.6432 31.9832 30.4521C32.0184 30.2611 31.998 30.064 31.9247 29.8841L29.4721 24.0339C30.7765 21.8609 31.5414 19.4071 31.7028 16.8778C31.8641 14.3484 31.4173 11.8173 30.3996 9.49611C29.3819 7.17495 27.823 5.13133 25.8534 3.53631C23.8838 1.94129 21.5608 0.84128 19.0788 0.328352C16.5968 -0.184576 14.028 -0.0954985 11.5875 0.58813C9.14697 1.27176 6.90572 2.53005 5.05132 4.25767C3.19693 5.9853 1.78336 8.13199 0.928915 10.5181C0.0744747 12.9042 -0.19597 15.4602 0.140219 17.9723V17.9723Z" fill="url(#paint0_linear_631_6)"/>
<path d="M15.4519 23.9864C17.175 23.9864 18.4023 22.8062 18.4023 21.154C18.4023 19.5018 17.175 18.3216 15.4519 18.3216C13.7525 18.3216 12.5015 19.5018 12.5015 21.154C12.5015 22.8062 13.7525 23.9864 15.4519 23.9864ZM17.8123 17.8496C17.8123 16.2917 18.7092 15.7253 19.9365 15.1588C21.5652 14.4035 22.7689 12.8693 22.7689 10.981C22.7689 8.00702 19.8421 5.92993 15.8768 5.92993C11.6282 5.92993 8.63061 8.31386 8.37097 11.6419L13.7997 12.6332C13.9413 11.3351 14.6258 10.4145 15.5936 10.4145C16.3253 10.4145 16.8681 10.9102 16.8681 11.5947C16.8681 12.3972 16.0656 12.8929 15.4283 13.2705C13.7289 14.3799 13.0916 15.6073 13.0916 17.8496H17.8123Z" fill="white"/>
<defs>
<linearGradient id="paint0_linear_631_6" x1="0.152999" y1="2.1353" x2="31.7728" y2="32.1041" gradientUnits="userSpaceOnUse">
<stop stop-color="#FF698D"/>
<stop offset="1" stop-color="#FF3868"/>
</linearGradient>
</defs>
</svg>
