<svg width="273" height="246" viewBox="0 0 273 246" fill="none" xmlns="http://www.w3.org/2000/svg">
<g id="No Results">
<g id="circle">
<path id="Stroke 1" d="M13.4011 111.801V114.361" stroke="#D2D8DF" stroke-width="1.5" stroke-linecap="round"/>
<g id="Group 8">
<path id="Stroke 2" d="M7.65015 113.187L9.74229 115.341" stroke="#D2D8DF" stroke-width="1.5" stroke-linecap="round"/>
<path id="Stroke 4" d="M5.20312 118.92H8.16139" stroke="#D2D8DF" stroke-width="1.5" stroke-linecap="round"/>
<path id="Stroke 6" d="M7.40991 124.756L9.50206 122.602" stroke="#D2D8DF" stroke-width="1.5" stroke-linecap="round"/>
</g>
<path id="Stroke 9" d="M13.4011 125.456V122.895" stroke="#D2D8DF" stroke-width="1.5" stroke-linecap="round"/>
<path id="Stroke 10" d="M18.91 124.707L17.2031 123" stroke="#D2D8DF" stroke-width="1.5" stroke-linecap="round"/>
<path id="Stroke 11" d="M21.0818 119.481H18.5215" stroke="#D2D8DF" stroke-width="1.5" stroke-linecap="round"/>
<path id="Stroke 12" d="M19.3751 113.507L17.6682 115.214" stroke="#D2D8DF" stroke-width="1.5" stroke-linecap="round"/>
<path id="Stroke 13" d="M150.804 0V1.70688" stroke="#D2D8DF" stroke-width="1.5" stroke-linecap="round"/>
<path id="Stroke 15" d="M145.684 5.12054H147.391" stroke="#D2D8DF" stroke-width="1.5" stroke-linecap="round"/>
<path id="Stroke 16" d="M150.804 10.2412V8.53436" stroke="#D2D8DF" stroke-width="1.5" stroke-linecap="round"/>
<path id="Stroke 17" d="M155.072 5.12054H153.365" stroke="#D2D8DF" stroke-width="1.5" stroke-linecap="round"/>
<path id="Stroke 18" d="M51.8057 71.6889V74.2492" stroke="#D2D8DF" stroke-width="1.5" stroke-linecap="round"/>
<path id="Stroke 19" d="M44.1248 79.3698H46.6851" stroke="#D2D8DF" stroke-width="1.5" stroke-linecap="round"/>
<path id="Stroke 20" d="M51.8057 86.1974V83.6371" stroke="#D2D8DF" stroke-width="1.5" stroke-linecap="round"/>
<path id="Stroke 21" d="M58.6331 79.3698H56.0728" stroke="#D2D8DF" stroke-width="1.5" stroke-linecap="round"/>
<g id="Group 42">
<path id="Stroke 22" d="M235.512 164.747C237.551 164.747 239.205 166.402 239.205 168.442C239.205 170.483 237.551 172.136 235.512 172.136C233.472 172.136 231.818 170.483 231.818 168.442" stroke="#D2D8DF" stroke-width="1.5" stroke-linecap="round"/>
<path id="Fill 26" fill-rule="evenodd" clip-rule="evenodd" d="M252.415 131.228C254.608 130.544 257.97 127.861 258.748 124.976C259.454 127.527 262.412 130.544 265.082 130.772C262.077 131.836 259.204 134.996 258.748 137.479C258.438 134.948 254.465 131.597 252.415 131.228Z" fill="#EBECEE"/>
<path id="Fill 28" fill-rule="evenodd" clip-rule="evenodd" d="M27.2878 163.609C28.3848 163.267 30.065 161.926 30.4541 160.483C30.8069 161.758 32.2857 163.267 33.6203 163.382C32.1183 163.913 30.6823 165.493 30.4541 166.735C30.299 165.469 28.3123 163.793 27.2878 163.609Z" fill="#EBECEE"/>
<path id="Fill 30" fill-rule="evenodd" clip-rule="evenodd" d="M47.6439 44.8885C47.6439 46.4712 46.3615 47.7533 44.7799 47.7533C43.1975 47.7533 41.9158 46.4712 41.9158 44.8885C41.9158 43.3064 43.1975 42.0236 44.7799 42.0236C46.3615 42.0236 47.6439 43.3064 47.6439 44.8885Z" fill="#D1D8DF"/>
<path id="Fill 32" fill-rule="evenodd" clip-rule="evenodd" d="M238.895 52.581C238.895 55.2255 236.751 57.3692 234.108 57.3692C231.464 57.3692 229.321 55.2255 229.321 52.581C229.321 49.9365 231.464 47.7927 234.108 47.7927C236.751 47.7927 238.895 49.9365 238.895 52.581Z" fill="#EBECEE"/>
<path id="Fill 34" fill-rule="evenodd" clip-rule="evenodd" d="M270.797 30.7983C270.797 32.8964 269.097 34.5966 267 34.5966C264.903 34.5966 263.203 32.8964 263.203 30.7983C263.203 28.7002 264.903 27 267 27C269.097 27 270.797 28.7002 270.797 30.7983Z" fill="#EBECEE"/>
<path id="Stroke 36" fill-rule="evenodd" clip-rule="evenodd" d="M101.172 217.002C101.172 218.325 100.1 219.396 98.7777 219.396C97.4561 219.396 96.3845 218.325 96.3845 217.002C96.3845 215.679 97.4561 214.607 98.7777 214.607C100.1 214.607 101.172 215.679 101.172 217.002Z" stroke="#D2D8DF" stroke-width="1.5" stroke-linecap="round"/>
<path id="Stroke 38" fill-rule="evenodd" clip-rule="evenodd" d="M99.747 26.4836C99.747 28.0664 98.4645 29.3484 96.8829 29.3484C95.3012 29.3484 94.0188 28.0664 94.0188 26.4836C94.0188 24.9015 95.3012 23.6188 96.8829 23.6188C98.4645 23.6188 99.747 24.9015 99.747 26.4836Z" stroke="#D2D8DF" stroke-width="1.5" stroke-linecap="round"/>
<path id="Stroke 40" fill-rule="evenodd" clip-rule="evenodd" d="M172.804 243.517C170.974 244.214 168.925 243.294 168.229 241.464C167.533 239.633 168.451 237.584 170.282 236.888C172.112 236.192 174.16 237.111 174.856 238.941C175.553 240.772 174.634 242.821 172.804 243.517Z" stroke="#D2D8DF" stroke-width="1.5" stroke-linecap="round"/>
</g>
</g>
<g id="search">
<g id="documents">
<path id="Fill 1" fill-rule="evenodd" clip-rule="evenodd" d="M171.713 175.808H101.727C96.8014 175.808 92.7693 171.764 92.7693 166.822V67.0184C92.7693 62.0759 96.8014 58.0338 101.727 58.0338H171.713C176.641 58.0338 180.673 62.0759 180.673 67.0184V166.822C180.673 171.764 176.641 175.808 171.713 175.808Z" fill="#E0E2EE"/>
<path id="Fill 3" fill-rule="evenodd" clip-rule="evenodd" d="M165.739 180.076H95.753C90.8271 180.076 86.7949 176.032 86.7949 171.089V71.2857C86.7949 66.3431 90.8271 62.3011 95.753 62.3011H165.739C170.667 62.3011 174.699 66.3431 174.699 71.2857V171.089C174.699 176.032 170.667 180.076 165.739 180.076Z" fill="#E8EBF2"/>
<path id="Fill 5" fill-rule="evenodd" clip-rule="evenodd" d="M159.928 183.444H89.7972C84.861 183.444 80.8206 179.417 80.8206 174.495V75.1048C80.8206 70.1828 84.861 66.1575 89.7972 66.1575H159.928C164.866 66.1575 168.906 70.1828 168.906 75.1048V174.495C168.906 179.417 164.866 183.444 159.928 183.444Z" fill="#D8DBEA"/>
<path id="Fill 8" fill-rule="evenodd" clip-rule="evenodd" d="M159.928 183.444H89.7972C84.861 183.444 80.8206 179.417 80.8206 174.495V75.1048C80.8206 70.1828 84.861 66.1575 89.7972 66.1575H159.928C164.866 66.1575 168.906 70.1828 168.906 75.1048V174.495C168.906 179.417 164.866 183.444 159.928 183.444Z" fill="#F1F2F7"/>
<path id="Fill 11" fill-rule="evenodd" clip-rule="evenodd" d="M149.819 96.4386H98.0193C96.54 96.4386 95.3291 95.2866 95.3291 93.8793C95.3291 92.47 96.54 91.318 98.0193 91.318H149.819C151.299 91.318 152.51 92.47 152.51 93.8793C152.51 95.2866 151.299 96.4386 149.819 96.4386Z" fill="#E0E2EE"/>
<path id="Fill 13" fill-rule="evenodd" clip-rule="evenodd" d="M149.819 111.8H98.0193C96.54 111.8 95.3291 110.648 95.3291 109.241C95.3291 107.832 96.54 106.68 98.0193 106.68H149.819C151.299 106.68 152.51 107.832 152.51 109.241C152.51 110.648 151.299 111.8 149.819 111.8Z" fill="#E0E2EE"/>
<path id="Fill 15" fill-rule="evenodd" clip-rule="evenodd" d="M149.819 127.162H98.0193C96.54 127.162 95.3291 126.01 95.3291 124.603C95.3291 123.196 96.54 122.042 98.0193 122.042H149.819C151.299 122.042 152.51 123.196 152.51 124.603C152.51 126.01 151.299 127.162 149.819 127.162Z" fill="#E0E2EE"/>
<path id="Fill 17" fill-rule="evenodd" clip-rule="evenodd" d="M149.819 142.524H98.0193C96.54 142.524 95.3291 141.372 95.3291 139.965C95.3291 138.556 96.54 137.404 98.0193 137.404H149.819C151.299 137.404 152.51 138.556 152.51 139.965C152.51 141.372 151.299 142.524 149.819 142.524Z" fill="#E0E2EE"/>
<path id="Fill 19" fill-rule="evenodd" clip-rule="evenodd" d="M125.058 157.886H98.0308C96.5452 157.886 95.3291 156.734 95.3291 155.327C95.3291 153.918 96.5452 152.766 98.0308 152.766H125.058C126.544 152.766 127.76 153.918 127.76 155.327C127.76 156.734 126.544 157.886 125.058 157.886Z" fill="#E0E2EE"/>
</g>
<g id="search_2">
<path id="Fill 21" fill-rule="evenodd" clip-rule="evenodd" d="M179.61 138.032C169.253 148.389 153.217 149.557 141.576 141.561C140.088 140.521 138.672 139.353 137.351 138.032C136.671 137.355 136.031 136.656 135.427 135.919C134.219 134.449 133.162 132.881 132.295 131.261C130.768 128.525 129.73 125.622 129.163 122.621C127.334 113.209 130.069 103.079 137.351 95.7999C144.651 88.4991 154.783 85.7825 164.196 87.5936C167.196 88.1777 170.102 89.2157 172.838 90.725C174.461 91.611 176.007 92.6685 177.48 93.8759C178.214 94.4774 178.913 95.1202 179.591 95.7999C180.914 97.1202 182.1 98.5339 183.12 100.024C191.12 111.661 189.949 127.696 179.61 138.032Z" fill="white" fill-opacity="0.1"/>
<path id="Fill 23" fill-rule="evenodd" clip-rule="evenodd" d="M176.712 135.993C165.936 146.771 148.473 146.769 137.695 135.993C126.931 125.229 126.931 107.763 137.709 96.9873C148.473 86.2233 165.936 86.2233 176.7 96.9873C187.476 107.763 187.476 125.229 176.712 135.993ZM182.242 91.4507C168.41 77.6187 145.996 77.6187 132.164 91.4507C118.334 105.281 118.322 127.709 132.152 141.541C144.741 154.126 164.472 155.261 178.35 144.928C179.706 143.917 181.011 142.784 182.256 141.541C183.5 140.296 184.633 138.99 185.641 137.635C195.974 123.755 194.829 104.037 182.242 91.4507Z" fill="#E0E2EE"/>
<path id="Fill 25" fill-rule="evenodd" clip-rule="evenodd" d="M236.678 193.681L236.097 194.262C232.255 198.105 225.964 198.105 222.12 194.262L186.647 158.789L201.205 144.231L236.678 179.704C240.522 183.548 240.522 189.837 236.678 193.681Z" fill="url(#paint0_linear_872_2656)"/>
<path id="Fill 27" fill-rule="evenodd" clip-rule="evenodd" d="M186.406 136.55L196.889 147.033L189.447 154.472L178.967 143.99C180.35 142.959 181.68 141.803 182.952 140.534C184.221 139.265 185.377 137.933 186.406 136.55Z" fill="#E0E2EE"/>
<path id="Fill 29" fill-rule="evenodd" clip-rule="evenodd" d="M236.146 179.268L221.682 193.731L219.078 191.125L233.54 176.662L236.146 179.268Z" fill="url(#paint1_linear_872_2656)"/>
<path id="Fill 31" fill-rule="evenodd" clip-rule="evenodd" d="M202.009 144.732L187.148 159.593L184.94 157.385L199.801 142.524L202.009 144.732Z" fill="url(#paint2_linear_872_2656)"/>
<path id="Fill 33" fill-rule="evenodd" clip-rule="evenodd" d="M169.579 93.2797L133.134 129.723C131.761 127.263 130.828 124.653 130.321 121.955L161.81 90.4645C164.506 90.9917 167.119 91.9229 169.579 93.2797Z" fill="white" fill-opacity="0.5"/>
<path id="Fill 35" fill-rule="evenodd" clip-rule="evenodd" d="M181.526 101.942L142.126 139.11C140.715 138.182 139.372 137.136 138.119 135.955C137.474 135.346 136.865 134.723 136.294 134.064L176.175 96.4385C176.873 96.9788 177.537 97.554 178.179 98.1622C179.432 99.3437 180.558 100.609 181.526 101.942Z" fill="white" fill-opacity="0.5"/>
</g>
</g>
</g>
<defs>
<linearGradient id="paint0_linear_872_2656" x1="213.104" y1="117.775" x2="160.191" y2="170.688" gradientUnits="userSpaceOnUse">
<stop stop-color="#70A8FF"/>
<stop offset="0.0001" stop-color="#70A8FF"/>
<stop offset="1" stop-color="#5597FD"/>
</linearGradient>
<linearGradient id="paint1_linear_872_2656" x1="227.612" y1="176.662" x2="227.612" y2="193.731" gradientUnits="userSpaceOnUse">
<stop stop-color="#2A64BE"/>
<stop offset="1" stop-color="#6095E7"/>
</linearGradient>
<linearGradient id="paint2_linear_872_2656" x1="193.475" y1="133.99" x2="176.406" y2="151.059" gradientUnits="userSpaceOnUse">
<stop stop-color="#70A8FF"/>
<stop offset="1" stop-color="#5597FD"/>
</linearGradient>
</defs>
</svg>
