<svg width="30" height="30" viewBox="0 0 30 30" fill="none" xmlns="http://www.w3.org/2000/svg">
<path d="M29.8889 24.4783C29.9183 27.5192 27.4614 30 24.4204 30H5.46876C2.42602 30 -0.0316084 27.5165 0.000307372 24.4739L0.0204647 22.5523C1.27046 13.3014 7.98921 9.61672 11.0361 7.5H18.9267C23.458 10.7927 28.6923 14.1638 29.8642 21.9251L29.8889 24.4783Z" fill="url(#paint0_linear_3043_1924)"/>
<path d="M10.2548 6.40625C10.2548 5.88848 10.6746 5.46875 11.1923 5.46875H18.8486C19.3664 5.46875 19.7861 5.88848 19.7861 6.40625V6.5625C19.7861 7.08027 19.3664 7.5 18.8486 7.5H11.1923C10.6746 7.5 10.2548 7.08027 10.2548 6.5625V6.40625Z" fill="#9CACCC" fill-opacity="0.4"/>
<path d="M8.35099 1.19701C8.02396 0.676732 8.39791 0 9.01243 0H21.0114C21.6295 0 22.0028 0.683786 21.6685 1.20372L18.9267 5.46875H11.0361L8.35099 1.19701Z" fill="url(#paint1_linear_3043_1924)"/>
<path d="M14.2411 23.544C14.2411 23.0609 14.6451 22.6692 15.1434 22.6692C15.6418 22.6692 16.0458 23.0609 16.0458 23.544V24.5939C16.0458 25.077 15.6418 25.4687 15.1434 25.4687C14.6451 25.4687 14.2411 25.077 14.2411 24.5939V23.544Z" fill="white"/>
<path d="M14.2411 12.906C14.2411 12.4229 14.6451 12.0312 15.1434 12.0312C15.6418 12.0312 16.0458 12.4229 16.0458 12.906V13.6759C16.0458 14.159 15.6418 14.5507 15.1434 14.5507C14.6451 14.5507 14.2411 14.159 14.2411 13.6759V12.906Z" fill="white"/>
<path d="M19.1611 20.8188C19.1611 21.3451 19.0341 21.7986 18.78 22.1793C18.5374 22.5488 18.1332 22.8904 17.5673 23.2039C17.1861 23.4279 16.7414 23.5958 16.2332 23.7078C15.725 23.8198 15.2111 23.8758 14.6913 23.8758C14.16 23.8758 13.5017 23.7078 12.7163 23.3719C12.1504 23.1031 11.6999 22.784 11.365 22.4145C11.0416 22.0449 10.8799 21.6418 10.8799 21.2051C10.8799 20.9027 10.9492 20.6844 11.0878 20.55C11.2264 20.4044 11.4516 20.3316 11.7634 20.3316C11.9251 20.3316 12.0926 20.3988 12.2659 20.5332C12.4391 20.6564 12.5431 20.7796 12.5777 20.9027C12.7394 21.3619 13.0224 21.7146 13.4266 21.9609C13.8309 22.1961 14.3333 22.3137 14.9339 22.3137C15.6269 22.3137 16.2044 22.1905 16.6664 21.9441C17.1399 21.6978 17.3767 21.3675 17.3767 20.9531C17.3767 20.55 17.1226 20.1917 16.6144 19.8781C16.1062 19.5646 15.5865 19.3462 15.0552 19.2231C14.2929 19.0215 13.6172 18.7807 13.0282 18.5008C12.416 18.2096 11.9598 17.8513 11.6595 17.4258C11.3592 17.0003 11.2091 16.5523 11.2091 16.082C11.2091 15.6453 11.365 15.203 11.6768 14.7551C11.9887 14.296 12.3583 13.9656 12.7856 13.7641C13.0166 13.6521 13.4093 13.5345 13.9637 13.4113C14.5296 13.277 14.9397 13.2098 15.1938 13.2098C15.5287 13.2098 15.8983 13.249 16.3025 13.3273C16.7068 13.4057 17.036 13.5177 17.2901 13.6633C17.7982 13.9432 18.1736 14.1952 18.4162 14.4191C18.6587 14.6431 18.78 14.9231 18.78 15.259C18.78 15.4606 18.6991 15.6397 18.5374 15.7965C18.3873 15.9533 18.1216 16.0316 17.7405 16.0316C17.6481 16.0316 17.5557 15.9925 17.4633 15.9141C17.3709 15.8357 17.2554 15.7181 17.1168 15.5613C16.932 15.3262 16.753 15.1694 16.5797 15.091C16.4065 15.035 16.1524 14.9734 15.8174 14.9063C15.4941 14.8391 15.2053 14.8055 14.9512 14.8055C14.674 14.8055 14.3853 14.8615 14.085 14.9734C13.7847 15.0854 13.5306 15.2478 13.3227 15.4606C13.1263 15.6621 13.0282 15.8973 13.0282 16.166C13.0282 16.39 13.1321 16.5859 13.34 16.7539C13.5595 16.9107 13.8193 17.0395 14.1196 17.1402C14.4661 17.2746 14.8415 17.3922 15.2457 17.493C15.777 17.6497 16.2101 17.7953 16.5451 17.9297C16.8916 18.0529 17.2265 18.2096 17.5499 18.4C18.1159 18.7247 18.5259 19.0607 18.78 19.4078C19.0341 19.7438 19.1611 20.2141 19.1611 20.8188Z" fill="white"/>
<defs>
<linearGradient id="paint0_linear_3043_1924" x1="14.9446" y1="0" x2="14.9446" y2="30" gradientUnits="userSpaceOnUse">
<stop stop-color="#9CACCC"/>
<stop offset="1" stop-color="#7487A6"/>
</linearGradient>
<linearGradient id="paint1_linear_3043_1924" x1="14.9446" y1="0" x2="14.9446" y2="30" gradientUnits="userSpaceOnUse">
<stop stop-color="#9CACCC"/>
<stop offset="1" stop-color="#7487A6"/>
</linearGradient>
</defs>
</svg>
