<svg width="36" height="30" viewBox="0 0 36 30" fill="none" xmlns="http://www.w3.org/2000/svg">
<path d="M0.5 12.5096C0.5 10.4661 2.15655 8.80957 4.2 8.80957H25.1667C27.2101 8.80957 28.8667 10.4661 28.8667 12.5096V24.4905C28.8667 26.534 27.2101 28.1905 25.1667 28.1905H4.2C2.15655 28.1905 0.5 26.534 0.5 24.4905V12.5096Z" fill="#9CACCC" fill-opacity="0.4"/>
<path d="M35.7381 20.2619C35.7381 25.6138 33.1614 29.9524 27.8095 29.9524C22.4576 29.9524 18.119 25.6138 18.119 20.2619C18.119 14.91 22.4576 10.5714 27.8095 10.5714C33.1614 10.5714 35.7381 14.91 35.7381 20.2619Z" fill="white"/>
<path d="M35.7381 20.2619C35.7381 24.6407 32.1883 28.1905 27.8095 28.1905C23.4307 28.1905 19.8809 24.6407 19.8809 20.2619C19.8809 15.8831 23.4307 12.3333 27.8095 12.3333C32.1883 12.3333 35.7381 15.8831 35.7381 20.2619Z" fill="url(#paint0_linear_3043_1786)"/>
<path d="M30.5105 18.4538C30.5105 19.8879 29.3215 21.0504 27.8548 21.0504C26.388 21.0504 25.199 19.8879 25.199 18.4538C25.199 17.0197 26.388 15.8571 27.8548 15.8571C29.3215 15.8571 30.5105 17.0197 30.5105 18.4538Z" fill="white"/>
<path d="M24.4502 25.4496C23.812 25.0833 23.4724 24.2664 23.9838 23.7373C24.7131 22.9826 26.2253 22.9047 26.7524 22.9047H29.1309C29.8357 22.9047 32.0381 23.044 32.0381 24.7547C32.0381 25.2833 29.6996 26.3405 29.1309 26.3405H26.7524C26.3758 26.3405 25.2622 25.9157 24.4502 25.4496Z" fill="white"/>
<path d="M3.14282 5.6381C3.14282 4.95694 3.695 4.40476 4.37616 4.40476H24.8143C25.4954 4.40476 26.0476 4.95694 26.0476 5.6381V5.81429C26.0476 6.49544 25.4954 7.04762 24.8143 7.04762H4.37616C3.69501 7.04762 3.14282 6.49544 3.14282 5.81429V5.6381Z" fill="#9CACCC" fill-opacity="0.4"/>
<path d="M5.78568 1.23333C5.78568 0.552182 6.33786 0 7.01901 0H22.1714C22.8525 0 23.4047 0.552182 23.4047 1.23333V1.40952C23.4047 2.09068 22.8525 2.64286 22.1714 2.64286H7.01901C6.33786 2.64286 5.78568 2.09068 5.78568 1.40952V1.23333Z" fill="#9CACCC" fill-opacity="0.4"/>
<defs>
<linearGradient id="paint0_linear_3043_1786" x1="26.9285" y1="10.5714" x2="26.9285" y2="29.9524" gradientUnits="userSpaceOnUse">
<stop stop-color="#9CACCC"/>
<stop offset="1" stop-color="#7487A6"/>
</linearGradient>
</defs>
</svg>
