<svg width="40" height="40" viewBox="0 0 40 40" fill="none" xmlns="http://www.w3.org/2000/svg">
<path d="M4 17.8334C4 15.9004 5.567 14.3334 7.5 14.3334H27.3333C29.2663 14.3334 30.8333 15.9004 30.8333 17.8334V29.1667C30.8333 31.0997 29.2663 32.6667 27.3333 32.6667H7.5C5.567 32.6667 4 31.0997 4 29.1667V17.8334Z" fill="#FC586B" fill-opacity="0.4"/>
<path d="M39 25.1667C39 30.2293 34.896 34.3333 29.8334 34.3333C24.7707 34.3333 20.6667 30.2293 20.6667 25.1667C20.6667 20.1041 24.7707 16 29.8334 16C34.896 16 39 20.1041 39 25.1667Z" fill="white"/>
<path d="M37.3334 25.1667C37.3334 29.3088 33.9755 32.6667 29.8334 32.6667C25.6912 32.6667 22.3334 29.3088 22.3334 25.1667C22.3334 21.0245 25.6912 17.6667 29.8334 17.6667C33.9755 17.6667 37.3334 21.0245 37.3334 25.1667Z" fill="url(#paint0_linear_2808_1496)"/>
<path d="M32.3884 23.4563C32.3884 24.8129 31.2636 25.9126 29.8762 25.9126C28.4887 25.9126 27.3639 24.8129 27.3639 23.4563C27.3639 22.0997 28.4887 21 29.8762 21C31.2636 21 32.3884 22.0997 32.3884 23.4563Z" fill="white"/>
<path d="M26.6557 30.074C26.0519 29.7275 25.7307 28.9547 26.2144 28.4542C26.9043 27.7403 28.3348 27.6667 28.8334 27.6667H31.0834C31.75 27.6667 33.8334 27.7984 33.8334 29.4167C33.8334 29.9167 31.6213 30.9167 31.0834 30.9167H28.8334C28.4772 30.9167 27.4237 30.5148 26.6557 30.074Z" fill="white"/>
<path d="M6.5 11.3333C6.5 10.689 7.02233 10.1667 7.66667 10.1667H27C27.6443 10.1667 28.1667 10.689 28.1667 11.3333V11.5C28.1667 12.1443 27.6443 12.6667 27 12.6667H7.66667C7.02234 12.6667 6.5 12.1443 6.5 11.5V11.3333Z" fill="#FC586B" fill-opacity="0.4"/>
<path d="M9 7.16667C9 6.52233 9.52233 6 10.1667 6H24.5C25.1443 6 25.6667 6.52233 25.6667 7.16667V7.33333C25.6667 7.97767 25.1443 8.5 24.5 8.5H10.1667C9.52233 8.5 9 7.97767 9 7.33333V7.16667Z" fill="#FC586B" fill-opacity="0.4"/>
<defs>
<linearGradient id="paint0_linear_2808_1496" x1="29.8334" y1="16" x2="29.8334" y2="34.3333" gradientUnits="userSpaceOnUse">
<stop stop-color="#FC586B"/>
<stop offset="1" stop-color="#EE181C"/>
</linearGradient>
</defs>
</svg>
