<svg width="36" height="31" viewBox="0 0 36 31" fill="none" xmlns="http://www.w3.org/2000/svg">
<path d="M20.9691 13.4784C20.9821 13.5014 21.001 13.5206 21.0238 13.5339C21.0466 13.5472 21.0725 13.5543 21.0989 13.5544H25.6455C25.6721 13.5541 25.6981 13.5468 25.721 13.5333C25.7439 13.5198 25.7628 13.5005 25.776 13.4774C25.7891 13.4543 25.7959 13.4282 25.7958 13.4016C25.7957 13.3751 25.7887 13.349 25.7754 13.326L18.2131 0.0761894C18.2001 0.0531789 18.1812 0.0340271 18.1584 0.0206855C18.1355 0.00734402 18.1096 0.000289795 18.0832 0.000241501H13.5367C13.5101 0.000558133 13.4841 0.00782689 13.4612 0.0213244C13.4383 0.034822 13.4194 0.0540778 13.4062 0.0771759C13.3931 0.100274 13.3862 0.126409 13.3863 0.152981C13.3864 0.179553 13.3935 0.205635 13.4068 0.228632L20.9691 13.4784Z" fill="url(#paint0_linear_3065_2772)"/>
<path d="M25.5208 17.2896H20.9743C20.9479 17.2897 20.9219 17.2967 20.8991 17.3101C20.8763 17.3234 20.8574 17.3426 20.8444 17.3656L13.4069 30.3971C13.3936 30.4201 13.3865 30.4462 13.3864 30.4728C13.3863 30.4993 13.3932 30.5255 13.4063 30.5486C13.4194 30.5717 13.4384 30.5909 13.4613 30.6044C13.4842 30.6179 13.5102 30.6252 13.5368 30.6255H18.0833C18.1097 30.6254 18.1357 30.6184 18.1585 30.605C18.1813 30.5917 18.2002 30.5726 18.2132 30.5495L25.6508 17.518C25.6641 17.495 25.6711 17.4689 25.6712 17.4424C25.6713 17.4158 25.6645 17.3896 25.6513 17.3665C25.6382 17.3434 25.6192 17.3242 25.5963 17.3107C25.5734 17.2972 25.5474 17.2899 25.5208 17.2896Z" fill="url(#paint1_linear_3065_2772)"/>
<path d="M18.2977 15.2362L9.4919 0.0754373C9.47862 0.0524483 9.45951 0.0333689 9.4365 0.0201241C9.41349 0.00687934 9.3874 -6.19862e-05 9.36085 4.17072e-07C9.3343 6.28203e-05 9.30824 0.00712675 9.28529 0.0204795C9.26234 0.0338323 9.24332 0.0530015 9.23015 0.0760528L0.52048 15.2368C0.507063 15.26 0.5 15.2864 0.5 15.3132C0.5 15.34 0.507063 15.3663 0.52048 15.3896L9.32633 30.5503C9.33961 30.5733 9.35872 30.5924 9.38174 30.6057C9.40475 30.6189 9.43086 30.6259 9.45742 30.6258C9.48398 30.6257 9.51006 30.6187 9.53301 30.6053C9.55596 30.5919 9.57499 30.5727 9.58815 30.5497L18.298 15.389C18.3114 15.3657 18.3183 15.3393 18.3183 15.3125C18.3182 15.2857 18.3111 15.2594 18.2977 15.2362Z" fill="url(#paint2_linear_3065_2772)"/>
<path d="M35.4798 15.2367L26.8117 0.0762577C26.7986 0.0531949 26.7796 0.0340146 26.7567 0.0206639C26.7337 0.00731315 26.7077 0.000267246 26.6811 0.000241501H22.1284C22.1018 0.000494043 22.0757 0.00771257 22.0528 0.0211776C22.0298 0.0346427 22.0108 0.0538839 21.9977 0.0769834C21.9845 0.100083 21.9776 0.126234 21.9776 0.15283C21.9777 0.179426 21.9848 0.205538 21.9981 0.228564L30.6229 15.3129L21.9979 30.3972C21.9846 30.4202 21.9775 30.4463 21.9774 30.4729C21.9774 30.4995 21.9843 30.5257 21.9974 30.5488C22.0106 30.5719 22.0296 30.5911 22.0526 30.6046C22.0755 30.618 22.1016 30.6252 22.1282 30.6255H26.6809C26.7074 30.6254 26.7334 30.6184 26.7563 30.605C26.7792 30.5917 26.7981 30.5725 26.8112 30.5495L35.4798 15.389C35.493 15.3658 35.5 15.3396 35.5 15.3129C35.5 15.2862 35.493 15.2599 35.4798 15.2367Z" fill="url(#paint3_linear_3065_2772)"/>
<defs>
<linearGradient id="paint0_linear_3065_2772" x1="1.57674" y1="3.64593" x2="36.9131" y2="18.9397" gradientUnits="userSpaceOnUse">
<stop stop-color="#FAB534"/>
<stop offset="1" stop-color="#F64F39"/>
</linearGradient>
<linearGradient id="paint1_linear_3065_2772" x1="1.57674" y1="3.64593" x2="36.9131" y2="18.9397" gradientUnits="userSpaceOnUse">
<stop stop-color="#FAB534"/>
<stop offset="1" stop-color="#F64F39"/>
</linearGradient>
<linearGradient id="paint2_linear_3065_2772" x1="1.57674" y1="3.64593" x2="36.9131" y2="18.9397" gradientUnits="userSpaceOnUse">
<stop stop-color="#FAB534"/>
<stop offset="1" stop-color="#F64F39"/>
</linearGradient>
<linearGradient id="paint3_linear_3065_2772" x1="1.57674" y1="3.64593" x2="36.9131" y2="18.9397" gradientUnits="userSpaceOnUse">
<stop stop-color="#FAB534"/>
<stop offset="1" stop-color="#F64F39"/>
</linearGradient>
</defs>
</svg>
