<svg width="27" height="35" viewBox="0 0 27 35" fill="none" xmlns="http://www.w3.org/2000/svg">
<g opacity="0.35">
<path d="M0 4.35233C0 1.94861 1.94861 0 4.35233 0H19.5855C20.8549 1.26943 24.3005 4.71503 26.2953 6.70984V30.6477C26.2953 33.0514 24.3467 35 21.943 35H4.35233C1.9486 35 0 33.0514 0 30.6477V4.35233Z" fill="#E92FED" fill-opacity="0.4"/>
<path d="M10.6995 20.2202C10.6995 19.6694 11.146 19.2228 11.6969 19.2228H20.5829C21.1338 19.2228 21.5803 19.6694 21.5803 20.2202C21.5803 20.7711 21.1338 21.2176 20.5829 21.2176H11.6969C11.146 21.2176 10.6995 20.7711 10.6995 20.2202Z" fill="white"/>
<path d="M10.6995 26.7487C10.6995 26.1978 11.146 25.7513 11.6969 25.7513H20.5829C21.1338 25.7513 21.5803 26.1978 21.5803 26.7487C21.5803 27.2995 21.1338 27.7461 20.5829 27.7461H11.6969C11.146 27.7461 10.6995 27.2995 10.6995 26.7487Z" fill="white"/>
<path d="M8.16062 20.2202C8.16062 21.1717 7.3893 21.943 6.43782 21.943C5.48635 21.943 4.71503 21.1717 4.71503 20.2202C4.71503 19.2687 5.48635 18.4974 6.43782 18.4974C7.3893 18.4974 8.16062 19.2687 8.16062 20.2202Z" fill="white"/>
<path d="M8.16062 26.7487C8.16062 27.7002 7.3893 28.4715 6.43782 28.4715C5.48635 28.4715 4.71503 27.7002 4.71503 26.7487C4.71503 25.7972 5.48635 25.0259 6.43782 25.0259C7.3893 25.0259 8.16062 25.7972 8.16062 26.7487Z" fill="white"/>
<path d="M19.5855 6.70984H26.2953L19.5855 0V6.70984Z" fill="#E92FED" fill-opacity="0.4"/>
<path d="M8.588 5.54C9.188 5.54 9.744 5.656 10.256 5.888C10.776 6.112 11.192 6.436 11.504 6.86C11.816 7.276 11.972 7.76 11.972 8.312C11.972 8.816 11.836 9.264 11.564 9.656C11.292 10.04 10.916 10.336 10.436 10.544C9.964 10.752 9.424 10.856 8.816 10.856C8.128 10.856 7.548 10.732 7.076 10.484L7.04 13.628C7.04 13.772 6.996 13.884 6.908 13.964C6.828 14.044 6.716 14.084 6.572 14.084C6.42 14.084 6.3 14.044 6.212 13.964C6.132 13.884 6.092 13.776 6.092 13.64C6.092 13.272 6.1 12.728 6.116 12.008C6.132 11.24 6.14 10.632 6.14 10.184C6.14 9.36 6.124 8.468 6.092 7.508C6.084 7.452 6.08 7.368 6.08 7.256L6.044 7.28C5.964 7.32 5.896 7.34 5.84 7.34C5.728 7.34 5.636 7.288 5.564 7.184C5.5 7.072 5.468 6.944 5.468 6.8C5.468 6.704 5.5 6.628 5.564 6.572C5.628 6.508 5.724 6.444 5.852 6.38L6.056 6.26V6.068C6.056 5.884 6.096 5.748 6.176 5.66C6.256 5.572 6.38 5.528 6.548 5.528C6.692 5.528 6.804 5.552 6.884 5.6C6.964 5.648 7.004 5.712 7.004 5.792V5.816C7.516 5.632 8.044 5.54 8.588 5.54ZM8.648 10.064C9.104 10.064 9.504 9.988 9.848 9.836C10.2 9.684 10.472 9.472 10.664 9.2C10.856 8.928 10.952 8.62 10.952 8.276C10.952 7.908 10.844 7.58 10.628 7.292C10.412 7.004 10.124 6.78 9.764 6.62C9.412 6.46 9.024 6.38 8.6 6.38C8.16 6.38 7.632 6.52 7.016 6.8C7.032 7.36 7.04 7.728 7.04 7.904C7.04 8.08 7.048 8.36 7.064 8.744C7.08 9.216 7.084 9.528 7.076 9.68C7.524 9.936 8.048 10.064 8.648 10.064ZM17.0039 13.904C16.2599 13.904 15.5839 13.76 14.9759 13.472C14.3679 13.176 13.8839 12.728 13.5239 12.128C13.1639 11.52 12.9839 10.772 12.9839 9.884C12.9839 9.044 13.1479 8.292 13.4759 7.628C13.8039 6.964 14.2679 6.448 14.8679 6.08C15.4679 5.704 16.1599 5.516 16.9439 5.516C17.7359 5.516 18.4559 5.708 19.1039 6.092C19.7519 6.468 20.2599 6.992 20.6279 7.664C21.0039 8.336 21.1919 9.096 21.1919 9.944C21.1919 10.8 20.9999 11.528 20.6159 12.128C20.2319 12.72 19.7199 13.164 19.0799 13.46C18.4479 13.756 17.7559 13.904 17.0039 13.904ZM17.0639 13.052C17.5999 13.052 18.1119 12.944 18.5999 12.728C19.0879 12.504 19.4879 12.156 19.7999 11.684C20.1119 11.204 20.2679 10.608 20.2679 9.896C20.2679 9.224 20.1279 8.62 19.8479 8.084C19.5679 7.548 19.1759 7.128 18.6719 6.824C18.1759 6.52 17.6159 6.368 16.9919 6.368C16.3839 6.368 15.8439 6.516 15.3719 6.812C14.9079 7.1 14.5439 7.504 14.2799 8.024C14.0239 8.544 13.8959 9.144 13.8959 9.824C13.8959 10.584 14.0519 11.208 14.3639 11.696C14.6759 12.176 15.0719 12.524 15.5519 12.74C16.0319 12.948 16.5359 13.052 17.0639 13.052Z" fill="white"/>
</g>
</svg>
