<svg width="27" height="36" viewBox="0 0 27 36" fill="none" xmlns="http://www.w3.org/2000/svg">
<path d="M0 4.85233C0 2.44861 1.94861 0.5 4.35233 0.5H19.5855C20.8549 1.76943 24.3005 5.21503 26.2953 7.20984V31.1477C26.2953 33.5514 24.3467 35.5 21.943 35.5H4.35233C1.9486 35.5 0 33.5514 0 31.1477V4.85233Z" fill="url(#paint0_linear_3043_2055)"/>
<path d="M10.6995 20.7202C10.6995 20.1694 11.146 19.7228 11.6969 19.7228H20.5829C21.1337 19.7228 21.5803 20.1694 21.5803 20.7202C21.5803 21.2711 21.1337 21.7176 20.5829 21.7176H11.6969C11.146 21.7176 10.6995 21.2711 10.6995 20.7202Z" fill="white"/>
<path d="M10.6995 27.2487C10.6995 26.6978 11.146 26.2513 11.6969 26.2513H20.5829C21.1337 26.2513 21.5803 26.6978 21.5803 27.2487C21.5803 27.7995 21.1337 28.2461 20.5829 28.2461H11.6969C11.146 28.2461 10.6995 27.7995 10.6995 27.2487Z" fill="white"/>
<path d="M8.16056 20.7202C8.16056 21.6717 7.38924 22.443 6.43776 22.443C5.48629 22.443 4.71497 21.6717 4.71497 20.7202C4.71497 19.7687 5.48629 18.9974 6.43776 18.9974C7.38924 18.9974 8.16056 19.7687 8.16056 20.7202Z" fill="white"/>
<path d="M8.16056 27.2487C8.16056 28.2002 7.38924 28.9715 6.43776 28.9715C5.48629 28.9715 4.71497 28.2002 4.71497 27.2487C4.71497 26.2972 5.48629 25.5259 6.43776 25.5259C7.38924 25.5259 8.16056 26.2972 8.16056 27.2487Z" fill="white"/>
<path d="M19.5854 7.20984H26.2953L19.5854 0.5V7.20984Z" fill="url(#paint1_linear_3043_2055)"/>
<path d="M8.588 6.04C9.188 6.04 9.744 6.156 10.256 6.388C10.776 6.612 11.192 6.936 11.504 7.36C11.816 7.776 11.972 8.26 11.972 8.812C11.972 9.316 11.836 9.764 11.564 10.156C11.292 10.54 10.916 10.836 10.436 11.044C9.964 11.252 9.424 11.356 8.816 11.356C8.128 11.356 7.548 11.232 7.076 10.984L7.04 14.128C7.04 14.272 6.996 14.384 6.908 14.464C6.828 14.544 6.716 14.584 6.572 14.584C6.42 14.584 6.3 14.544 6.212 14.464C6.132 14.384 6.092 14.276 6.092 14.14C6.092 13.772 6.1 13.228 6.116 12.508C6.132 11.74 6.14 11.132 6.14 10.684C6.14 9.86 6.124 8.968 6.092 8.008C6.084 7.952 6.08 7.868 6.08 7.756L6.044 7.78C5.964 7.82 5.896 7.84 5.84 7.84C5.728 7.84 5.636 7.788 5.564 7.684C5.5 7.572 5.468 7.444 5.468 7.3C5.468 7.204 5.5 7.128 5.564 7.072C5.628 7.008 5.724 6.944 5.852 6.88L6.056 6.76V6.568C6.056 6.384 6.096 6.248 6.176 6.16C6.256 6.072 6.38 6.028 6.548 6.028C6.692 6.028 6.804 6.052 6.884 6.1C6.964 6.148 7.004 6.212 7.004 6.292V6.316C7.516 6.132 8.044 6.04 8.588 6.04ZM8.648 10.564C9.104 10.564 9.504 10.488 9.848 10.336C10.2 10.184 10.472 9.972 10.664 9.7C10.856 9.428 10.952 9.12 10.952 8.776C10.952 8.408 10.844 8.08 10.628 7.792C10.412 7.504 10.124 7.28 9.764 7.12C9.412 6.96 9.024 6.88 8.6 6.88C8.16 6.88 7.632 7.02 7.016 7.3C7.032 7.86 7.04 8.228 7.04 8.404C7.04 8.58 7.048 8.86 7.064 9.244C7.08 9.716 7.084 10.028 7.076 10.18C7.524 10.436 8.048 10.564 8.648 10.564ZM17.0039 14.404C16.2599 14.404 15.5839 14.26 14.9759 13.972C14.3679 13.676 13.8839 13.228 13.5239 12.628C13.1639 12.02 12.9839 11.272 12.9839 10.384C12.9839 9.544 13.1479 8.792 13.4759 8.128C13.8039 7.464 14.2679 6.948 14.8679 6.58C15.4679 6.204 16.1599 6.016 16.9439 6.016C17.7359 6.016 18.4559 6.208 19.1039 6.592C19.7519 6.968 20.2599 7.492 20.6279 8.164C21.0039 8.836 21.1919 9.596 21.1919 10.444C21.1919 11.3 20.9999 12.028 20.6159 12.628C20.2319 13.22 19.7199 13.664 19.0799 13.96C18.4479 14.256 17.7559 14.404 17.0039 14.404ZM17.0639 13.552C17.5999 13.552 18.1119 13.444 18.5999 13.228C19.0879 13.004 19.4879 12.656 19.7999 12.184C20.1119 11.704 20.2679 11.108 20.2679 10.396C20.2679 9.724 20.1279 9.12 19.8479 8.584C19.5679 8.048 19.1759 7.628 18.6719 7.324C18.1759 7.02 17.6159 6.868 16.9919 6.868C16.3839 6.868 15.8439 7.016 15.3719 7.312C14.9079 7.6 14.5439 8.004 14.2799 8.524C14.0239 9.044 13.8959 9.644 13.8959 10.324C13.8959 11.084 14.0519 11.708 14.3639 12.196C14.6759 12.676 15.0719 13.024 15.5519 13.24C16.0319 13.448 16.5359 13.552 17.0639 13.552Z" fill="white"/>
<defs>
<linearGradient id="paint0_linear_3043_2055" x1="13.1477" y1="0.5" x2="13.1477" y2="35.5" gradientUnits="userSpaceOnUse">
<stop stop-color="#9CACCC"/>
<stop offset="1" stop-color="#7487A6"/>
</linearGradient>
<linearGradient id="paint1_linear_3043_2055" x1="22.9404" y1="0.5" x2="22.9404" y2="7.20984" gradientUnits="userSpaceOnUse">
<stop stop-color="#9CACCC"/>
<stop offset="1" stop-color="#7487A6"/>
</linearGradient>
</defs>
</svg>
