<svg width="27" height="35" viewBox="0 0 27 35" fill="none" xmlns="http://www.w3.org/2000/svg">
<g opacity="0.35">
<path d="M0 4.35233C0 1.94861 1.94861 0 4.35233 0H19.5855C20.8549 1.26943 24.3005 4.71503 26.2953 6.70984V30.6477C26.2953 33.0514 24.3467 35 21.943 35H4.35233C1.9486 35 0 33.0514 0 30.6477V4.35233Z" fill="#03D9C4" fill-opacity="0.4"/>
<path d="M10.6995 20.2202C10.6995 19.6694 11.146 19.2228 11.6969 19.2228H20.5829C21.1338 19.2228 21.5803 19.6694 21.5803 20.2202C21.5803 20.7711 21.1338 21.2176 20.5829 21.2176H11.6969C11.146 21.2176 10.6995 20.7711 10.6995 20.2202Z" fill="white"/>
<path d="M10.6995 26.7487C10.6995 26.1978 11.146 25.7513 11.6969 25.7513H20.5829C21.1338 25.7513 21.5803 26.1978 21.5803 26.7487C21.5803 27.2995 21.1338 27.7461 20.5829 27.7461H11.6969C11.146 27.7461 10.6995 27.2995 10.6995 26.7487Z" fill="white"/>
<path d="M8.16062 20.2202C8.16062 21.1717 7.3893 21.943 6.43782 21.943C5.48635 21.943 4.71503 21.1717 4.71503 20.2202C4.71503 19.2687 5.48635 18.4974 6.43782 18.4974C7.3893 18.4974 8.16062 19.2687 8.16062 20.2202Z" fill="white"/>
<path d="M8.16062 26.7487C8.16062 27.7002 7.3893 28.4715 6.43782 28.4715C5.48635 28.4715 4.71503 27.7002 4.71503 26.7487C4.71503 25.7972 5.48635 25.0259 6.43782 25.0259C7.3893 25.0259 8.16062 25.7972 8.16062 26.7487Z" fill="white"/>
<path d="M16.9813 13.0117C17.0914 13.1217 17.1464 13.2402 17.1464 13.3671C17.1464 13.5025 17.0956 13.621 16.994 13.7225C16.8925 13.8241 16.774 13.8749 16.6386 13.8749C16.4947 13.8749 16.3762 13.8283 16.2831 13.7352L15.585 13.0371C15.1957 13.3248 14.7598 13.5491 14.2774 13.7099C13.8035 13.8622 13.3042 13.9383 12.7795 13.9383C11.9671 13.9383 11.252 13.7564 10.6342 13.3925C10.0164 13.0286 9.53824 12.5251 9.19973 11.8819C8.86968 11.2302 8.70465 10.4897 8.70465 9.66037C8.70465 8.73792 8.90353 7.92971 9.30128 7.23576C9.69904 6.5418 10.2195 6.00864 10.8627 5.63628C11.5143 5.26391 12.204 5.07773 12.9319 5.07773C13.6766 5.07773 14.379 5.26814 15.0391 5.64897C15.7077 6.0298 16.2451 6.56296 16.6513 7.24845C17.066 7.92548 17.2733 8.69137 17.2733 9.54612C17.2733 10.6294 16.9517 11.5645 16.3085 12.3516L16.9813 13.0117ZM12.7922 13.0371C13.1815 13.0371 13.5539 12.9778 13.9093 12.8593C14.2648 12.7409 14.5906 12.5716 14.8868 12.3516L13.9474 11.4249C13.8543 11.3318 13.8078 11.2387 13.8078 11.1456C13.8078 11.0187 13.8712 10.9002 13.9982 10.7902C14.1336 10.6717 14.2648 10.6124 14.3917 10.6124C14.4763 10.6124 14.5483 10.6378 14.6075 10.6886L15.5977 11.6661C16.0631 11.0398 16.2958 10.3289 16.2958 9.53343C16.2958 8.87332 16.1393 8.27246 15.8262 7.73084C15.513 7.18921 15.1026 6.76184 14.5948 6.44871C14.087 6.13559 13.5496 5.97902 12.9826 5.97902C12.4325 5.97902 11.9036 6.12712 11.3958 6.42332C10.8881 6.71952 10.4734 7.1469 10.1518 7.70545C9.83868 8.25554 9.68211 8.89871 9.68211 9.63498C9.68211 10.2951 9.81329 10.8833 10.0756 11.3995C10.338 11.9157 10.7061 12.3177 11.18 12.6054C11.654 12.8932 12.1914 13.0371 12.7922 13.0371Z" fill="white"/>
<path d="M19.5855 6.70984H26.2953L19.5855 0V6.70984Z" fill="#03D9C4" fill-opacity="0.4"/>
</g>
</svg>
