<svg width="27" height="36" viewBox="0 0 27 36" fill="none" xmlns="http://www.w3.org/2000/svg">
<path d="M0 4.85233C0 2.44861 1.94861 0.5 4.35233 0.5H19.5855C20.8549 1.76943 24.3005 5.21503 26.2953 7.20984V31.1477C26.2953 33.5514 24.3467 35.5 21.943 35.5H4.35233C1.9486 35.5 0 33.5514 0 31.1477V4.85233Z" fill="url(#paint0_linear_3043_2095)"/>
<path d="M10.6995 20.7202C10.6995 20.1694 11.146 19.7228 11.6969 19.7228H20.5829C21.1337 19.7228 21.5803 20.1694 21.5803 20.7202C21.5803 21.2711 21.1337 21.7176 20.5829 21.7176H11.6969C11.146 21.7176 10.6995 21.2711 10.6995 20.7202Z" fill="white"/>
<path d="M10.6995 27.2487C10.6995 26.6978 11.146 26.2513 11.6969 26.2513H20.5829C21.1337 26.2513 21.5803 26.6978 21.5803 27.2487C21.5803 27.7995 21.1337 28.2461 20.5829 28.2461H11.6969C11.146 28.2461 10.6995 27.7995 10.6995 27.2487Z" fill="white"/>
<path d="M8.16056 20.7202C8.16056 21.6717 7.38924 22.443 6.43776 22.443C5.48629 22.443 4.71497 21.6717 4.71497 20.7202C4.71497 19.7687 5.48629 18.9974 6.43776 18.9974C7.38924 18.9974 8.16056 19.7687 8.16056 20.7202Z" fill="white"/>
<path d="M8.16056 27.2487C8.16056 28.2002 7.38924 28.9715 6.43776 28.9715C5.48629 28.9715 4.71497 28.2002 4.71497 27.2487C4.71497 26.2972 5.48629 25.5259 6.43776 25.5259C7.38924 25.5259 8.16056 26.2972 8.16056 27.2487Z" fill="white"/>
<path d="M16.9814 13.5117C17.0914 13.6217 17.1464 13.7402 17.1464 13.8671C17.1464 14.0025 17.0956 14.121 16.9941 14.2225C16.8925 14.3241 16.7741 14.3749 16.6387 14.3749C16.4948 14.3749 16.3763 14.3283 16.2832 14.2352L15.585 13.5371C15.1957 13.8248 14.7599 14.0491 14.2775 14.2099C13.8036 14.3622 13.3043 14.4383 12.7796 14.4383C11.9671 14.4383 11.252 14.2564 10.6342 13.8925C10.0165 13.5286 9.5383 13.0251 9.19979 12.3819C8.86974 11.7302 8.70471 10.9897 8.70471 10.1604C8.70471 9.23792 8.90359 8.42971 9.30134 7.73576C9.6991 7.0418 10.2196 6.50864 10.8627 6.13628C11.5144 5.76391 12.2041 5.57773 12.9319 5.57773C13.6766 5.57773 14.3791 5.76814 15.0392 6.14897C15.7077 6.5298 16.2451 7.06296 16.6513 7.74845C17.066 8.42548 17.2734 9.19137 17.2734 10.0461C17.2734 11.1294 16.9518 12.0645 16.3086 12.8516L16.9814 13.5117ZM12.7923 13.5371C13.1816 13.5371 13.5539 13.4778 13.9094 13.3593C14.2648 13.2409 14.5906 13.0716 14.8868 12.8516L13.9475 11.9249C13.8544 11.8318 13.8078 11.7387 13.8078 11.6456C13.8078 11.5187 13.8713 11.4002 13.9982 11.2902C14.1336 11.1717 14.2648 11.1124 14.3918 11.1124C14.4764 11.1124 14.5483 11.1378 14.6076 11.1886L15.5977 12.1661C16.0632 11.5398 16.2959 10.8289 16.2959 10.0334C16.2959 9.37332 16.1393 8.77246 15.8262 8.23084C15.5131 7.68921 15.1026 7.26184 14.5949 6.94871C14.0871 6.63559 13.5497 6.47902 12.9827 6.47902C12.4326 6.47902 11.9037 6.62712 11.3959 6.92332C10.8881 7.21952 10.4735 7.6469 10.1519 8.20545C9.83874 8.75554 9.68217 9.39871 9.68217 10.135C9.68217 10.7951 9.81335 11.3833 10.0757 11.8995C10.338 12.4157 10.7062 12.8177 11.1801 13.1054C11.654 13.3932 12.1914 13.5371 12.7923 13.5371Z" fill="white"/>
<path d="M19.5854 7.20984H26.2953L19.5854 0.5V7.20984Z" fill="url(#paint1_linear_3043_2095)"/>
<defs>
<linearGradient id="paint0_linear_3043_2095" x1="13.1477" y1="0.5" x2="13.1477" y2="35.5" gradientUnits="userSpaceOnUse">
<stop stop-color="#9CACCC"/>
<stop offset="1" stop-color="#7487A6"/>
</linearGradient>
<linearGradient id="paint1_linear_3043_2095" x1="22.9404" y1="0.5" x2="22.9404" y2="7.20984" gradientUnits="userSpaceOnUse">
<stop stop-color="#9CACCC"/>
<stop offset="1" stop-color="#7487A6"/>
</linearGradient>
</defs>
</svg>
