<svg width="36" height="25" viewBox="0 0 36 25" fill="none" xmlns="http://www.w3.org/2000/svg">
<path d="M5.85291 10.2385C5.85291 9.72631 6.26812 9.3111 6.7803 9.3111H13.3534C13.8656 9.3111 14.2808 9.72631 14.2808 10.2385V13.9644C14.2808 14.4765 13.8656 14.8918 13.3534 14.8918H6.7803C6.26812 14.8918 5.85291 14.4765 5.85291 13.9644V10.2385Z" fill="#9CACCC" fill-opacity="0.4"/>
<path d="M5.85291 17.072C5.85291 16.5598 6.26812 16.1446 6.7803 16.1446H13.3534C13.8656 16.1446 14.2808 16.5598 14.2808 17.072V20.7978C14.2808 21.31 13.8656 21.7252 13.3534 21.7252H6.7803C6.26812 21.7252 5.85291 21.31 5.85291 20.7978V17.072Z" fill="#9CACCC" fill-opacity="0.4"/>
<path d="M15.4197 17.072C15.4197 16.5598 15.835 16.1446 16.3471 16.1446H21.5536C22.0658 16.1446 22.481 16.5598 22.481 17.072V20.7978C22.481 21.31 22.0658 21.7252 21.5536 21.7252H16.3471C15.835 21.7252 15.4197 21.31 15.4197 20.7978V17.072Z" fill="#9CACCC" fill-opacity="0.4"/>
<path d="M0.5 6.80548H27.8338V20.9388C27.8338 21.3749 27.4835 21.73 27.0475 21.736L24.485 21.7711C24.0404 21.7772 23.6768 21.4185 23.6768 20.9739V9.48192C23.6768 8.66422 23.0139 8.00134 22.1962 8.00134H6.02371C5.20601 8.00134 4.54313 8.66422 4.54313 9.48192V20.8822C4.54313 21.3181 4.193 21.6732 3.75712 21.6793L1.30846 21.7138C0.863816 21.7201 0.5 21.3614 0.5 20.9167V6.80548Z" fill="url(#paint0_linear_3043_2038)"/>
<path d="M0.556945 6.86243C0.556945 5.90046 1.14556 5.03645 2.04078 4.68435L13.7501 0.0790296C14.018 -0.0263432 14.3159 -0.0263432 14.5838 0.0790296L26.2931 4.68435C27.1883 5.03645 27.7769 5.90046 27.7769 6.86243H0.556945Z" fill="url(#paint1_linear_3043_2038)"/>
<circle cx="27.274" cy="16.5726" r="8.22602" fill="url(#paint2_linear_3043_2038)"/>
<path d="M23.6849 16.1932C23.4088 16.1932 23.1849 16.417 23.1849 16.6932C23.1849 16.9693 23.4088 17.1932 23.6849 17.1932V16.1932ZM31.4577 17.0467C31.6529 16.8515 31.6529 16.5349 31.4577 16.3396L28.2757 13.1576C28.0804 12.9624 27.7638 12.9624 27.5686 13.1576C27.3733 13.3529 27.3733 13.6695 27.5686 13.8647L30.397 16.6932L27.5686 19.5216C27.3733 19.7169 27.3733 20.0334 27.5686 20.2287C27.7638 20.424 28.0804 20.424 28.2757 20.2287L31.4577 17.0467ZM23.6849 17.1932L31.1041 17.1932V16.1932H23.6849V17.1932Z" fill="white"/>
<defs>
<linearGradient id="paint0_linear_3043_2038" x1="14.1669" y1="0" x2="14.1669" y2="21.7712" gradientUnits="userSpaceOnUse">
<stop stop-color="#9CACCC"/>
<stop offset="1" stop-color="#7487A6"/>
</linearGradient>
<linearGradient id="paint1_linear_3043_2038" x1="14.1669" y1="0" x2="14.1669" y2="21.7712" gradientUnits="userSpaceOnUse">
<stop stop-color="#9CACCC"/>
<stop offset="1" stop-color="#7487A6"/>
</linearGradient>
<linearGradient id="paint2_linear_3043_2038" x1="27.274" y1="8.34659" x2="27.274" y2="24.7986" gradientUnits="userSpaceOnUse">
<stop stop-color="#9CACCC"/>
<stop offset="1" stop-color="#7487A6"/>
</linearGradient>
</defs>
</svg>
