<svg width="36" height="34" viewBox="0 0 36 34" fill="none" xmlns="http://www.w3.org/2000/svg">
<path d="M0.5 18.2187C0.5 26.7737 7.4352 33.7089 15.9902 33.7089C17.9879 33.7877 22.3929 33.2853 25.1617 30.7958C25.5624 30.4356 25.5369 29.8193 25.1559 29.4383L15.0488 19.3312L15.1282 4.01838C15.1316 3.35425 14.5917 2.80903 13.9295 2.86007C6.0142 3.47022 0.5 10.071 0.5 18.2187Z" fill="#9CACCC" fill-opacity="0.4"/>
<path d="M34.214 19.1601H19.4011C19.2482 19.1601 19.172 19.3451 19.2805 19.4527L29.4774 29.5706C29.7888 29.8796 30.2861 29.9047 30.6089 29.6077C33.6355 26.8237 35.0009 23.0529 35.4773 20.6041C35.6283 19.8279 35.0047 19.1601 34.214 19.1601Z" fill="url(#paint0_linear_3043_2017)"/>
<path d="M32.6006 16.2503H17.9586V1.83146C17.9586 1.0581 18.6035 0.433645 19.3735 0.505663C30.0649 1.50563 33.4257 9.7355 33.901 14.8934C33.9701 15.6435 33.3539 16.2503 32.6006 16.2503Z" fill="url(#paint1_linear_3043_2017)"/>
<defs>
<linearGradient id="paint0_linear_3043_2017" x1="18" y1="0.5" x2="18" y2="33.7165" gradientUnits="userSpaceOnUse">
<stop stop-color="#9CACCC"/>
<stop offset="1" stop-color="#7487A6"/>
</linearGradient>
<linearGradient id="paint1_linear_3043_2017" x1="18" y1="0.5" x2="18" y2="33.7165" gradientUnits="userSpaceOnUse">
<stop stop-color="#9CACCC"/>
<stop offset="1" stop-color="#7487A6"/>
</linearGradient>
</defs>
</svg>
