<svg width="36" height="36" viewBox="0 0 36 36" fill="none" xmlns="http://www.w3.org/2000/svg">
<path d="M16.5289 0.96384C17.5277 0.343211 18.7927 0.345559 19.7891 0.969892L34.6471 10.2793C36.1884 11.245 35.5042 13.6256 33.6854 13.6256H2.49964C0.677314 13.6256 -0.00422961 11.2375 1.5436 10.2757L16.5289 0.96384Z" fill="url(#paint0_linear_142_367)"/>
<path d="M4.8473 15.7993H9.37574V28.8412H4.8473V15.7993Z" fill="#FAB534" fill-opacity="0.4"/>
<path d="M12.0928 15.7993H16.6212V28.8412H12.0928V15.7993Z" fill="#FAB534" fill-opacity="0.4"/>
<path d="M19.5195 15.7993H24.0479V28.8412H19.5195V15.7993Z" fill="#FAB534" fill-opacity="0.4"/>
<path d="M26.5838 15.7993H31.1123V28.8412H26.5838V15.7993Z" fill="#FAB534" fill-opacity="0.4"/>
<path d="M0.5 33.913C0.5 31.1119 2.77075 28.8412 5.57185 28.8412H30.3877C33.1888 28.8412 35.4596 31.1119 35.4596 33.913C35.4596 34.7133 34.8108 35.3621 34.0105 35.3621H1.9491C1.14879 35.3621 0.5 34.7133 0.5 33.913Z" fill="#FAB534" fill-opacity="0.4"/>
<path d="M26.765 25.1278C26.765 29.8797 22.9128 33.7319 18.1609 33.7319C13.409 33.7319 9.55688 29.8797 9.55688 25.1278C9.55688 20.376 13.409 16.5238 18.1609 16.5238C22.9128 16.5238 26.765 20.376 26.765 25.1278Z" fill="url(#paint1_linear_142_367)"/>
<path d="M17.3884 29.4836C17.3884 29.0538 17.7419 28.7053 18.1779 28.7053C18.6139 28.7053 18.9673 29.0538 18.9673 29.4836V30.4176C18.9673 30.8475 18.6139 31.196 18.1779 31.196C17.7419 31.196 17.3884 30.8475 17.3884 30.4176V29.4836Z" fill="white"/>
<path d="M17.3884 20.0192C17.3884 19.5893 17.7419 19.2409 18.1779 19.2409C18.6139 19.2409 18.9673 19.5893 18.9673 20.0192V20.7041C18.9673 21.134 18.6139 21.4825 18.1779 21.4825C17.7419 21.4825 17.3884 21.134 17.3884 20.7041V20.0192Z" fill="white"/>
<path d="M21.6931 27.059C21.6931 27.5272 21.5819 27.9307 21.3596 28.2695C21.1474 28.5982 20.7937 28.9021 20.2985 29.181C19.9651 29.3803 19.576 29.5297 19.1314 29.6293C18.6867 29.729 18.2371 29.7788 17.7823 29.7788C17.3175 29.7788 16.7415 29.6293 16.0543 29.3305C15.5592 29.0914 15.165 28.8074 14.872 28.4787C14.589 28.1499 14.4476 27.7913 14.4476 27.4027C14.4476 27.1337 14.5082 26.9395 14.6295 26.8199C14.7507 26.6904 14.9478 26.6256 15.2206 26.6256C15.3621 26.6256 15.5086 26.6854 15.6602 26.805C15.8118 26.9145 15.9027 27.0241 15.9331 27.1337C16.0745 27.5422 16.3221 27.856 16.6758 28.0752C17.0295 28.2844 17.4691 28.389 17.9945 28.389C18.6009 28.389 19.1061 28.2794 19.5103 28.0602C19.9246 27.8411 20.1318 27.5472 20.1318 27.1786C20.1318 26.8199 19.9095 26.5011 19.4649 26.2221C19.0202 25.9432 18.5655 25.7489 18.1006 25.6393C17.4337 25.46 16.8425 25.2458 16.3272 24.9968C15.7916 24.7377 15.3924 24.4189 15.1297 24.0403C14.8669 23.6618 14.7356 23.2633 14.7356 22.8448C14.7356 22.4563 14.872 22.0628 15.1448 21.6643C15.4177 21.2558 15.7411 20.9619 16.1149 20.7826C16.3171 20.683 16.6606 20.5784 17.1457 20.4688C17.6408 20.3492 17.9996 20.2894 18.2219 20.2894C18.515 20.2894 18.8383 20.3243 19.192 20.394C19.5457 20.4638 19.8337 20.5634 20.056 20.6929C20.5006 20.942 20.8291 21.1661 21.0413 21.3654C21.2535 21.5646 21.3596 21.8137 21.3596 22.1126C21.3596 22.2919 21.2889 22.4513 21.1474 22.5908C21.016 22.7303 20.7836 22.8 20.4501 22.8C20.3693 22.8 20.2884 22.7651 20.2076 22.6954C20.1268 22.6257 20.0257 22.5211 19.9044 22.3816C19.7428 22.1724 19.5861 22.0329 19.4345 21.9631C19.283 21.9133 19.0606 21.8585 18.7676 21.7988C18.4846 21.739 18.232 21.7091 18.0097 21.7091C17.7672 21.7091 17.5145 21.7589 17.2518 21.8585C16.9891 21.9582 16.7667 22.1026 16.5848 22.2919C16.4131 22.4712 16.3272 22.6805 16.3272 22.9196C16.3272 23.1188 16.4181 23.2932 16.6 23.4426C16.792 23.5821 17.0194 23.6966 17.2821 23.7863C17.5853 23.9058 17.9137 24.0105 18.2674 24.1001C18.7322 24.2396 19.1112 24.3691 19.4042 24.4887C19.7074 24.5982 20.0004 24.7377 20.2834 24.9071C20.7785 25.196 21.1373 25.4949 21.3596 25.8037C21.5819 26.1026 21.6931 26.521 21.6931 27.059Z" fill="white"/>
<defs>
<linearGradient id="paint0_linear_142_367" x1="1.7561" y1="2.06257" x2="22.5289" y2="22.9292" gradientUnits="userSpaceOnUse">
<stop stop-color="#FAB534"/>
<stop offset="1" stop-color="#F64F39"/>
</linearGradient>
<linearGradient id="paint1_linear_142_367" x1="10.0863" y1="18.5724" x2="28.1267" y2="25.4045" gradientUnits="userSpaceOnUse">
<stop stop-color="#FAB534"/>
<stop offset="1" stop-color="#F64F39"/>
</linearGradient>
</defs>
</svg>
