<svg width="27" height="36" viewBox="0 0 27 36" fill="none" xmlns="http://www.w3.org/2000/svg">
<path d="M0 4.85233C0 2.44861 1.94861 0.5 4.35233 0.5H19.5855C20.8549 1.76943 24.3005 5.21503 26.2953 7.20984V31.1477C26.2953 33.5514 24.3467 35.5 21.943 35.5H4.35233C1.9486 35.5 0 33.5514 0 31.1477V4.85233Z" fill="url(#paint0_linear_3043_2086)"/>
<path d="M10.6995 20.7202C10.6995 20.1694 11.146 19.7228 11.6969 19.7228H20.5829C21.1337 19.7228 21.5803 20.1694 21.5803 20.7202C21.5803 21.2711 21.1337 21.7176 20.5829 21.7176H11.6969C11.146 21.7176 10.6995 21.2711 10.6995 20.7202Z" fill="white"/>
<path d="M10.6995 27.2487C10.6995 26.6978 11.146 26.2513 11.6969 26.2513H20.5829C21.1337 26.2513 21.5803 26.6978 21.5803 27.2487C21.5803 27.7995 21.1337 28.2461 20.5829 28.2461H11.6969C11.146 28.2461 10.6995 27.7995 10.6995 27.2487Z" fill="white"/>
<path d="M8.16056 20.7202C8.16056 21.6717 7.38924 22.443 6.43776 22.443C5.48629 22.443 4.71497 21.6717 4.71497 20.7202C4.71497 19.7687 5.48629 18.9974 6.43776 18.9974C7.38924 18.9974 8.16056 19.7687 8.16056 20.7202Z" fill="white"/>
<path d="M8.16056 27.2487C8.16056 28.2002 7.38924 28.9715 6.43776 28.9715C5.48629 28.9715 4.71497 28.2002 4.71497 27.2487C4.71497 26.2972 5.48629 25.5259 6.43776 25.5259C7.38924 25.5259 8.16056 26.2972 8.16056 27.2487Z" fill="white"/>
<path d="M19.5854 7.20984H26.2953L19.5854 0.5V7.20984Z" fill="url(#paint1_linear_3043_2086)"/>
<path d="M8.24037 14.451C7.62258 14.451 7.09365 14.3283 6.65358 14.0829C6.21351 13.829 5.87923 13.4947 5.65073 13.0801C5.43069 12.6569 5.32068 12.1999 5.32068 11.7091C5.32068 11.5567 5.35453 11.4383 5.42223 11.3536C5.4984 11.269 5.62534 11.2267 5.80306 11.2267C6.13311 11.2267 6.29814 11.3663 6.29814 11.6456C6.29814 12.0434 6.387 12.3861 6.56472 12.6738C6.74244 12.9616 6.9794 13.1816 7.2756 13.3339C7.5718 13.4863 7.89339 13.5624 8.24037 13.5624C8.74814 13.5624 9.16282 13.444 9.48441 13.207C9.81446 12.97 9.97949 12.6273 9.97949 12.1788C9.97949 11.8487 9.89062 11.5779 9.7129 11.3663C9.53518 11.1463 9.30246 10.9728 9.01472 10.8459C8.72698 10.7104 8.35885 10.575 7.91031 10.4396C7.42793 10.3042 7.01748 10.1646 6.67897 10.0207C6.34045 9.86839 6.02309 9.6272 5.72689 9.29715C5.43916 8.9671 5.29529 8.53126 5.29529 7.98964C5.29529 7.50725 5.42223 7.07565 5.67612 6.69482C5.93 6.31399 6.26852 6.01779 6.69166 5.80622C7.1148 5.59465 7.58026 5.48886 8.08803 5.48886C8.61273 5.48886 9.08665 5.60311 9.5098 5.83161C9.9414 6.0601 10.2757 6.36054 10.5126 6.7329C10.7581 7.10527 10.8808 7.49879 10.8808 7.91347C10.8808 8.09966 10.8427 8.23083 10.7665 8.307C10.6988 8.38316 10.5803 8.42124 10.4111 8.42124C10.2164 8.42124 10.0853 8.38316 10.0176 8.307C9.94987 8.23083 9.91601 8.12504 9.91601 7.98964C9.91601 7.54111 9.74676 7.16028 9.40824 6.84715C9.06973 6.53403 8.62966 6.37746 8.08803 6.37746C7.54641 6.37746 7.10634 6.53403 6.76783 6.84715C6.43778 7.15181 6.27275 7.53687 6.27275 8.00233C6.27275 8.31546 6.36161 8.57358 6.53933 8.77669C6.72551 8.97133 6.95401 9.12366 7.22482 9.23368C7.5041 9.3437 7.89762 9.47487 8.40539 9.6272C8.837 9.76261 9.22629 9.91494 9.57327 10.0842C9.92871 10.245 10.2461 10.4989 10.5253 10.8459C10.8046 11.1928 10.9443 11.6329 10.9443 12.1661C10.9443 12.6231 10.8258 13.025 10.5888 13.372C10.3603 13.719 10.0387 13.9856 9.62404 14.1718C9.21783 14.3579 8.7566 14.451 8.24037 14.451Z" fill="white"/>
<path d="M16.6247 14.3622C15.8376 14.3622 15.1225 14.2098 14.4793 13.9052C13.8361 13.5921 13.3241 13.1181 12.9433 12.4834C12.5625 11.8402 12.3721 11.049 12.3721 10.1096C12.3721 9.22099 12.5456 8.42548 12.8925 7.72306C13.2395 7.02064 13.7304 6.47478 14.3651 6.08549C14.9998 5.68774 15.7318 5.48886 16.5612 5.48886C17.399 5.48886 18.1607 5.69197 18.8462 6.09819C19.5316 6.49594 20.069 7.05026 20.4583 7.76114C20.8561 8.47202 21.055 9.27599 21.055 10.1731C21.055 11.0786 20.8519 11.8487 20.4456 12.4834C20.0394 13.1097 19.4978 13.5794 18.8208 13.8925C18.1522 14.2056 17.4202 14.3622 16.6247 14.3622ZM16.6881 13.4609C17.2551 13.4609 17.7968 13.3466 18.313 13.1181C18.8292 12.8812 19.2524 12.513 19.5824 12.0137C19.9125 11.506 20.0775 10.8755 20.0775 10.1223C20.0775 9.4114 19.9294 8.77245 19.6332 8.20544C19.337 7.63843 18.9223 7.19413 18.3892 6.87254C17.8645 6.55095 17.2721 6.39016 16.612 6.39016C15.9688 6.39016 15.3975 6.54672 14.8982 6.85985C14.4074 7.16451 14.0223 7.59188 13.743 8.14197C13.4722 8.69206 13.3368 9.32677 13.3368 10.0461C13.3368 10.8501 13.5019 11.5102 13.8319 12.0264C14.162 12.5342 14.5809 12.9023 15.0886 13.1308C15.5964 13.3509 16.1296 13.4609 16.6881 13.4609Z" fill="white"/>
<defs>
<linearGradient id="paint0_linear_3043_2086" x1="13.1477" y1="0.5" x2="13.1477" y2="35.5" gradientUnits="userSpaceOnUse">
<stop stop-color="#9CACCC"/>
<stop offset="1" stop-color="#7487A6"/>
</linearGradient>
<linearGradient id="paint1_linear_3043_2086" x1="22.9404" y1="0.5" x2="22.9404" y2="7.20984" gradientUnits="userSpaceOnUse">
<stop stop-color="#9CACCC"/>
<stop offset="1" stop-color="#7487A6"/>
</linearGradient>
</defs>
</svg>
