<svg width="27" height="36" viewBox="0 0 27 36" fill="none" xmlns="http://www.w3.org/2000/svg">
<path d="M0 4.85233C0 2.44861 1.94861 0.5 4.35233 0.5H19.5855C20.8549 1.76943 24.3005 5.21503 26.2953 7.20984V31.1477C26.2953 33.5514 24.3467 35.5 21.943 35.5H4.35233C1.9486 35.5 0 33.5514 0 31.1477V4.85233Z" fill="url(#paint0_linear_106_288)"/>
<path d="M10.6995 20.7202C10.6995 20.1694 11.146 19.7228 11.6969 19.7228H20.5829C21.1337 19.7228 21.5803 20.1694 21.5803 20.7202C21.5803 21.2711 21.1337 21.7176 20.5829 21.7176H11.6969C11.146 21.7176 10.6995 21.2711 10.6995 20.7202Z" fill="white"/>
<path d="M10.6995 27.2487C10.6995 26.6978 11.146 26.2513 11.6969 26.2513H20.5829C21.1337 26.2513 21.5803 26.6978 21.5803 27.2487C21.5803 27.7995 21.1337 28.2461 20.5829 28.2461H11.6969C11.146 28.2461 10.6995 27.7995 10.6995 27.2487Z" fill="white"/>
<path d="M8.16062 20.7202C8.16062 21.6717 7.3893 22.443 6.43782 22.443C5.48635 22.443 4.71503 21.6717 4.71503 20.7202C4.71503 19.7687 5.48635 18.9974 6.43782 18.9974C7.3893 18.9974 8.16062 19.7687 8.16062 20.7202Z" fill="white"/>
<path d="M8.16062 27.2487C8.16062 28.2002 7.3893 28.9715 6.43782 28.9715C5.48635 28.9715 4.71503 28.2002 4.71503 27.2487C4.71503 26.2972 5.48635 25.5259 6.43782 25.5259C7.3893 25.5259 8.16062 26.2972 8.16062 27.2487Z" fill="white"/>
<path d="M19.5855 7.20984H26.2954L19.5855 0.5V7.20984Z" fill="url(#paint1_linear_106_288)"/>
<path d="M8.24043 14.451C7.62264 14.451 7.09371 14.3283 6.65364 14.0829C6.21357 13.829 5.87929 13.4947 5.65079 13.0801C5.43076 12.6569 5.32074 12.1999 5.32074 11.7091C5.32074 11.5567 5.35459 11.4383 5.42229 11.3536C5.49846 11.269 5.6254 11.2267 5.80312 11.2267C6.13317 11.2267 6.2982 11.3663 6.2982 11.6456C6.2982 12.0434 6.38706 12.3861 6.56478 12.6738C6.7425 12.9616 6.97946 13.1816 7.27566 13.3339C7.57186 13.4863 7.89345 13.5624 8.24043 13.5624C8.7482 13.5624 9.16288 13.444 9.48447 13.207C9.81452 12.97 9.97955 12.6273 9.97955 12.1788C9.97955 11.8487 9.89069 11.5779 9.71297 11.3663C9.53525 11.1463 9.30252 10.9728 9.01478 10.8459C8.72704 10.7104 8.35891 10.575 7.91037 10.4396C7.42799 10.3042 7.01754 10.1646 6.67903 10.0207C6.34051 9.86839 6.02316 9.6272 5.72696 9.29715C5.43922 8.9671 5.29535 8.53126 5.29535 7.98964C5.29535 7.50725 5.42229 7.07565 5.67618 6.69482C5.93006 6.31399 6.26858 6.01779 6.69172 5.80622C7.11487 5.59465 7.58032 5.48886 8.0881 5.48886C8.61279 5.48886 9.08671 5.60311 9.50986 5.83161C9.94146 6.0601 10.2757 6.36054 10.5127 6.7329C10.7581 7.10527 10.8808 7.49879 10.8808 7.91347C10.8808 8.09966 10.8428 8.23083 10.7666 8.307C10.6989 8.38316 10.5804 8.42124 10.4112 8.42124C10.2165 8.42124 10.0853 8.38316 10.0176 8.307C9.94993 8.23083 9.91607 8.12504 9.91607 7.98964C9.91607 7.54111 9.74682 7.16028 9.4083 6.84715C9.06979 6.53403 8.62972 6.37746 8.0881 6.37746C7.54647 6.37746 7.1064 6.53403 6.76789 6.84715C6.43784 7.15181 6.27281 7.53688 6.27281 8.00233C6.27281 8.31546 6.36167 8.57358 6.53939 8.77668C6.72557 8.97133 6.95407 9.12366 7.22488 9.23368C7.50416 9.3437 7.89768 9.47487 8.40545 9.6272C8.83706 9.76261 9.22635 9.91494 9.57333 10.0842C9.92877 10.245 10.2461 10.4989 10.5254 10.8459C10.8047 11.1928 10.9443 11.6329 10.9443 12.1661C10.9443 12.6231 10.8258 13.025 10.5889 13.372C10.3604 13.719 10.0388 13.9856 9.62411 14.1718C9.21789 14.3579 8.75666 14.451 8.24043 14.451Z" fill="white"/>
<path d="M16.6247 14.3622C15.8377 14.3622 15.1226 14.2098 14.4794 13.9052C13.8362 13.5921 13.3242 13.1181 12.9434 12.4834C12.5625 11.8402 12.3721 11.049 12.3721 10.1096C12.3721 9.22099 12.5456 8.42548 12.8926 7.72306C13.2396 7.02064 13.7304 6.47478 14.3651 6.08549C14.9998 5.68774 15.7319 5.48886 16.5612 5.48886C17.3991 5.48886 18.1607 5.69197 18.8462 6.09819C19.5317 6.49594 20.0691 7.05026 20.4584 7.76114C20.8561 8.47202 21.055 9.27599 21.055 10.1731C21.055 11.0786 20.8519 11.8487 20.4457 12.4834C20.0395 13.1097 19.4979 13.5794 18.8208 13.8925C18.1523 14.2056 17.4202 14.3622 16.6247 14.3622ZM16.6882 13.4609C17.2552 13.4609 17.7968 13.3466 18.3131 13.1181C18.8293 12.8812 19.2524 12.513 19.5825 12.0137C19.9125 11.506 20.0776 10.8755 20.0776 10.1223C20.0776 9.4114 19.9295 8.77245 19.6333 8.20544C19.3371 7.63843 18.9224 7.19413 18.3892 6.87254C17.8645 6.55095 17.2721 6.39016 16.612 6.39016C15.9688 6.39016 15.3976 6.54672 14.8983 6.85985C14.4074 7.16451 14.0224 7.59188 13.7431 8.14197C13.4723 8.69206 13.3369 9.32677 13.3369 10.0461C13.3369 10.8501 13.5019 11.5102 13.832 12.0264C14.162 12.5342 14.5809 12.9023 15.0887 13.1308C15.5965 13.3509 16.1296 13.4609 16.6882 13.4609Z" fill="white"/>
<defs>
<linearGradient id="paint0_linear_106_288" x1="13.1477" y1="0.5" x2="13.1477" y2="35.5" gradientUnits="userSpaceOnUse">
<stop stop-color="#FAB534"/>
<stop offset="1" stop-color="#F64F39"/>
</linearGradient>
<linearGradient id="paint1_linear_106_288" x1="22.9404" y1="0.5" x2="22.9404" y2="7.20984" gradientUnits="userSpaceOnUse">
<stop stop-color="#FAB534"/>
<stop offset="1" stop-color="#F64F39"/>
</linearGradient>
</defs>
</svg>
