<svg width="27" height="35" viewBox="0 0 27 35" fill="none" xmlns="http://www.w3.org/2000/svg">
<g opacity="0.35">
<path d="M0 4.35233C0 1.94861 1.94861 0 4.35233 0H19.5855C20.8549 1.26943 24.3005 4.71503 26.2953 6.70984V30.6477C26.2953 33.0514 24.3467 35 21.943 35H4.35233C1.9486 35 0 33.0514 0 30.6477V4.35233Z" fill="#FAB534" fill-opacity="0.4"/>
<path d="M10.6995 20.2202C10.6995 19.6694 11.146 19.2228 11.6969 19.2228H20.5829C21.1338 19.2228 21.5803 19.6694 21.5803 20.2202C21.5803 20.7711 21.1338 21.2176 20.5829 21.2176H11.6969C11.146 21.2176 10.6995 20.7711 10.6995 20.2202Z" fill="white"/>
<path d="M10.6995 26.7487C10.6995 26.1978 11.146 25.7513 11.6969 25.7513H20.5829C21.1338 25.7513 21.5803 26.1978 21.5803 26.7487C21.5803 27.2995 21.1338 27.7461 20.5829 27.7461H11.6969C11.146 27.7461 10.6995 27.2995 10.6995 26.7487Z" fill="white"/>
<path d="M8.16062 20.2202C8.16062 21.1717 7.3893 21.943 6.43782 21.943C5.48635 21.943 4.71503 21.1717 4.71503 20.2202C4.71503 19.2687 5.48635 18.4974 6.43782 18.4974C7.3893 18.4974 8.16062 19.2687 8.16062 20.2202Z" fill="white"/>
<path d="M8.16062 26.7487C8.16062 27.7002 7.3893 28.4715 6.43782 28.4715C5.48635 28.4715 4.71503 27.7002 4.71503 26.7487C4.71503 25.7972 5.48635 25.0259 6.43782 25.0259C7.3893 25.0259 8.16062 25.7972 8.16062 26.7487Z" fill="white"/>
<path d="M19.5855 6.70984H26.2953L19.5855 0V6.70984Z" fill="#FAB534" fill-opacity="0.4"/>
<path d="M8.24043 13.951C7.62264 13.951 7.09371 13.8283 6.65364 13.5829C6.21357 13.329 5.87929 12.9947 5.65079 12.5801C5.43076 12.1569 5.32074 11.6999 5.32074 11.2091C5.32074 11.0567 5.35459 10.9383 5.42229 10.8536C5.49846 10.769 5.6254 10.7267 5.80312 10.7267C6.13317 10.7267 6.2982 10.8663 6.2982 11.1456C6.2982 11.5434 6.38706 11.8861 6.56478 12.1738C6.7425 12.4616 6.97946 12.6816 7.27566 12.8339C7.57186 12.9863 7.89345 13.0624 8.24043 13.0624C8.7482 13.0624 9.16288 12.944 9.48447 12.707C9.81452 12.47 9.97955 12.1273 9.97955 11.6788C9.97955 11.3487 9.89069 11.0779 9.71297 10.8663C9.53525 10.6463 9.30252 10.4728 9.01478 10.3459C8.72704 10.2104 8.35891 10.075 7.91037 9.93964C7.42799 9.80423 7.01754 9.6646 6.67903 9.52073C6.34051 9.36839 6.02316 9.1272 5.72696 8.79715C5.43922 8.4671 5.29535 8.03126 5.29535 7.48964C5.29535 7.00725 5.42229 6.57565 5.67618 6.19482C5.93006 5.81399 6.26858 5.51779 6.69172 5.30622C7.11487 5.09465 7.58032 4.98886 8.0881 4.98886C8.61279 4.98886 9.08671 5.10311 9.50986 5.33161C9.94146 5.5601 10.2757 5.86054 10.5127 6.2329C10.7581 6.60527 10.8808 6.99879 10.8808 7.41347C10.8808 7.59966 10.8428 7.73083 10.7666 7.807C10.6989 7.88316 10.5804 7.92124 10.4112 7.92124C10.2165 7.92124 10.0853 7.88316 10.0176 7.807C9.94993 7.73083 9.91607 7.62504 9.91607 7.48964C9.91607 7.04111 9.74682 6.66028 9.4083 6.34715C9.06979 6.03403 8.62972 5.87746 8.0881 5.87746C7.54647 5.87746 7.1064 6.03403 6.76789 6.34715C6.43784 6.65181 6.27281 7.03687 6.27281 7.50233C6.27281 7.81546 6.36167 8.07358 6.53939 8.27669C6.72557 8.47133 6.95407 8.62366 7.22488 8.73368C7.50416 8.8437 7.89768 8.97487 8.40545 9.1272C8.83706 9.26261 9.22635 9.41494 9.57333 9.5842C9.92877 9.74499 10.2461 9.99888 10.5254 10.3459C10.8047 10.6928 10.9443 11.1329 10.9443 11.6661C10.9443 12.1231 10.8258 12.525 10.5889 12.872C10.3604 13.219 10.0388 13.4856 9.62411 13.6718C9.21789 13.8579 8.75666 13.951 8.24043 13.951Z" fill="white"/>
<path d="M16.6247 13.8622C15.8377 13.8622 15.1226 13.7098 14.4794 13.4052C13.8362 13.0921 13.3242 12.6181 12.9434 11.9834C12.5625 11.3402 12.3721 10.549 12.3721 9.60959C12.3721 8.72099 12.5456 7.92548 12.8926 7.22306C13.2396 6.52064 13.7304 5.97478 14.3651 5.58549C14.9998 5.18774 15.7319 4.98886 16.5612 4.98886C17.3991 4.98886 18.1607 5.19197 18.8462 5.59819C19.5317 5.99594 20.0691 6.55026 20.4584 7.26114C20.8561 7.97202 21.055 8.77599 21.055 9.67306C21.055 10.5786 20.8519 11.3487 20.4457 11.9834C20.0395 12.6097 19.4979 13.0794 18.8208 13.3925C18.1523 13.7056 17.4202 13.8622 16.6247 13.8622ZM16.6882 12.9609C17.2552 12.9609 17.7968 12.8466 18.3131 12.6181C18.8293 12.3812 19.2524 12.013 19.5825 11.5137C19.9125 11.006 20.0776 10.3755 20.0776 9.62228C20.0776 8.9114 19.9295 8.27245 19.6333 7.70544C19.3371 7.13843 18.9224 6.69413 18.3892 6.37254C17.8645 6.05095 17.2721 5.89016 16.612 5.89016C15.9688 5.89016 15.3976 6.04672 14.8983 6.35985C14.4074 6.66451 14.0224 7.09188 13.7431 7.64197C13.4723 8.19206 13.3369 8.82677 13.3369 9.54611C13.3369 10.3501 13.5019 11.0102 13.832 11.5264C14.162 12.0342 14.5809 12.4023 15.0887 12.6308C15.5965 12.8509 16.1296 12.9609 16.6882 12.9609Z" fill="white"/>
</g>
</svg>
