<svg width="14" height="14" viewBox="0 0 14 14" fill="none" xmlns="http://www.w3.org/2000/svg">
<path d="M11.6698 0.387453C12.1947 -0.137557 13.056 -0.126619 13.5918 0.406594C14.1277 0.939807 14.1386 1.80115 13.611 2.3289C13.425 2.51484 13.0259 2.66796 12.5884 2.78554C12.1428 2.90586 11.6562 2.99063 11.3226 3.03985C11.2789 3.04531 11.2379 3.05352 11.1968 3.05625C11.0629 3.07813 10.948 2.97969 10.9371 2.85391C10.9344 2.83476 10.9371 2.81562 10.9398 2.79648C10.9836 2.49023 11.0656 1.98709 11.1859 1.5113C11.1941 1.47575 11.205 1.44021 11.2132 1.40466C11.3308 0.969886 11.4812 0.57066 11.6698 0.381984V0.387453Z" fill="url(#paint0_linear_698_7107)"/>
<path d="M1.40914 11.213C1.91493 11.0763 2.46993 10.9861 2.80075 10.9396C2.81168 10.9369 2.81988 10.9369 2.82809 10.9369C2.96752 10.9314 3.07961 11.0544 3.05774 11.1994C3.01126 11.5302 2.92104 12.0853 2.78434 12.5912C2.66951 13.026 2.51641 13.4252 2.3305 13.6111C1.80557 14.1361 0.944363 14.1252 0.408501 13.592C-0.127362 13.0588 -0.138298 12.1974 0.389363 11.6697C0.575274 11.4838 0.974437 11.3306 1.41188 11.213H1.40914Z" fill="url(#paint1_linear_698_7107)"/>
<path fill-rule="evenodd" clip-rule="evenodd" d="M10.4477 0.906994C10.4067 1.03825 10.3684 1.1695 10.3356 1.29802C10.2044 1.81482 10.1169 2.35077 10.0704 2.67343C9.96107 3.40626 10.5872 4.03244 11.3199 3.9258C11.6452 3.88205 12.1811 3.79455 12.6978 3.66056C12.8263 3.62775 12.9575 3.5922 13.0888 3.54845C14.6061 6.21998 14.2234 9.67356 11.9487 11.9486C9.67401 14.2236 6.22097 14.6065 3.54986 13.0916C3.59087 12.9603 3.62641 12.8291 3.65922 12.7006C3.79045 12.1838 3.87794 11.6478 3.92442 11.3252C4.03378 10.5923 3.40769 9.96615 2.67498 10.0728C2.34964 10.1165 1.81377 10.204 1.29705 10.338C1.16855 10.3708 1.03732 10.4064 0.906088 10.4501C-0.605811 7.77861 -0.223052 4.32503 2.05163 2.04998C4.32631 -0.227793 7.77935 -0.607878 10.4505 0.906994H10.4477ZM10.6664 5.72232C10.8305 5.41333 11.2707 5.38872 11.3992 5.71411H11.3964C12.0225 7.28641 11.6972 9.15402 10.4259 10.4255C9.15455 11.697 7.28996 12.0224 5.71518 11.3963C5.38984 11.2677 5.41444 10.8275 5.72339 10.6634C6.69395 10.1466 7.65905 9.43567 8.5476 8.54698C9.43615 7.65829 10.147 6.69304 10.6664 5.72232ZM2.58203 7.88798C2.50821 7.88251 2.43712 7.8497 2.38244 7.79501C2.20747 7.62001 2.28129 7.32469 2.51641 7.2536L5.18205 6.44421C5.50193 6.3485 5.7972 6.64655 5.70151 6.96375L4.88952 9.62708C4.81843 9.8595 4.52043 9.93333 4.34819 9.76106C4.29624 9.70911 4.26343 9.63802 4.25523 9.56145L4.1158 8.02744L2.58203 7.88798ZM6.44243 5.17817L7.25442 2.51484L7.25169 2.5121C7.32277 2.27968 7.62078 2.20585 7.79302 2.37812C7.84496 2.43007 7.87777 2.50116 7.88597 2.57773L8.02541 4.11174L9.55918 4.2512C9.633 4.25667 9.70408 4.28948 9.75876 4.34417C9.93373 4.51917 9.85992 4.81449 9.62479 4.88558L6.96188 5.69771C6.64201 5.79341 6.34674 5.49536 6.44243 5.17817Z" fill="url(#paint2_linear_698_7107)"/>
<path d="M2.38244 7.79501C2.43712 7.8497 2.50821 7.88251 2.58203 7.88798L4.1158 8.02744L4.25523 9.56145C4.26343 9.63802 4.29624 9.70911 4.34819 9.76106C4.52043 9.93333 4.81843 9.8595 4.88952 9.62708L5.70151 6.96375C5.7972 6.64655 5.50193 6.3485 5.18205 6.44421L2.51641 7.2536C2.28129 7.32469 2.20747 7.62001 2.38244 7.79501Z" fill="#272E4A"/>
<path d="M7.25442 2.51484L6.44243 5.17817C6.34674 5.49536 6.64201 5.79341 6.96188 5.69771L9.62479 4.88558C9.85992 4.81449 9.93373 4.51917 9.75876 4.34417C9.70408 4.28948 9.633 4.25667 9.55918 4.2512L8.02541 4.11174L7.88597 2.57773C7.87777 2.50116 7.84496 2.43007 7.79302 2.37812C7.62078 2.20585 7.32277 2.27968 7.25169 2.5121L7.25442 2.51484Z" fill="#272E4A"/>
<path d="M12.0838 2.41812C11.8987 2.46813 11.6956 2.50114 11.5746 2.51815C11.5706 2.51915 11.5676 2.51915 11.5646 2.51915C11.5135 2.52115 11.4725 2.47614 11.4805 2.42312C11.4975 2.30209 11.5305 2.09903 11.5806 1.91398C11.6226 1.75494 11.6786 1.6089 11.7466 1.54088C11.9387 1.34883 12.2538 1.35283 12.4499 1.54789C12.646 1.74294 12.65 2.05802 12.4569 2.25108C12.3889 2.31909 12.2428 2.37511 12.0828 2.41812H12.0838Z" fill="#5BB3F3"/>
<path d="M1.91653 11.5805C2.10161 11.5305 2.30469 11.4974 2.42573 11.4804C2.42974 11.4794 2.43274 11.4794 2.43574 11.4794C2.48676 11.4774 2.52777 11.5225 2.51977 11.5755C2.50276 11.6965 2.46975 11.8996 2.41973 12.0846C2.37772 12.2436 2.32169 12.3897 2.25367 12.4577C2.06159 12.6498 1.74647 12.6458 1.55039 12.4507C1.35432 12.2557 1.35031 11.9406 1.54339 11.7475C1.61142 11.6795 1.75747 11.6235 1.91754 11.5805H1.91653Z" fill="#5BB3F3"/>
<path d="M11.3992 5.71411C11.2707 5.38872 10.8305 5.41333 10.6664 5.72232C10.147 6.69304 9.43615 7.65829 8.5476 8.54698C7.65905 9.43567 6.69395 10.1466 5.72339 10.6634C5.41444 10.8275 5.38984 11.2677 5.71518 11.3963C7.28996 12.0224 9.15455 11.697 10.4259 10.4255C11.6972 9.15402 12.0225 7.28641 11.3964 5.71411H11.3992Z" fill="#542B17"/>
<path d="M8.39995 11.5743C8.39995 10.0343 9.81446 8.53932 11.4942 8.67933L11.4465 8.81933L11.3933 8.95933L11.302 9.17152L11.1996 9.37934L11.0708 9.60526L10.9287 9.82395C10.8285 9.99094 10.7024 10.1425 10.5647 10.2802L10.335 10.53C9.93974 10.9194 9.52783 11.1221 9.09986 11.3394L8.92605 11.4068L8.75335 11.4699L8.57832 11.5257L8.39995 11.5743Z" fill="url(#paint3_linear_698_7107)"/>
<defs>
<linearGradient id="paint0_linear_698_7107" x1="10.9196" y1="3.07922" x2="13.5797" y2="0.419593" gradientUnits="userSpaceOnUse">
<stop stop-color="#397ED1"/>
<stop offset="1" stop-color="#64C2F4"/>
</linearGradient>
<linearGradient id="paint1_linear_698_7107" x1="2.94071" y1="11.0594" x2="0.420646" y2="13.719" gradientUnits="userSpaceOnUse">
<stop stop-color="#387DD1"/>
<stop offset="1" stop-color="#66C6F6"/>
</linearGradient>
<linearGradient id="paint2_linear_698_7107" x1="2.38079" y1="1.8192" x2="11.4811" y2="11.898" gradientUnits="userSpaceOnUse">
<stop stop-color="#F7E37D"/>
<stop offset="1" stop-color="#EAA34C"/>
</linearGradient>
<linearGradient id="paint3_linear_698_7107" x1="9.37982" y1="9.51934" x2="10.3598" y2="10.4992" gradientUnits="userSpaceOnUse">
<stop stop-color="#E65B70"/>
<stop offset="1" stop-color="#B82939"/>
</linearGradient>
</defs>
</svg>
