<svg width="27" height="36" viewBox="0 0 27 36" fill="none" xmlns="http://www.w3.org/2000/svg">
<path d="M13.1415 7.57255C13.9924 7.57255 14.6822 6.88242 14.6822 6.0311C14.6822 5.55823 14.4694 5.1351 14.1344 4.85234H21.7515C24.2542 4.85234 26.283 6.88214 26.283 9.38602V30.9663C26.283 33.4702 24.2542 35.5 21.7515 35.5H4.53155C2.02884 35.5 0 33.4702 0 30.9663V9.38602C0 6.88214 2.02884 4.85234 4.53155 4.85234H12.1486C11.8136 5.1351 11.6008 5.55823 11.6008 6.0311C11.6008 6.88242 12.2906 7.57255 13.1415 7.57255Z" fill="#03D9C4" fill-opacity="0.4"/>
<path fill-rule="evenodd" clip-rule="evenodd" d="M20.6639 10.1114V7.75388C20.6639 6.25156 19.4466 5.03368 17.945 5.03368C17.945 2.5298 16.3136 0.772021 13.7759 0.5H12.3258C9.96942 0.772021 8.1568 2.5298 8.1568 5.03368C6.65517 5.03368 5.43787 6.25156 5.43787 7.75388V10.1114C5.43787 10.9126 6.0871 11.5622 6.88796 11.5622H19.2138C20.0147 11.5622 20.6639 10.9126 20.6639 10.1114ZM13.1415 7.57254C13.9924 7.57254 14.6822 6.88241 14.6822 6.03109C14.6822 5.17977 13.9924 4.48964 13.1415 4.48964C12.2906 4.48964 11.6008 5.17977 11.6008 6.03109C11.6008 6.88241 12.2906 7.57254 13.1415 7.57254Z" fill="url(#paint0_linear_105_128)"/>
<path d="M3.98785 18.8156C3.98785 18.2149 4.47478 17.728 5.07543 17.728H12.3259C12.9266 17.728 13.4135 18.2149 13.4135 18.8156C13.4135 19.4162 12.9266 19.9031 12.3259 19.9031H5.07543C4.47478 19.9031 3.98785 19.4162 3.98785 18.8156Z" fill="white"/>
<path d="M3.98785 24.8C3.98785 24.1994 4.47478 23.7124 5.07543 23.7124H19.0326C19.6333 23.7124 20.1202 24.1994 20.1202 24.8C20.1202 25.4007 19.6333 25.8876 19.0326 25.8876H5.07543C4.47478 25.8876 3.98785 25.4007 3.98785 24.8Z" fill="white"/>
<defs>
<linearGradient id="paint0_linear_105_128" x1="13.0509" y1="0.5" x2="13.0509" y2="11.5622" gradientUnits="userSpaceOnUse">
<stop stop-color="#03D9C4"/>
<stop offset="1" stop-color="#038F81"/>
</linearGradient>
</defs>
</svg>
