<svg width="36" height="31" viewBox="0 0 36 31" fill="none" xmlns="http://www.w3.org/2000/svg">
<g filter="url(#filter0_b_104_28)">
<path d="M0.5 11.2523H26.7554V27.0055C26.7554 28.6627 25.4119 30.0061 23.7547 30.0061H3.50061C1.84342 30.0061 0.5 28.6627 0.5 27.0055V11.2523Z" fill="url(#paint0_linear_104_28)"/>
</g>
<g filter="url(#filter1_i_104_28)">
<path d="M35.5 21.792C35.5 26.4528 31.7217 30.2312 27.0608 30.2312C22.4 30.2312 18.6216 26.4528 18.6216 21.792C18.6216 17.1311 22.4 13.3527 27.0608 13.3527C31.7217 13.3527 35.5 17.1311 35.5 21.792Z" fill="#21D4FD" fill-opacity="0.4"/>
</g>
<path fill-rule="evenodd" clip-rule="evenodd" d="M26.6429 23.0476C26.0117 23.0476 25.5 22.5359 25.5 21.9048V17.1429C25.5 16.5117 26.0117 16 26.6429 16H26.8333C27.4645 16 27.9762 16.5117 27.9762 17.1429V20.6667H30.3571C30.9883 20.6667 31.5 21.1783 31.5 21.8095V21.9048C31.5 22.5359 30.9883 23.0476 30.3571 23.0476H26.6429ZM26.6429 16.0952H26.8333C27.4119 16.0952 27.881 16.5643 27.881 17.1429V22.9524H26.6429C26.0643 22.9524 25.5952 22.4833 25.5952 21.9048V17.1429C25.5952 16.5643 26.0643 16.0952 26.6429 16.0952ZM27.9762 20.7619V22.9524H30.3571C30.9357 22.9524 31.4048 22.4833 31.4048 21.9048V21.8095C31.4048 21.2309 30.9357 20.7619 30.3571 20.7619H27.9762Z" fill="white"/>
<path d="M26.8333 16.0952H26.6429C26.0643 16.0952 25.5952 16.5643 25.5952 17.1429V21.9048C25.5952 22.4833 26.0643 22.9524 26.6429 22.9524H27.881V17.1429C27.881 16.5643 27.4119 16.0952 26.8333 16.0952Z" fill="white"/>
<path d="M27.9762 20.7619V22.9524H30.3571C30.9357 22.9524 31.4048 22.4833 31.4048 21.9048V21.8095C31.4048 21.2309 30.9357 20.7619 30.3571 20.7619H27.9762Z" fill="white"/>
<path d="M0.5 6.56808C0.5 5.00744 1.76516 3.74228 3.3258 3.74228H23.8702C25.4308 3.74228 26.696 5.00744 26.696 6.56808V11.2268H0.5V6.56808Z" fill="#21D4FD" fill-opacity="0.4"/>
<path d="M6.15161 1.52746C6.15161 0.683868 6.83547 0 7.67907 0H8.36642C9.21002 0 9.89389 0.683868 9.89389 1.52746V3.81865H6.15161V1.52746Z" fill="#21D4FD" fill-opacity="0.4"/>
<path d="M17.3784 1.52746C17.3784 0.683868 18.0623 0 18.9059 0H19.5933C20.4369 0 21.1207 0.683868 21.1207 1.52746V3.81865H17.3784V1.52746Z" fill="#21D4FD" fill-opacity="0.4"/>
<path d="M6.12615 1.50031C6.12615 0.67171 6.79786 0 7.62645 0H8.37661C9.2052 0 9.87691 0.67171 9.87691 1.50031V3.75077H6.12615V1.50031Z" fill="#21D4FD" fill-opacity="0.4"/>
<path d="M17.3784 1.50031C17.3784 0.67171 18.0502 0 18.8788 0H19.6289C20.4575 0 21.1292 0.67171 21.1292 1.50031V3.75077H17.3784V1.50031Z" fill="#21D4FD" fill-opacity="0.4"/>
<defs>
<filter id="filter0_b_104_28" x="-5.5" y="5.2523" width="38.2554" height="30.7538" filterUnits="userSpaceOnUse" color-interpolation-filters="sRGB">
<feFlood flood-opacity="0" result="BackgroundImageFix"/>
<feGaussianBlur in="BackgroundImageFix" stdDeviation="3"/>
<feComposite in2="SourceAlpha" operator="in" result="effect1_backgroundBlur_104_28"/>
<feBlend mode="normal" in="SourceGraphic" in2="effect1_backgroundBlur_104_28" result="shape"/>
</filter>
<filter id="filter1_i_104_28" x="18.6216" y="13.3527" width="17.0784" height="16.9784" filterUnits="userSpaceOnUse" color-interpolation-filters="sRGB">
<feFlood flood-opacity="0" result="BackgroundImageFix"/>
<feBlend mode="normal" in="SourceGraphic" in2="BackgroundImageFix" result="shape"/>
<feColorMatrix in="SourceAlpha" type="matrix" values="0 0 0 0 0 0 0 0 0 0 0 0 0 0 0 0 0 0 127 0" result="hardAlpha"/>
<feOffset dx="0.2" dy="0.1"/>
<feGaussianBlur stdDeviation="0.5"/>
<feComposite in2="hardAlpha" operator="arithmetic" k2="-1" k3="1"/>
<feColorMatrix type="matrix" values="0 0 0 0 1 0 0 0 0 1 0 0 0 0 1 0 0 0 0.6 0"/>
<feBlend mode="normal" in2="shape" result="effect1_innerShadow_104_28"/>
</filter>
<linearGradient id="paint0_linear_104_28" x1="2.28002" y1="16.9738" x2="25.443" y2="13.8854" gradientUnits="userSpaceOnUse">
<stop stop-color="#21D4FD"/>
<stop offset="1" stop-color="#2152FF"/>
</linearGradient>
</defs>
</svg>
