<svg width="16" height="21" viewBox="0 0 16 21" fill="none" xmlns="http://www.w3.org/2000/svg">
<path d="M15.9417 5.48701L10.8508 0.5V5.48701H15.9417Z" fill="url(#paint0_linear_679_804)"/>
<path d="M0.87677 18.4221C0.87677 19.5697 1.80709 20.5 2.95469 20.5H13.8638C15.0114 20.5 15.9417 19.5697 15.9417 18.4221V5.48701H10.8508V0.5L2.94387 0.541182C1.8005 0.547137 0.87677 1.4757 0.87677 2.61908V18.4221Z" fill="#3A416F" fill-opacity="0.4"/>
<path d="M7.9301 16.6082C7.9301 16.3094 8.17846 16.0671 8.48482 16.0671C8.79117 16.0671 9.03953 16.3094 9.03953 16.6082V17.2576C9.03953 17.5564 8.79117 17.7987 8.48482 17.7987C8.17846 17.7987 7.9301 17.5564 7.9301 17.2576V16.6082Z" fill="url(#paint1_linear_679_804)"/>
<path d="M7.9301 10.0281C7.9301 9.72928 8.17846 9.48701 8.48482 9.48701C8.79117 9.48701 9.03953 9.72928 9.03953 10.0281V10.5043C9.03953 10.8032 8.79117 11.0455 8.48482 11.0455C8.17846 11.0455 7.9301 10.8032 7.9301 10.5043V10.0281Z" fill="url(#paint2_linear_679_804)"/>
<path d="M10.9547 14.9225C10.9547 15.2481 10.8766 15.5286 10.7204 15.7641C10.5713 15.9926 10.3228 16.2039 9.97486 16.3978C9.74055 16.5364 9.46719 16.6403 9.15478 16.7095C8.84237 16.7788 8.5264 16.8134 8.20689 16.8134C7.88028 16.8134 7.47556 16.7095 6.99274 16.5017C6.64483 16.3355 6.36792 16.1381 6.16201 15.9095C5.9632 15.681 5.8638 15.4316 5.8638 15.1615C5.8638 14.9745 5.9064 14.8394 5.9916 14.7563C6.0768 14.6662 6.21526 14.6212 6.40697 14.6212C6.50637 14.6212 6.60933 14.6628 6.71583 14.7459C6.82234 14.8221 6.88624 14.8983 6.90754 14.9745C7.00694 15.2584 7.1809 15.4766 7.42941 15.629C7.67792 15.7745 7.98678 15.8472 8.356 15.8472C8.78202 15.8472 9.13703 15.771 9.42104 15.6186C9.71215 15.4662 9.85771 15.2619 9.85771 15.0056C9.85771 14.7563 9.7015 14.5346 9.38909 14.3407C9.07668 14.1468 8.75716 14.0117 8.43055 13.9355C7.96193 13.8108 7.54656 13.6619 7.18445 13.4887C6.80813 13.3087 6.52767 13.087 6.34307 12.8238C6.15846 12.5606 6.06615 12.2836 6.06615 11.9926C6.06615 11.7225 6.16201 11.4489 6.35372 11.1719C6.54542 10.8879 6.77263 10.6836 7.03534 10.5589C7.17735 10.4896 7.41876 10.4169 7.75957 10.3407C8.10749 10.2576 8.35955 10.216 8.51575 10.216C8.72166 10.216 8.94887 10.2403 9.19738 10.2887C9.44589 10.3372 9.64825 10.4065 9.80446 10.4965C10.1169 10.6697 10.3476 10.8255 10.4967 10.9641C10.6458 11.1026 10.7204 11.2758 10.7204 11.4836C10.7204 11.6082 10.6707 11.7191 10.5713 11.816C10.479 11.913 10.3157 11.9615 10.0814 11.9615C10.0246 11.9615 9.96776 11.9372 9.91096 11.8887C9.85416 11.8403 9.78316 11.7675 9.69795 11.6706C9.58435 11.5251 9.47429 11.4281 9.36779 11.3797C9.26129 11.345 9.10508 11.3069 8.89917 11.2654C8.70036 11.2238 8.52285 11.203 8.36665 11.203C8.19624 11.203 8.01873 11.2377 7.83413 11.3069C7.64952 11.3762 7.49331 11.4766 7.36551 11.6082C7.2448 11.7329 7.18445 11.8784 7.18445 12.0446C7.18445 12.1831 7.24835 12.3043 7.37616 12.4082C7.51106 12.5052 7.67082 12.5849 7.85543 12.6472C8.06844 12.7303 8.2992 12.803 8.54771 12.8654C8.87432 12.9623 9.14058 13.0524 9.34649 13.1355C9.5595 13.2117 9.76541 13.3087 9.96421 13.4264C10.3121 13.6273 10.5642 13.8351 10.7204 14.0498C10.8766 14.2576 10.9547 14.5485 10.9547 14.9225Z" fill="url(#paint3_linear_679_804)"/>
<path d="M3.37028 3.46104C3.37028 3.23152 3.55635 3.04546 3.78587 3.04546H6.79885C7.02838 3.04546 7.21444 3.23152 7.21444 3.46104V3.87662C7.21444 4.10615 7.02838 4.29221 6.79885 4.29221H3.78587C3.55635 4.29221 3.37028 4.10615 3.37028 3.87662V3.46104Z" fill="white"/>
<path d="M3.37028 5.95455C3.37028 5.72503 3.55635 5.53896 3.78587 5.53896H6.79885C7.02838 5.53896 7.21444 5.72503 7.21444 5.95455V6.37013C7.21444 6.59965 7.02838 6.78572 6.79885 6.78572H3.78587C3.55635 6.78572 3.37028 6.59965 3.37028 6.37013V5.95455Z" fill="white"/>
<defs>
<linearGradient id="paint0_linear_679_804" x1="8.40924" y1="0.5" x2="8.40924" y2="20.5" gradientUnits="userSpaceOnUse">
<stop stop-color="#3A416F"/>
<stop offset="1" stop-color="#141727"/>
</linearGradient>
<linearGradient id="paint1_linear_679_804" x1="8.40925" y1="9.48701" x2="8.40925" y2="17.7987" gradientUnits="userSpaceOnUse">
<stop stop-color="#3A416F"/>
<stop offset="1" stop-color="#141727"/>
</linearGradient>
<linearGradient id="paint2_linear_679_804" x1="8.40925" y1="9.48701" x2="8.40925" y2="17.7987" gradientUnits="userSpaceOnUse">
<stop stop-color="#3A416F"/>
<stop offset="1" stop-color="#141727"/>
</linearGradient>
<linearGradient id="paint3_linear_679_804" x1="8.40925" y1="9.48701" x2="8.40925" y2="17.7987" gradientUnits="userSpaceOnUse">
<stop stop-color="#3A416F"/>
<stop offset="1" stop-color="#141727"/>
</linearGradient>
</defs>
</svg>
