<svg width="36" height="31" viewBox="0 0 36 31" fill="none" xmlns="http://www.w3.org/2000/svg">
<g filter="url(#filter0_b_143_375)">
<path d="M0.5 11.2523H26.7553V27.0055C26.7553 28.6627 25.4119 30.0061 23.7547 30.0061H3.50061C1.84342 30.0061 0.5 28.6627 0.5 27.0055V11.2523Z" fill="url(#paint0_linear_143_375)"/>
</g>
<g filter="url(#filter1_i_143_375)">
<path d="M35.5 21.7919C35.5 26.4528 31.7217 30.2312 27.0608 30.2312C22.3999 30.2312 18.6216 26.4528 18.6216 21.7919C18.6216 17.1311 22.3999 13.3527 27.0608 13.3527C31.7217 13.3527 35.5 17.1311 35.5 21.7919Z" fill="#03D9C4" fill-opacity="0.4"/>
</g>
<path d="M0.5 6.56808C0.5 5.00743 1.76515 3.74228 3.3258 3.74228H23.8701C25.4308 3.74228 26.6959 5.00743 26.6959 6.56808V11.2268H0.5V6.56808Z" fill="#03D9C4" fill-opacity="0.4"/>
<path d="M6.1516 1.52746C6.1516 0.683867 6.83547 0 7.67906 0H8.36642C9.21001 0 9.89388 0.683867 9.89388 1.52746V3.81865H6.1516V1.52746Z" fill="#03D9C4" fill-opacity="0.4"/>
<path d="M17.3784 1.52746C17.3784 0.683867 18.0623 0 18.9059 0H19.5933C20.4368 0 21.1207 0.683867 21.1207 1.52746V3.81865H17.3784V1.52746Z" fill="#03D9C4" fill-opacity="0.4"/>
<path d="M6.12614 1.50031C6.12614 0.67171 6.79785 0 7.62645 0H8.3766C9.2052 0 9.87691 0.67171 9.87691 1.50031V3.75076H6.12614V1.50031Z" fill="#03D9C4" fill-opacity="0.4"/>
<path d="M17.3784 1.50031C17.3784 0.67171 18.0501 0 18.8787 0H19.6289C20.4575 0 21.1292 0.67171 21.1292 1.50031V3.75076H17.3784V1.50031Z" fill="#03D9C4" fill-opacity="0.4"/>
<path d="M25.831 19.0312H28.5208C28.7219 19.0312 28.885 18.8677 28.885 18.6659C28.885 18.4641 28.7219 18.3005 28.5208 18.3005H25.831C25.6299 18.3005 25.4668 18.4641 25.4668 18.6659C25.4668 18.8677 25.6299 19.0312 25.831 19.0312Z" fill="url(#paint1_linear_143_375)"/>
<path d="M25.831 18.3005H28.5208H28.5488L29.5327 16.8613C29.6857 16.6375 29.526 16.3333 29.2554 16.3333H25.1169C24.8479 16.3333 24.6878 16.6345 24.8378 16.8585L25.803 18.3005H25.831Z" fill="white"/>
<path d="M23.809 27.125H30.5658C31.6799 27.125 32.5831 26.2191 32.5831 25.1015V24.6151C32.6111 22.218 30.1736 19.9055 28.6047 19.0312H28.5208H25.831H25.831C24.6542 19.6611 22.0486 21.5129 21.7965 24.6715L21.7918 25.0784C21.779 26.2049 22.6858 27.125 23.809 27.125Z" fill="white"/>
<defs>
<filter id="filter0_b_143_375" x="-5.5" y="5.25232" width="38.2554" height="30.7538" filterUnits="userSpaceOnUse" color-interpolation-filters="sRGB">
<feFlood flood-opacity="0" result="BackgroundImageFix"/>
<feGaussianBlur in="BackgroundImageFix" stdDeviation="3"/>
<feComposite in2="SourceAlpha" operator="in" result="effect1_backgroundBlur_143_375"/>
<feBlend mode="normal" in="SourceGraphic" in2="effect1_backgroundBlur_143_375" result="shape"/>
</filter>
<filter id="filter1_i_143_375" x="18.6216" y="13.3527" width="17.0784" height="16.9784" filterUnits="userSpaceOnUse" color-interpolation-filters="sRGB">
<feFlood flood-opacity="0" result="BackgroundImageFix"/>
<feBlend mode="normal" in="SourceGraphic" in2="BackgroundImageFix" result="shape"/>
<feColorMatrix in="SourceAlpha" type="matrix" values="0 0 0 0 0 0 0 0 0 0 0 0 0 0 0 0 0 0 127 0" result="hardAlpha"/>
<feOffset dx="0.2" dy="0.1"/>
<feGaussianBlur stdDeviation="0.5"/>
<feComposite in2="hardAlpha" operator="arithmetic" k2="-1" k3="1"/>
<feColorMatrix type="matrix" values="0 0 0 0 1 0 0 0 0 1 0 0 0 0 1 0 0 0 0.6 0"/>
<feBlend mode="normal" in2="shape" result="effect1_innerShadow_143_375"/>
</filter>
<linearGradient id="paint0_linear_143_375" x1="1.71278" y1="13.0384" x2="26.3467" y2="26.498" gradientUnits="userSpaceOnUse">
<stop stop-color="#03D9C4"/>
<stop offset="1" stop-color="#038F81"/>
</linearGradient>
<linearGradient id="paint1_linear_143_375" x1="22.2902" y1="17.3611" x2="33.7002" y2="21.8141" gradientUnits="userSpaceOnUse">
<stop stop-color="#03D9C4"/>
<stop offset="1" stop-color="#038F81"/>
</linearGradient>
</defs>
</svg>
