<svg width="36" height="28" viewBox="0 0 36 28" fill="none" xmlns="http://www.w3.org/2000/svg">
<path d="M3.85417 1.60417C3.85417 0.71821 4.57238 0 5.45833 0H16.3958C17.2818 0 18 0.71821 18 1.60417V12.3958C18 13.2818 17.2818 14 16.3958 14H5.45833C4.57238 14 3.85417 13.2818 3.85417 12.3958V1.60417Z" fill="url(#paint0_linear_3043_2064)"/>
<path d="M21.3542 5.10417C21.3542 4.21821 22.0724 3.5 22.9583 3.5H30.3958C31.2818 3.5 32 4.21821 32 5.10417V12.3958C32 13.2818 31.2818 14 30.3958 14H22.9583C22.0724 14 21.3542 13.2818 21.3542 12.3958V5.10417Z" fill="url(#paint1_linear_3043_2064)"/>
<path d="M0.5 22.75C0.5 19.8505 2.85051 17.5 5.75 17.5H30.25C33.1495 17.5 35.5 19.8505 35.5 22.75C35.5 25.6495 33.1495 28 30.25 28H5.75C2.8505 28 0.5 25.6495 0.5 22.75Z" fill="#9CACCC" fill-opacity="0.4"/>
<path d="M9.25 22.75C9.25 23.7165 8.4665 24.5 7.5 24.5C6.5335 24.5 5.75 23.7165 5.75 22.75C5.75 21.7835 6.5335 21 7.5 21C8.4665 21 9.25 21.7835 9.25 22.75Z" fill="white"/>
<path d="M19.75 22.75C19.75 23.7165 18.9665 24.5 18 24.5C17.0335 24.5 16.25 23.7165 16.25 22.75C16.25 21.7835 17.0335 21 18 21C18.9665 21 19.75 21.7835 19.75 22.75Z" fill="white"/>
<path d="M30.25 22.75C30.25 23.7165 29.4665 24.5 28.5 24.5C27.5335 24.5 26.75 23.7165 26.75 22.75C26.75 21.7835 27.5335 21 28.5 21C29.4665 21 30.25 21.7835 30.25 22.75Z" fill="white"/>
<defs>
<linearGradient id="paint0_linear_3043_2064" x1="18" y1="0" x2="18" y2="28" gradientUnits="userSpaceOnUse">
<stop stop-color="#9CACCC"/>
<stop offset="1" stop-color="#7487A6"/>
</linearGradient>
<linearGradient id="paint1_linear_3043_2064" x1="18" y1="0" x2="18" y2="28" gradientUnits="userSpaceOnUse">
<stop stop-color="#9CACCC"/>
<stop offset="1" stop-color="#7487A6"/>
</linearGradient>
</defs>
</svg>
