<svg width="16" height="14" viewBox="0 0 16 14" fill="none" xmlns="http://www.w3.org/2000/svg">
<path d="M2.30159 8.07641L7.24261 12.6999C7.44769 12.8918 7.71839 12.9987 8.00003 12.9987C8.28167 12.9987 8.55237 12.8918 8.75745 12.6999L13.6985 8.07641C14.5297 7.3008 15 6.21276 15 5.07538V4.91642C15 3.00069 13.6192 1.36725 11.7352 1.05208C10.4883 0.843785 9.21956 1.25214 8.32816 2.1456L8.00003 2.47448L7.67191 2.1456C6.7805 1.25214 5.51175 0.843785 4.26487 1.05208C2.38089 1.36725 1.00003 3.00069 1.00003 4.91642V5.07538C1.00003 6.21276 1.47034 7.3008 2.30159 8.07641Z" fill="white"/>
<path d="M2.30159 8.07641L7.24261 12.6999C7.44769 12.8918 7.71839 12.9987 8.00003 12.9987C8.28167 12.9987 8.55237 12.8918 8.75745 12.6999L13.6985 8.07641C14.5297 7.3008 15 6.21276 15 5.07538V4.91642C15 3.00069 13.6192 1.36725 11.7352 1.05208C10.4883 0.843785 9.21956 1.25214 8.32816 2.1456L8.00003 2.47448L7.67191 2.1456C6.7805 1.25214 5.51175 0.843785 4.26487 1.05208C2.38089 1.36725 1.00003 3.00069 1.00003 4.91642V5.07538C1.00003 6.21276 1.47034 7.3008 2.30159 8.07641Z" stroke="#344767"/>
</svg>
