<svg width="25" height="25" viewBox="0 0 25 25" fill="none" xmlns="http://www.w3.org/2000/svg">
<g id="add page icon">
<path id="Vector" d="M0.13844 20.9274C0.0778466 22.5639 1.22066 23.9427 2.68041 24.0083L9.35113 24.3083L9.57148 18.3571C9.60256 17.518 10.2362 16.862 10.9953 16.8962L16.3263 17.1359L16.3913 15.3809C13.3311 14.2543 11.1868 10.9746 11.3263 7.20695C11.4279 4.46231 12.7185 2.08842 14.6207 0.66805C14.5094 0.64706 14.3972 0.635384 14.2814 0.630179L3.56388 0.148227C2.10413 0.0825844 0.863175 1.35421 0.802582 2.99068L0.13844 20.9274ZM10.748 24.3262L16.2345 18.6846L10.9656 18.4476L10.748 24.3262ZM18.4743 14.238C20.0648 14.3096 21.6169 13.6733 22.7891 12.468C23.9614 11.2625 24.6574 9.58686 24.7232 7.80939C24.789 6.03191 24.2192 4.29931 23.14 2.99265C22.0608 1.68609 20.5608 0.912555 18.9704 0.841033C17.3799 0.769511 15.8277 1.4058 14.6555 2.61112C13.4833 3.81653 12.7873 5.49221 12.7215 7.26969C12.6556 9.04716 13.2254 10.7798 14.3047 12.0864C15.3839 13.393 16.8838 14.1665 18.4743 14.238ZM19.3092 10.5604C19.2936 10.9838 18.9695 11.3215 18.5829 11.3041C18.1964 11.2867 17.8984 10.9211 17.914 10.4976L17.996 8.28329L16.0142 8.19417C15.6277 8.17679 15.3297 7.81113 15.3453 7.38768C15.361 6.96423 15.6851 6.62655 16.0716 6.64393L18.0534 6.73304L18.1354 4.51872C18.1511 4.09526 18.4752 3.75758 18.8617 3.77496C19.2482 3.79235 19.5463 4.158 19.5306 4.58146L19.4486 6.79578L21.4304 6.8849C21.8169 6.90228 22.115 7.26794 22.0993 7.6914C22.0836 8.11485 21.7595 8.45253 21.373 8.43515L19.3912 8.34603L19.3092 10.5604Z" fill="#2275FF" stroke="white" stroke-width="0.0555556"/>
<path id="Vector 1" d="M4.52539 6.77921H7.49788" stroke="white" stroke-linecap="round"/>
<path id="Vector 2" d="M4.04346 12.5339C5.43761 12.5339 6.83272 12.4454 8.22101 12.4454" stroke="white" stroke-linecap="round"/>
<path id="Vector 3" d="M3.88281 17.2263H8.06037" stroke="white" stroke-linecap="round"/>
</g>
</svg>
