<svg width="25" height="25" viewBox="0 0 25 25" fill="none" xmlns="http://www.w3.org/2000/svg">
<path d="M6.25 3.125C6.25 1.40137 7.37109 0 8.75 0H22.5C23.8789 0 25 1.40137 25 3.125V17.1875C25 18.9111 23.8789 20.3125 22.5 20.3125H13.1562C12.6953 19.0674 11.9883 17.9932 11.1094 17.1875H15V15.625C15 14.7607 15.5586 14.0625 16.25 14.0625H18.75C19.4414 14.0625 20 14.7607 20 15.625V17.1875H22.5V3.125H8.75V5.52246C8.01563 4.99023 7.16016 4.6875 6.25 4.6875V3.125ZM6.25 6.25C6.74246 6.25 7.23009 6.37125 7.68506 6.60682C8.14003 6.84238 8.55343 7.18766 8.90165 7.62294C9.24987 8.05821 9.52609 8.57496 9.71455 9.14367C9.903 9.71239 10 10.3219 10 10.9375C10 11.5531 9.903 12.1626 9.71455 12.7313C9.52609 13.3 9.24987 13.8168 8.90165 14.2521C8.55343 14.6873 8.14003 15.0326 7.68506 15.2682C7.23009 15.5038 6.74246 15.625 6.25 15.625C5.75754 15.625 5.26991 15.5038 4.81494 15.2682C4.35997 15.0326 3.94657 14.6873 3.59835 14.2521C3.25013 13.8168 2.97391 13.3 2.78545 12.7313C2.597 12.1626 2.5 11.5531 2.5 10.9375C2.5 10.3219 2.597 9.71239 2.78545 9.14367C2.97391 8.57496 3.25013 8.05821 3.59835 7.62294C3.94657 7.18766 4.35997 6.84238 4.81494 6.60682C5.26991 6.37125 5.75754 6.25 6.25 6.25ZM5.20703 17.1875H7.28906C10.168 17.1875 12.5 20.1025 12.5 23.6963C12.5 24.4141 12.0352 25 11.457 25H1.04297C0.464844 25 0 24.4189 0 23.6963C0 20.1025 2.33203 17.1875 5.20703 17.1875Z" fill="white"/>
</svg>
