<svg width="40" height="40" viewBox="0 0 40 40" fill="none" xmlns="http://www.w3.org/2000/svg">
<g id="icon">
<circle id="Ellipse 1" cx="20" cy="20" r="19.5" fill="white" stroke="#899ABA"/>
<path id="Vector" d="M14.25 8.625H13.75V9.125V13.3125H11.625V9.125C11.625 7.67751 12.8025 6.5 14.25 6.5H25.3193C26.018 6.5 26.6863 6.77529 27.1777 7.26664L28.6084 8.6973C29.0997 9.18866 29.375 9.85704 29.375 10.5557V13.3125H27.25V10.5557V10.3486L27.1036 10.2021L25.6729 8.77145L25.5264 8.625H25.3193H14.25ZM27.25 23.1875V22.6875H26.75H14.25H13.75V23.1875V23.9688V24.75V27.875V28.375H14.25H26.75H27.25V27.875V24.75V23.1875ZM29.875 24.25H29.375V24.75V27.875C29.375 29.3225 28.1975 30.5 26.75 30.5H14.25C12.8025 30.5 11.625 29.3225 11.625 27.875V24.75V24.25H11.125H9.5625C8.97438 24.25 8.5 23.7756 8.5 23.1875V18.5C8.5 17.0525 9.67751 15.875 11.125 15.875H29.875C31.3225 15.875 32.5 17.0525 32.5 18.5V23.1875C32.5 23.7756 32.0256 24.25 31.4375 24.25H29.875ZM30.2759 18.0991C29.9624 17.7855 29.5372 17.6094 29.0938 17.6094C28.6503 17.6094 28.2251 17.7855 27.9116 18.0991C27.598 18.4126 27.4219 18.8378 27.4219 19.2812C27.4219 19.7247 27.598 20.1499 27.9116 20.4634C28.2251 20.777 28.6503 20.9531 29.0938 20.9531C29.5372 20.9531 29.9624 20.777 30.2759 20.4634C30.5895 20.1499 30.7656 19.7247 30.7656 19.2812C30.7656 18.8378 30.5895 18.4126 30.2759 18.0991Z" fill="#3A416F" fill-opacity="0.4" stroke="#899ABA"/>
</g>
</svg>
